<mxfile host="app.diagrams.net" modified="2021-02-28T01:33:10.556Z" agent="5.0 (Windows NT 10.0; Win64; x64) AppleWebKit/537.36 (KHTML, like Gecko) Chrome/88.0.4324.190 Safari/537.36" etag="ZmdeRU12n6uGxinxX3jw" version="14.4.3" type="github">
  <diagram id="7oOaLp3Hi9pFn0z0SrfZ" name="Page-1">
    <mxGraphModel dx="1422" dy="762" grid="1" gridSize="10" guides="1" tooltips="1" connect="1" arrows="1" fold="1" page="1" pageScale="1" pageWidth="827" pageHeight="1169" math="0" shadow="0">
      <root>
        <mxCell id="0" />
        <mxCell id="1" parent="0" />
        <mxCell id="XNyWhRnu9zckB0rVUKcg-2" value="" style="shape=image;verticalLabelPosition=bottom;labelBackgroundColor=#ffffff;verticalAlign=top;aspect=fixed;imageAspect=0;image=data:image/png,iVBORw0KGgoAAAANSUhEUgAABQAAAAEyCAYAAAClGX1CAAAABGdBTUEAALGPC/xhBQAAACBjSFJNAAB6JgAAgIQAAPoAAACA6AAAdTAAAOpgAAA6mAAAF3CculE8AAAABmJLR0QA/wD/AP+gvaeTAACAAElEQVR42uydeXiU1fXHv+fOTAIJ4IJkJgHcimTeBBEF3BdwA2YSUat0UbGtW92q1rYubX+itlqtbdW6t3W3alwQMjNAUXG3CqgVkhkWRQUz75sgLpBAMjP3/P4gWq0smXf2mfN5Hp5WmPu+95577r3nnvfecwBBEARBEARBEARBEARBEARBEARBEARBEARBEARBEARBEARBEARBEARBEARBEPIIEhEUNiNCK8rL1IARiTiqCKqMgAQ4sc5JsVVLGnb7tGQFw0xGKLors2MoESqZQAx0EumPI294PsIM0qI9giAIgiAIgiAIgiCUAuIALDRmsKodZx7hAJ3IhCMBeAGorfRuGzFeAFGofyIxc3FjTVcxi8YItu3GUD8gxtEgHAigcis/3QjCGwTMj2t6bHmD+31RLEEQBEEQBEEQBEEQihVxABYIw5pW9x8wwHkGMV0KYHcbj1gP4O867rhp2dQhbcUkm7pA22Ga6EoCHYutOUO3DgN4TjNft6yheoFomiAIgiAIgiAIgiAIxYY4AAsAb8hsJMatsOf4+186wXxthcfz58XjKFbIchk17+PhiYTjFjBOSNMjA6z4wsiU6g9E6wRBEARBEARBEARBKBbEAZjHDGta3X/QANfNzDg7A4//N6C/H/bXfFiIsjGarROg+F4AO6b50V8Q+KxWf3WTaKAgCIIgCIIgCIIgCMWAOADzlDEzP92x27WpGUSHZvA1FrT2hRtr3iok2RhB8yIAf8mo/hLdEPa5LxdNFARBEARBEARBEASh0BEHYB6y5/x1O5T39LwAYEwWXvcFtJ5YKE5Ab8D6PyK+OkuD4/pWv+dK0UhBEARBEARBEARBEAoZcQDmGRMWsNPaaM0HY0K23slAO0Hvn+/XgY2AeQYIf8/uCKHzwj73naKZgiAIgiAIgiAIgiAUKkpEkF9YG9t/l03nHwAQUAWox8YuYle+yqU+2D4GhNuy/mLmm+vnRMeLZgqCIAiCIAiCIAiCUKiIAzCPqA22jQPzL3L0+gM7LevSvBRMEzs0EvcC6JeDt5fpBN2Xz85RQRAEQRAEQRAEQRCEbSEOwHyBmQjqDgCOXFWBgN/UzuqoyTfRGBXmOQDti9wJpr7LtM4XJRUEQRAEQRAEQRAEoRARB2CeYMw1pxCQ66umlQ5nPK9OAY5dxC4Q/SrnFSFcNqxpdX/RVEEQBEEQBEEQBEEQCg1xAOYJxPhZPtSDQWeNbW6ryBe5dJnWdwHslgdV8QwcUHayaKogCIIgCIIgCIIgCIWGOADzgNpZHTXMdHSeVGdgp1LH541wiKbnTV2YTxNtFQRBEARBEARBEASh0BAHYB7gcCUmI4ex/7agFP58qMfuC1b1A3hiHnXVhNpZHQNFYwVBEARBEARBEARBKCTEAZgHMPMReVUfIC+cbv029DsQucn8uzWc5NAHi8YKgiAIgiAIgiAIglBIiAMwHyA1Ks9qVF0/d/XOOVdOor3zcMSMEoUVBEEQBEEQBEEQBKGQEAdgPsD8nfyrkzPndWJgz3wTC2n9HVFYQRAEQRAEQRAEQRAKCXEA5poZrADkXVw5rdWOua4DEe2Yd/2Vj3USBEEQBEEQBEEQBEHYBuIAzDFjx0b75WU/aAzIdRUY3D/fxMKEStFaQRAEQRAEQRAEQRAKCXEA5phYmaJ8rBcT8qFeeScbxSDRWkEQBEEQBEEQBEEQCglxAAqCIAiCIAiCIAiCIAhCESMOQEEQBEEQBEEQBEEQBEEoYsQBKAiCIAiCIAiCIAiCIAhFjDgABUEQBEEQBEEQBEEQBKGIEQegIAiCIAiCIAiCIAiCIBQx4gAUBEEQBEEQBEEQBEEQhCJGHICCIAiCIAiCIAiCIAiCUMSIA1AQBEEQBEEQBEEQBEEQihhxAAqCIAiCIAiCIAiCIAhCESMOQEEQBEEQBEEQBEEQBEEoYsQBKAiCIAiCIAiCIAiCIAhFjDgABUEQBEEQBEEQBEEQBKGIEQegIAiCIAiCIAiCIAiCIBQx4gAUBEEQBEEQBEEQBEEQhCJGHICCIAiCIAiCIAiCIAiCUMSIA1AQBEEQBEEQBEEQBEEQihhxAAqCIAiCIAiCIAiCIAhCEeMsxErXB9s9mrWfCYcQsC+AXQHs3PvPPQA+YSCswO8QHPM/7+x+cc204Rulu4WipokddRXRg5nUsQweRyADgBtAPwAAYwOAD6GwhBivK6LgUp/7PRGcIAiCIAiCIAiCIBQ3heMAnMGqbrzVyIwLNfREEBRt+ZdlAKoJqGbQkQz984GVrs+MoPUINN0SbqxaId0uFBOj55lVsTguBKwfM9RQACBsYXQQBgCoB6Oege8nmG8xgtZigr69hzb8c6Vvr26RpiAIgiAIgiAIgiAUHwVxBbg2EJ1ojDcXMfAMCEfZqPeOAJ8PpVuNoPl3Y25HtXS9UOjUzuoY6A2Yv4/F8T6A3wAYmvxTeCyD7nXxwIgRML8vUhUEQRAEQRAEQRCE4iOvHYC7L1jVzwhatymi5wDaNw2PdAI4A/HEcm/QvGL3Bav6iQoIBccMVt5g9EfKmVhGhCsBVKZjuIHwqBE0nxkRig4RIQuCIAiCIAiCIAhC8ZC3DkBjbkd1/67+LwJ8PgBK68MJAwi4rqKrf4s3YJ0oaiAUCt5m6yDveOvfBLoPQCZOsk51Mb1hBMxRIm1BEARBEARBEARBKA7y0gE4apblpkTieQD7Z/I9DOxJxE8ZIXNBfbO1j6iDkK/UzuqoqQuZd5PiVwgYn+HX7QHCy7XBtnEieUEQBEEQBEEQBEEofPLOATgi9MmghJOfZ8CbtZcyJmjFi41A9I6RzW27iFoI+cKwptX9jZD1W+VMLGfG2VkcszsqqDm1s809pBcEQRAEQRAEQRAEobDJLwcgM7k49iCAuhy83QGicx3KsdwImheNXcQuUQ8hl9QFoicPrHSFwXwN0hPnL1l2UQ48M6xpdX/pDUEQBEEQBEEQBEEoXPLKAVgXMn8EYGpua8E7Abi5yzKXGoGoX1REyDb1wfYxRtB6kYmaAOyW4+qMHlhZdrX0iiAIgiAIgiAIgiAULs58qcjegQ93ioNuyh/R0EgQAkbQDDAcl0b8Q5aLugiZZPQ8syqewLWa9RkAHPlTM77ECJgPhhs8S6WXBEEQBEEQcs+wptX9d6rQ/Xp0+Y4JZzzmYuVIsMNBCbWpetAu7S9MpHg26zNm5qc7birrOYrAuxIjrkGLI4uq/o0ZpKW3hGyOi4EVziOJ6DsMOEjhXVr/ycst0+p7RDqCkEcOwBjKf0HAznkoowZCYpI3aN7ZU1b2f+8fs/PnojZCOhm7iF1dlnVeLI6rAeyQl/ME8dUAviu9JQiCIAiCkB1Gzft4eKLHOQ6k94VSXrAeAVANgCEAVByAcgCKN2/pHMSAMwGry4obAfNFgP8SbqgOZrKOw5pW9x9U6fxdN7rPJ6AcAJgAAsMYby7noHlpxO8JSG8KGaWJHd5K65cEXAFgEPf+NWuAKwebdcHola0+z/0gYhGWUMpQPlRibHNbRZdSbchP58dXMNAOwm8ib7r/ka6vWaPnmZWxODbkXVuZvhtpcD+dyzoYQfNxANPybMA0t/o9x6WtjXOiPmj1Z4Br83yuYOVQI1smV62UaVMQBEEQBCEDzGDl3d88jFidDOhjABqZuvFKD6gNa8/OxAmo2lkdA5Uz8SyA/bfz09+G/Z7fSQcLmWDCAnaaG62niLG9Pdo/wgvdZ8upVKGUyYsYgJ1EJyPPnX8AQEAVMe4xxpuLjGDb4aI+gl1GNrd5jaAVgqZgATj/AIA4oX8iPScIgiAIgpB2u3AXI2j+xju+/UNiegHg89Pi/AMA5tN5wOC/ZmQj6dL/wPadfwBwrREyvyc9LWSC9i7r2j44/wDgjLr9rctFYkIpkxcOQCI6obDERvsC6kUjaDbXzjb3EDUS+sqYmZ/uaISsPziUegfgKYVUdwaOlx4UBEEQBEFID7WzOgbWBc3rHUp9COBaAg/LiA3HOLt+Tvuh6XxmXdA8AMwnJ2FI3jh2Ebuk14V0YsztqGbgkiTGwpWjZllukZxQquTeAdjEDgBHFqj8GpQDLUYges3oeWalqJOwLT2vC1rndJd1LwfzZeiNkVJoa+yI0Jph0pmCIAiCIAipUR8wj1PORJiBywFUZPp9Wuvz0vk8BpI90bdrZ7R9nPS8kGbFPj7JfVVlwoVJIjihVMm5A7B2YNsIAAMLWIb9QfTbWALLvQHrbMxgJWolfB1vc3SCt9JazOC7sDloc8HiZOcY6VFBEARBEAR71De1lBlB63ZNmAVgaLbey6DD0vtE8iZdgvgA0QAhrXrNnLweah4vkhNKlZw7q4gdI4tCkowaIr7b2N96pX5OVCYVAbWzzT28AesJUrSAgH2KoU0ENqRnBUEQBEEQbNiGszoGcuXguQCfl+13Ezi9H6FZJ32Ag4l2EC0Q0owNPUR/EZtQqjhzXQHSqMqPXMTpWgxxkGZ6wwhZT6pE4hctjTUfiZqVFmOb2yo2KvoVA5cB3K+4Wqd2kR4WBEEQBEFIjtHzzMpYPDGXgYNzVIW10guCIAilTe5PAGYh5kVOmsV8slZqqTdoXj4itKJcVK0EYCYjaJ3WpdRyBl0FoF8RtlJiXQqCIAiCICTBhAXsjMXpCeTO+QcQXpaeEARBKG1y7gBkRfEilu9AAq538cAVRsiaLupWvNQG28bVhayXAX4QWYznkv0ByzHpbUEQBEEQhL5jdVk3Ajwlpybc5ljUgiAIQgmTBzEA9SclIOfhYH6gLmg+XzvHGi1qVzwYczuq60Lm3QrqDQYOKf4Zg9ZJrwuCIAiCIPQNb9BsAHBxLuvAwH0RX/WL0huCIAilTe4dgBoflIqwGZioNC82gtbt3qfXDBb1K1x2X7CqnzdoXoF4Yjkzzs6HsZQlPpTeFwRBEARB2D57zl+3AxHuBnIa8fzROK0/V3pDEARByLnToh94KYB4CcncCfB5VO5aYQSil3Gsu0zUsLDwhszGiq7+LQRcB8KAUmq7JrwjGiAIgiAIgrB9yntiV4JRkwuTDYTXGXRS2Oc+ZaVvr27pDUEQBCHnWYAXN9Z0GUHzHQDjSkv0vBOI/hBH+RmihgXUa8AUYjRyaTZ/fXW/qtZlogaCIAiCIAjbZERozTAwX5imx33OwGICljBTK0F/rJX6jHRiEwCAXOudHHPEgQrN6HQNcK5pmVi1QXpBEARB+DrOfKgEMzUT8bgS7YO9RA1lzBQIgRcmUlxUQBAEQRAEYduUaedlTOifwiMSzHhMKX6kf5Xn2cXjSBKxCYIgCCmRHw5AR/xx0o4ZyG18DEEQtoFiPCZSEARBEARB2Da1szoGMiWm238CvcTgCyINniUiTUEQBCFte/p8qMSyKUOXEfG/pDsEIW9Z1dLlDooYBEEQBEEQto3DqU8BMMhOWWY8ojrXHhPxi/NPEARBSC/5k7mU6SoALF0iCPkHga/FNEqIJARBEARBELa3reHv2bS45kQWuae3TKvvESkKgiAI6SZvHICtfs8bAJqkSwQh78zYt1s7PQ+KHARBEARBELbNyOa2XcA4zEbRjQntOAszSIsUBUEQhEyg8qkyCa0vAGBKtwhC3tCjlfqRnP4TBEEQBEHYPg7lmALAkWw5Bv62vHGXj0WCgiAIQqbIKwfg8saatYD+HgA59i4I+QDRxcumuN8VQQiCIAiCIPTFdOJDbRTTTmfiJpGeIAiCkElUvlUo7K95icA/BSDH3wUhtxbsDWGf+04RhCAIgiAIQt9gjUOSNrmAF5dOGrpapCcIgiBkEpWPlWr1V9/H4DMAxKWLBCEHxivjurDPfblIQhAEQRAEoW/UzuoYCIKRtN1F9IRITxAEQcg0Kl8rFvFX36+ZjwXQId0kCFljI0DTIw2eX4soBEEQBEEQ+o5TxQ07+ytN8edFeoIgCEKmUflcuWUN1QtcToyCZAcWhCzALzMcY8J+90MiC0EQBEEQhCQtKVIjbRRbu2xyzXKRniAIgpBpVL5X8N1Jnvaw3/M9RTgKgCQjEIR0Q2hjpnPCCz0TIv4hYoAKgiAIgiDYQAN72ij2BohYpCcIgiBkGlUoFW3xeZ53V7jHMtM5kGvBgpAOehi4NQaXEWlw34MZJIl3BEEQBEEQbELEuyZdhjkikhMEQRCygSqkyr4wkeKRBvc9Tu6uBdENAHqkCwXBFoEEkxHxey5a6Rv8hYhDEARBEAQhZYYnW4CVek/EJgiCIGQDVYiVXtKw26dhn/tyrRKjwQhJNwpCnwkz0+Sw39O4vMH9vohDEARBEAQhbXiSLcAaYo8JgiAIWUEVcuWXTRm6LNzg8YPpGABh6U5B2CrrAFwc7nTvHWlwzxNxCIIgCIIgpJ0dky2gOfGhiE0QBEHIBqoYGhFucD9b4XbvA+BiAJ9LtwrCV8SIcE9C69qw33MLplFCRCIIgiAIgpARdki2QEW8vyliEwRBELKBKpaGLB5HsbDfcwt3x7/DwK0AxNEhlDrPgrFfq89zzvLGmrUiDkEQBEEQhIxSmeTv9TvH7yiHFwRBEISsoIqtQZETh30S8Xsugtb7A/yydLFQgqwg5mlhv+eYcINnqYhDEARBEAQhs+y+YFU/AM4ki3WCiEV6giAIQjZQxdqwcGPNW2F/9eFMOA7AB9LVQtHD2EDgq2O0fu/WhuonRCCCIAiCIAjZoRKVThvFOkVygiAIQrZQxd7AiM/TvL4zVgfmy8HYIF0uFCEa4IccCRrR6q+esdK3V7eIRBAEQRAEIXt0b3TY2VeJzSYIgiBkDVUKjVwzbfjGcEP1DQl2egF+CIActReKhRcV1Niwv3r60qluS8QhCIIgCIKQfbSLyEYx2ZMIgiAIWUOVUmOXN+7ycdhfPV1pPhDAv6X7hUKFQWtAdHrY557Y4q96RyQiCIIgCIIgCIIgCMLWUKXY6JbG6jfDPvfBIDodgClqIBQQXQS+ekNnz8iwz/2gBI4WBEEQBEEQBEEQBGF7qJJtORGHfe4HXU6MIPDVkBgcQn7DIHoC0HWt/uoZa6YN3ygiEQRBEARBEARBEAShL6hSF8C7kzydrf7qGcqhRm12sAhCvkGLNdFhYZ97Wthf86HIQxAEQRAEQRAEQRCEZFAigs20TK5aGfa5pynCUQCWiESEPCDKTOeEF1btv8znflXEIQiCIAiCIAiCIAiCHcQB+D+0+DzPuyvc+zHTOQA6RCJCDuhh4NYYubyRBvc9mEFaRCIIgiAIgiAIgiAIgl3EAbgFXphI8UiD+x4nd9cycCuAuEhFyBKBBJMR8XsuWukb/IWIQxAEQRAEQRAEQRCEVBEH4DZY0rDbpxG/56KE1nsDNEckImSQdxXhqLDf07i8wf2+iEMQBEEQBEEQBEEQhHQhDsA+sLyxJhL2u31MOA7AeyKRLEFwlUAr1wG42F3hHtvi8zwvnS4IgiAIgiAIgiAIQrpxigj6TsTnaR4RWvEvlx5wMYh+DWBg0TZWcSzndeCidgDGiXBvPKF/vbyxZm1YhpcgCIIgCELO2HP+uh3KerpPUExjQdiZiZKzQ3t67NitQ4yQ1WSnvsQcY6ADoMWqgma2TKzaIL0oCEIy1AfbPQmd8CriRFms/5J3TtjpM5FKcSMOwCRZ6durG8ANI5vb/qGU+i0B5wNwFF1DE7w+D2pBxahDRDxPab5kqb9G/H5CThg9z6zkWHcZADhig1gWe0HIHmNmfrrjRhVPLJs6ZL1IQxDyA28oegHFemYANJi/tD6Zs/HqSjCfbKcgf+3/6Y38iRE0Lw/7PX+X3izs9WFDudaFGAd89DyzsnuTQ8naVhjUBc0DGLhBQx9OiohB6C7rjtcFo7PI4bi8ZXLVypIVDjPtHfxoRwBY0rXrF5hGiWJqnjgAbbK8sWYtgItqg20PKahbABxcTO1zONCe+8GHtiJzAa4g5l+3+qufkBEkZIIJC9hpdq3dk0jXgfVeYOzBioYSwwPADWBnAANjcQBUDgCIl3XDCJqbAFgEvM/MEVK0KBHHgmXHeVYVq6zqm6P7a6VOB3g/MAaC8AGIgus39Ny/Ztrwjdmqx4jQJ4PKqaeWE6qWFXvBPJyASgbtAGAgGANAiIF5AxM2EKn1zLyOmFdBqWWa4uEBQ2reXzyOYjICcs+okPUdDT2SmbwM1BJjBAAPCLsA2AWAoxvdUACMoAkAnwFYD2A9CJ+DeSWDWokoggS1uAcMWfXCRCreRGRN7DAGtJ8CoAHMuzGwgQivE9RTrb6qt0WjSpwZrIz9249j5uMI9J3ejdlb2kH3LZvifjeNG+HrmHFFYW9YMRjA37xBc0jE77lelCf/5rragW0jSDtHEdgAUEvAUMY37DN0oxsu7l0fGBtA2AjG50RYzcD7DLynwO8xU2t4kbsVM0jn1JYKtns0+BKAT4jFsZdyJuANWmuIdbNDqT8t9bkldFYe4g1ZlzLzjfh2ODgng77LCX2sN2CdHGlwzyu2to9sbtvFSTC0Ul6luZZBBojcBN6JgUoAAxCyKuO9+ySj0gKCZhxAB4C1AEwwVoM4AkZrAiq83F+1CkRcKDKw715hplFz2vfUxLsT806aVX8Cf8HQn3K3bomcOOyT0hpIZiMxbgWwexE0Jx6j9QN6TzvmTqZB8woCrit4aTI2EPGfemjD9bmWaTbYc/66Hco3xY4kxeMZMABUARgIUA+guwB8AEYLiF+vcFe/Lo6LFAyvBe0DEhv1RGgcqAgHMWM8CAPS+Ir3GHgWhGBllXtuMfTViNCKcicPvJOAH21lDfwQWp8Ybqx5KxPvN4JtuxHoSN78ZwKBh6XhsTEALQAWMPA8xx0vyhf4bMztTEbQqmfFEwjqcDAf3ruRSyc9YH6ToeaT4n+FN7gXFsuX6FEh6zsJ5kcAHLDFlRN0p8vJv3p3kqdTlK0E17e57SO05sfBvN8W/jlBjDurKt2XpOogrwtFpzBTqKhmJqZDIw3u1zL9IiMQfRlEhyZnEtOMiN99ddEr8AxWxv7W/tA4CkSHAHwIgEFpfstnYLwG4DWQfjncWf1qNtcHb3N0AjnoyV7n85bYyMAZEb/n0QzvF+8l4MdJFvtH2O85sxTnViNk/RbM1/Thp5sImNDq97xR6LZGXOMoIj6KgQm0eV+abtYR8CqDXwbRy/luqyXlAKyfu3pnnXCdyODvEuhAADtu4+cfAHiOmZ7wVFY9V9RfsHsZ29xW0UV0OYh+AaB/AdsOb4f91fvlfIJqtk6A4qcLWCU0GP9wufCbdyd52ota+WewMsa2TwXxmSAciz6fLqZPwTyTlLpNTnv0cSGb9/HwRNxxIoATsPnkcbZiZXYw4TEH8UMtU6oXFqTwmthhVLY3AzxlO7/8nOHYP+Ifsjw9myRzFCs+nZhOAPCdLLQ0TsAbDH5UOeKPtkwevk5GTvqoDbaNU3BMA3gagN2y/PrPAH6eSD3d1b/rqQ8m7rGpEGU4srltFwep10EYsZ2fPhvudE8utus3wnb0I2Dt6VD85jYcC5utVaYnI/6qaamcvDCC5hsA9i8m+RHQ3Or3HJdxO10cgN9g8y0MazIxTmBCQ4YcDdtiLYBnFNRT/dxDnsvkR9v6ULROM/0b24+HHwfTlHCD+9lM1UUcgEnNd9cC+E0SRZaGF7r3yfVJ02T3pHUHWBM5ge+BcDSAPXJQiw4As6B4Zow3PJdvB4D65ACsb27bNaHUpQScDaCfjfesBvCn9Z2xe7J5tSpXjAitGeZix3UAnYpCjGNHdEPY574893L8ZJCLY2uz6OBIJ28QcFGhfzXp08IbsE4k4msB1KWoeHMYfFnE71ki259vG5UdG83jE0znEjABuc/g/oYivqnlTc/ThWQUGCHrXDDf0cfV8YWwzzPR9rh4es1gVeb8IROdDvDYHDa7B+CAYnqgZZE7UFBGXD45JDY7rM4B4cfIjhO3L0r6KYB/QifuzdSJ1bzYsDGfH26ovkO0sESYwcoYb70BYFyf1AP4od0TRsbcjmokEm1FKMWu8EL3wEzP9+IA7N0nh6J1zDiDQacg/afAba8PTPww2HFbuj5mfqPvg+Z8AEf38efvhTvdtZn6kCMOwL72mXUDwL9KthwTT4j4ql/M9/aNmvfx8ERM/ZCIzmZgzzyq2udEeJwSdEdLo/s/eTE7bOsfxy5iV1d7++Vg/g2AsjS87yMwLgv73Y8X0j1pu9QF2g5jolsA2reQ6k3AgfniuDKC5gsAjigU2TFoDRF+HZ5S9VCx63h9sH2Mhr45zf0TB/P1FR7PtXI1GBjWtLr/oErXWQz8HNk/adQXhV/JoD96KqvuLYRT3nVBM8yAt6+/V1D7tvir3knKAJllueMu/QvS9NM0X8dOx+y+jKH/UOn2PCLjq+8bO63pYhBORV6f7Oe3idSfWt+sejTfnbwjQtEhLqY1fbYrGSvDfvfIUrAbBcAIRP0gCiRR5N2w37OPLcdBoG0skVpUjHJ0cvfOSxp2+zTDfVXSDkAjYB3NpC8l0CTk74EPZvA8Uvhr+A3P3HSsD73hG1Yk02YmmhTxuf+ViQaKA3C7GkBGyPoLgIvsmY58WdhXfWO+ts0bsvwE/ALA4cj/g1evMejPkYVVM3Npq6mtO17aduuyzDd674iXpel9u4LwqBE0X/IG2sYW+3hrbah5ObzQMw7AWQwUxhVQRks+nVoj0GMF0t2dIPq/DZ09I8M+94PFvFGpn7t6Z2/QvEVDL0L6nbNOEP12o2UtGD3PrEKpMoOVN2CdPXCAayUDtyAfnX+bB+gIIr67vctaYoSs4/Pb6bBmWDLOPwDQ0H0+AVg7q6PGCJo3J5z8PjH9Iv+cfwDAtQS6r8uyltcFrXMmLGBJBLYVRja3eY2Q+bRmWgrCWcj7sB60LzM/bIy3ltQFo9Mwg1W+1tSVUIcmZVcSRtTOaT9YtLJEIJqeZInR9cF2j71XYW2xbvkHV+4qcWAzhDdkHWsErUUgnk+gyXnudCACTYamoHe89VZdKDol1QfGmQ9Ius2Mg0RzcjETMBlB83bYdf5tNoYH5GPTjIB1tDdkvUFAc+9+tBBuXR5M4CeN8dYSI2RNz5UdvkUDcbNzTr2esZNrRIcSqTeNoPn3UbMsd1EPvBmkw37P38uc2JPAVwPI6yQQBPpDPtWnh764D4R8vp7BIHoC0PVhn/vaYr7iPnYRu4ygeYlOuN4j4GcAHJkTKg6Jx/GiXaO+kKmfEx1v7N++kIjvBqOmIOwLwAvmmUYw+pI3aO6dj3UsTziSlmWfEnQ0scMImBcrR2JZr4FVUQBdtjuD77K6rMW1IesQsZC/Nv6C7R5v0LzLodQSME5A4YXxqGPQ48Z46526oDk1P3ejySe+IebTRDuLnxGhTwYBaEx6f6rjttbKcGf1GgBfFKEoV5ZC7PVs4w20jfUGzeeIeV6OQ3vY3ONhH2YKGUHzBSNkHpiC82CXpMsw7yIalG3jnMkItd8GonNT0xu1PJ+aVRc0pxpB8+3NDniML9DeqQPzA1aX9W59sH1ytl/+LQdgfShaR+SYD6A6C+8+I+Hk9+qC0Rm7L1jVr5jH4LuTPJ2t/uoZDMdoAIE8reaS1q6qR/OpQit9e3WD+eY8dXosZE2HhH3uaWF/zYfFrL/GnKivy2pfAuDP2Hbyn3TK16tZPztm5qc7ogSYsICddUHzOq3p9a1kPSwE8/IwAhbXhaJX1ze1lOVTzRJQSTusNdE244/WB9vHGJXWayD8JT9P/G2X0Yr5ZSMYfbCkT9wCQBM7vCHrUg29koBz0OdERnnL3gw8Uxc0Z48IrRmWVzVTSDqrLwHfK3Y7UQBcHJsGG6dtHQR7H1+nUQLgfxabHAl4SrQpfYyZ+emORtC6nUi9QcCRRdCkI8B43QhGH/Q+vWawDfs86Q9jTESiSdm1aYw57fcBfF6KT4qzUz2XD03yzonubgTMIAPPABhTLFtsDT3HCJqB2jkf12bPDPt6DeZ2VGumOQDvlMWGVzLoqv5d/d+tD5jHFft4jPiHLA/7PY2kcDSAfEp2oJnpp/mYaS9GG24FEM6jKkWZ6ZzIQveBkUb368WsryOb27xG0ApBUxDg2qxXgFDfXdb9UD5fZ0sHo2ZZbqvTXMDAFcjgycqs7eGY/k9XDH6rLtS+bzH214QF7DSC1g291+ALPXskAXRaLI6l3oA1qRTt5Pq57SOMyvbnifkmAJXF1DYGGl3sXGYEopehifNibklQ4lUbxXas6OzXCKHI4elJFyF8snRR9bIU3vkHAJ8VkRDXOp34i+hSmpwOQeu73WXdkV5HiqO4WkenodzZWheMTpOeLjIbdYD1MJhPT4MRcV948pBo7m1u8yJK0BIQfEXabX6lHUvqgtEZ2bDVvrmpTiTuBLBrjhq+lybM8gbN5/L1Clk6aZ3iea7C7R5LwEW9mfxyvAPkayMN7tfyUVYrfXt1E+tzAOT6OkM3AX/QcUdtpMF9TzFn0xwz89MdjZD1B4dS7wA8JcfVaTDGm+cWq6xr51ijE05+I9lA2vlvV6KeWb9uBM2LiqlZI0LRIVanNbc3k1oxbQaGEPEcb9C8ZewidqEUmMHKCEV/pRN6CcCHF3FLK0D0h7pK68VRISvnGYyXTRm6DIyWpPchyceGEwppLZxt7gHYWAc1ZqVij4X9NR8yYTqATUUgxk5S+P67kzztolGprvWfDDJC1v0EfhJ5k9k3E6Yaqhj0uBE0Z45sbpNrugVOfVNLWXuX+RgY30+DbkS6y8t+mdP2NFv7WF3WQgA3F+hNm2RwMegqo9J6xRvsGJnJF33lADRC1nQAOY8XQ8CRBLzlDZm31s9dvXMx9/LicRRr9Xtu5e7YXmC+E0CuTt8907rQc00+y6q1oeZlBl2WwyoEHET1rX7PFcumDinewMpN7KgLWud0l3UvB/NlAMrzxES5fmTz2qHFJm5vwDpRaX4N+ZrkI3XKAdxsBM2HhjWt7l/ojamf036oi+k/IBxVrHsBAn7WZbU/W+zxN0eEPhlkjLeeAtMNAEriaikDhySY38qLhD2KH7RRanIpxoUtFUjRabBxtZCg70/13RGfp5mACQDeLWARLiJSh7VO8Twn2pQadaH2fV0ceyctJ6gKh+MdSi2unxMdLxpQoDZqU0uZrhz8OIO+mwaLYXkPxY95/5idP8/ZOAxGf6wVv47iue7bVw4kJN42AuYZmXqBEwB2X7CqH3fh93l0Od9JjAt1ouxUI2he7a5w317MwWwjJw77BMB5I5vbbnUox5+zfOJq/saKjT8ohNNsEb/7z0bIqup1TGXHIAUiIP55q696TrHPNt7m6AQo62YG9snD6g10qMSVAM4vFnkbQfNMgO9B4SUZsMOpAyudu42Z+elx75yw02eF2V/WaVrrfwAogdNxfDiDX62f2z6pZXLVymJr3cjmNq+TYzOTzQpdJAwC89NGyLox/GbVlbla+3XM+bByJq5DcqdonZr19wHcLFu94oMIP7RR7INWf/Ur6Xh/q9/zBpjHGMH2o6BwEDF7eTtxYL89dbILwPFJvroTRCF7UzV3M9MKAM9G/FWvg4hFk1K0hYPmD5n131AYCb3Sza5a08tG0Lws7PfcItpQOIwIrShnHvgEbCRR2tLeNxF3HrVyanVOknDuvmBVv/5d/W9j4IwS7tIKEP5uBMyDY2r9eSt9e6U1iawTACo6+5/FNrKyZWETshOAm60u60wjYF0SbnA/W8w9vbyxJgLA5w2ZjcT4C4CMXtUh4J9fdMbOXOPfo2CuPYSnVF1RF7KYgcsza4niE2j+v6pKzz3Fnkmtdra5h8PBf0zPF6OMzgdnjpplXbN0qtsqdJnXBaxTGXw3Mu38Y2wA+B0ASwgUJsVRkMNMJOIbAYCUcjFoEAEeaB4O4mEAjQawL2wEYt/OoDqsu6z7pdpZHZOXTR3SVkj95Q1YZwN8J7aQOKtYYWBPTuhXjOY2X7ix5q1iaVd9KHqSZrqfsxvrjwG0g7EWhE70Zh0loD9vjoO8C4GrAGQrcQ6B+bK68VZdT+iTU1f6Bmc9C+qyqUPavMHofAIll/1u8ymxm2W7V2ROl2brIDtxhhl0f1qdXkQcBp7F5j9Js+f8dTuU9/R8lmSxjrDPLTHYcr7oMRmh9hsAzvaVRw3gMwI+Y+ALgNeDKAGmgQTeiYGB2Jx8L1sfH7+8uTHKXeE+V7JJ5z9jm9squlg9w8AxaXjcOz3Ex66cOqQjF20ZGbD2dHTpJ3v3IbnmMwA7IJcHNQg/cWGgUT93dUPL5OHr0vVYJwAw4cw81+1RIJ5vBM1nHax/trShJlzMAzni8zSPCK34l5MHXkKMX2fgznscwK9a/Z7CCxJMxK3AFUbQagX4dmxeGNMqGwbucOnuGUsadvu0mBVtbHNbxUZFv2LgMgYVwhW4soRLnw7gxkKWe23IOoSZ/45MOZOI3iLogNZqnqey6k07xtvYRezqNKOjQepYAk4EMDZNC+Deypl4du/Ah4csadjt00LoL2/Q+jmBb8qwARAH6D/MHCEgzIT3wbSOFTY4mToTHHeAaSAUDVDgIQCNZEItmOoynJzHDaUWeJujUyON1S8UvJMhZJ6lGXcis7EbN4F5EUi9RqwXEavln2/sWb5m2vBtZyltYseoAe27a+iRmmkMAQeDcBAYgzNV0c0JQuLPe59eM6n3JkJ2l3OmB0BIzgHIvJ83aO4d8XuWQCgaiPRpdhKLOgkPi/SEVKlvailLBK17QTglw6/qYeAVBbwBplbmROv6jYnw9taHsYvYtXGtORJx1GkoA4rHEmNiBvZAX+dMq8saMqxp9Q+2u34JOWP0PLOyM47Z6clOTYu5OzZpZQ7sAWBzTHSleR5A2Qj10QXwYoAWAfweEd6PJ3hVOcWsT7vUpq/r/O4LVvUb2Kn6d7PL7XTQHhr4Dpj2UsBYBsYh0+GyGAfphOvF2lkdk9J1gIJ6hf2fAtL1bhDdrGPq90Udi60XY25HNSX0dQw+LS2bFsILzPhZMRjPtbPNPcjBdyR9gmCr44vnOgiXtviqW4taqZipLmiexEQ3IXdJf2wvTmG/e1yhin7ULMudcPJ/kP6A0h0guldT/L5lU4YuS3e965vbdtUOdTYzziKgKg1K+PLGik3HfjAxe6ePvc3WQaQ4uURHhDYwajJUpQ+I+Sl24HnVz/FSy8SqDXbXCE4kJhLjKBCd0HtyPt2sZ9YTIw01iwt2LQ1GfwnQDciMI3ctgGeYMHvDhtizadssMVN9wByfIJqqCCdm8MryEkecjsn26ereaz5RbD7dkszAvDHsd18GoWicL7py8McAkkxAQC+F/e4j8qktNk8AfhD2e/YoyHk1EH052QRmDJoR8buvzpc2DGta3X/QAOdMZpqUoVeYxHhSE+aVObHg3UmeznQ8dOwidnW2mwdD07GZXR/ope4y13FfjwXXm9zt5iSfc3vY774gI/Zd0LyXgB8nWewfYb/nTBQwvfNNCMDBqbsH8GoPuXy5uBEAAHVB8wAGQgAylf9BA/g3Mc1MUOKF6orqd9JxunVEaEW5Uw8aSwpHgflEZDZe4SrlUMemIzQPGaHor3qDYBcaJoGvbF3oeaCYs7F+ZSDNbR+h4/pX2JypLFlPMwP0MgO3Rvzup4pNNnVzzKNY41fYfPSZbEwIzxLr37U21Lxc7HrUO8HeAuCAAm2CjhF7VvqqOwpT/tEn03zV+kMCXf9FZ8+D2fhCOyK0otylB54Kwm8A7J6SbwO4L+L3/CRbsrflAEw/m0D0OCf0/ZEGz4vpjtc0IrSivBwDGjXT6QB8SOMpUwbaSatDw41VKwpt3HkD5u+JcGWaH8sAniXw33tow6x0x2fZhg6fAeAHSHt8KloWo9jRK33D1mR1TgyZdzPj7CR3Km3hDe5dMY0SEAoeo9k6AYqfTlpjCWe0+jz35uGG/LMki4kDMEcMa1rdf2ClaxbSc3XyG7Yqg/8FVn+r9FQ1Lx5HsYz3RbDtcECdBeAkpD+x1TsuJyZ9mV1aHIC5Z8zMT3fsLuueA+DANKz/L+m4asjVwar6kHmk1piViSy/DPyHmO+B0zkzPHlINNNtGRWyvqPB32PGWanuk7aCpaAmt/ir3kmpx41g9CmATixYy4HoLdKJi0vBeQNsPkGkXexnxiQAR2PrnvL1DCxU4JdZOx4pxE1b0hPI3PYROp74LhRNhsa4rU4kjA1EWKiBf3ECjy87zrOq2GVTO6ujxuFKXMWMM1HgccyI2FeISVm8AWsSEc9N0+M2EeFa2vDJTS3T6nuy3ZYRoRXlLgy4CJp+m9qCTceG/e75WZF/bh2AnQS+mx3Om7JhgGw2qKJ1mukKAN9Hb7iPNLAKDsch2WpDWjZFIfN3YPw6jY9MAGhSmm5oaXTn5PbE6HlmVSyBn4FxPpI+Pbft/k1o52HLG3f5OIvz4sFE/GrSRj3RpIjP/S8IBY8RMp8G44Qki23sLiurzmWGyi0hDsC+bMjzwwE4IrSi3MUDZwM4No2PjRPo4Tjj2uUN7vdzsxdavbNOuC4B4+K0OlSI3tIxNWHZ1CHrxQGYW/YOfLhTjMrnEZByxmYGz93QGT8xV9e864PtkzX0TKTXaR1nxuMA3RFpcOfG7m9ihzGgvRGaLwDhqPRuhPFJIqEP7c0dYe8RdUEzXASZ8JiAR3soflm2v17n3Knw9JrBKHfWgKiaNDQj8anD6fy85Yshq0r663gTO4zK6DBi7MpwlJPSrgTUFy7AXPpm1apSODUKbL5iVbGx/89Z44pMfFnJBcT0y9YG902FNUMxeUPW25SWDMv8slb6rExc9U3egF4zzMWue2xnLmesrPC467LxdTxHDkAG476Y4stzdWrVG+wYSUj8NV2bHAJerapwTyiEwOC98Rv/lMbOnKsc+EXr5OqWfGhf70bvN9icHT1NCUT4bVXhONzulXRbToSgFbERy/LhsN9zGoSCpleH25DkzRZmPBJp8Jyab+0RB2Bf5tE8cAAykxGyHgSQLh1iED2pKf7bfLDNvtwfUj/XL8H8M6QpqRsBC3po/RQXD/wpxAGYE0bPM6ticcwHMDoNjwturNh4UjbD8Xyj3wJtYwnqhTTuTzWInmJWv4n4hyzPG1t08/7jegBpC1nBoDVxih1k1+/lZGQsvlF2fQLAD13sPN4IWX9V/el32TRec0lv4O5PAEhA7K8zjRJh4ENs/lOSeENmo+rCzQzsmcP8RWlHK+0utDobwfajQOlw/uGW8ELPz/PFgb3SN2wNmP11ofZzGPznpI1MwoiNluUDMKsIh+ASTXTuMr/71VxWotcImlQXiJ7Mim5ONaYhA4e0d1nXArgin4VfF7JOYeZ0fSj4CIrPjUypDuVTG3szwv3caG6/k5S+m4GJaTCn9tVd+jE08dTsfUTkhwFcm2ShE2tndZxXCrGgixkdd34flHwAdSJ6QKQn2F4fguYfmShdzr/3WPOZkUbPC3m4P7y8drZ5t1L4WzpOITEw0cUDH2PQywQWRcoyo2ZZ7licnwUwKg2Pa6pwu08NZ+ED/JaonW3uQYQAkCbnH+EFaFwY9ruX5lu/RRrdrwOY4A2ZjYp79+UpN5eHueCaVTurY4IdO0ghsxmEsk0FmC/TXbqlLhidBmaS6UIoNeqbrX3qgubzxJidjkkm3yBNOxRepfmiVPdJTPSLsN9zcd6dXiXiVr/7LiJ1CAA71+mnFd8o5IcqtD5wmS+3zr+v09pQ/UQiofcBI2UnFgOX1QfM4/J4c3dAb6ZtSrmpzHfquGNUOM+cf18n3Fi1otXnPoqZzgGQDoeY36hsvzVb9Y9R/H5svlqdlL3ncMZPkhW/0Bd0snOK8+NwZ9XzIjzBDkbQPJOJLk3Do+IA3bixYuOoSGP1C/na3mXHeVaF/e5jCPRTAOlI8HA8gEtEk7K8twu2exJOfh7pcf496q5wn7I4R84/79NrBjscCAFIR7bfzwBcHH7TfVS4wbM0n/sw4vM0f9EZGwWiG2zYPFuwUHk/ciaeqW9qSfoGiMLmJAjFxq4MetwIWf82QuaBMm0IJbE4zF29szdo3qIVL07PSZB8heOFVNu9Ax/uBCCl7HLMdG7E5/5TPrez1Vf1tnLExjGSi3PIoGHFo5rYQODvhf3V0xc31nTlW/WWN9asDfvdDbz59F4qaz9pwt9HzbLy7jSuMbejmglPI/V4Mp9B03fDDdWFccqMiCMN7nu0SowH8G4alPk8byh6QTaqvtI3bA0DL9potFwBLmibpX0EbCQkI+BBSQAj2NK5OdHxAP6a+nyLNmY6Iux3X5ar65PJrg+tfvfdgB4NordSbz4PE23Kot42t+2qWb8MoC4Ndurfwgvdp+YqjMvYReyiMsczaQo/N98RJ2/Y77mlUEJ7rZk2fGPY575caT4Y9g5N/O96eGRiwOCkb7soAJ8X8ZjZH4xXjaD5t9HzzCqZQoRiZOwidhkB82KdcL1HwM8AOIq6waQK6spXQvXzAXClYGj9OdLgvqcQ2toyefi6yEKPn8BXo48OJi4wh+42WMegSa3+6qZ83whE/J4/gOi7AFLZuAxJuHBDXrWtiR2USDyS6jVnMFocROPCje6ZhaaEy6YMXba+M3YggIdTVhWmm2rnWKOzo5bJX+lkYELtbHMPCAWJjiemw8Yp3bjWD4r0hGTxPr1msNb0JFL9OER4HcoxLmfJBVIg7K/5cP2GnkOZ8YhoRGFgBNt2Y6UWgDAi9afxXeFF7p/m0lm20bKuTjZu6BaXf6Ibwp3uKUunuq1C7NeWxuo3Y+QaA/DTqdtquCDZWzlOAB9h65lkiwEF4MxYHCfXBazfUdfaW3ORNbNYGdnctotS6kwCTdnWFyFmbISiRdB4ONzgflYkl6aFIWAd3WVZfwGl5Uh4YcC6oOI6MutJKdxEfLeHNlxZUP0zg3QrMMMIRBeC6GFsJ0sppWHxywM+Smg9KZWMXFnfCPjcz9SHTL9mPAO7oUCYpxvBtnvD/pqX8mI+rLSuSMPp5/nd5WUn51t20WRYM234RjBP9wbbVxBxKsH2y5XmR3ZfsGp8pk+5uBz8VCyO25LURVIKPwTwe7EGCm0dZ6KQdYqNKGJvFNI8K+TRZrDccTcDu6bodrg3RuvPWzl5r+6CXh+AU70h621ivrF3nyzkId5gx0iGfg5pOXFJfwz7Pb/KZXvqQ+aRmnFZio/5gpmmRfzueYXevyt9g78A80neUPv/Efgq2N8skib83ZjbsU948pBon+ZDgEslecQOTPxHXTG4pS4QPVmmlTRMTIHo6Q5Sqwi4HuDDGdhza39AqAfz6SCebwTNf8mJzBQ3us3texkhqwnE84EScv4BYIWWQqovgcbbLauZL17pK0xDM9xQHXQQjQPw720I54UKt+eeAlfJDq0SxxbiprTF53meNR8H+ycBCazuGLuIXbluS32ztQ+A36Y4WB+rcLv9hez8+29biCMN7msIdC5SizUzql9X/4yf9Hx3kqeTQE/Z6LPTJd5zAdowoehhtmIUS/IPwZa+WdMZ9N0Urc+7wn73mYVqk/0vEZ/7TwychnTEIhPSzsjmNi9RYkFarlsT3RD2u3Pq/Ns78OFOmnEfUnM4m9B6YqSh8J1/37DV/O6rmfnHAFK5ETUEOvFPzOA+yVcR1GslNaIII5ioqS4UnTsq0GbIFGMPb9D6ORHdbzN19zGxOF4Z2bx2qEgyOcbM/HTHumD0T1C6Bcyl6MhOcMz5VqFUdkTok0EMjLRZ/MVlDdULCrmzlvrc74U73YcCOAtA+Gv/1AXQjRv7b5ySqyDEaeJzBXXssilDlxXsJqCx+gVFfBrsxgQk1HdZ5tm5bEN9U0tZQvEDAMrsPoMZj4Q3uE8tcH38Fq1+910g+glSiPlIwIXegDUp03XVWttx7uxVF7L2F+ug0FB24jf28KZYk8hOSAYj2LYbmG9J5RlMfFPYX30uiIoq9W3E7/knQD+GOAHzilGBNsOh1PMphzMBwExXhX3uy3PdpjiV34fUTuCu0AkcHG6seasY+zzSUP0ANE0DYP8DA2NC3bj2n/dpBe6hWAAovVzezDQpQerdupB594hQdIhMN33HG7R+TuBUExLs5VDxBeIE7CMzWBkha3p3WXeEQT9HCjHlCnrcAi8WRED+Xpy6ey/Y/NpFRH8rik6bRomw3/P3sN9TB+jdGRhdofWQggmevQ1/BUAnt/ir3in0LmrxVT8J5hSumtNldrKQpW1eqNz5SgL2sV99eiLS5T69WBMLhH3uB8E4OwVbjxTxHbsvWNUvk/WMNHheJOD95NcFSQZSSPTqUdIZnJlpduTEYZ+IBIXkULdjO6FItjn5Mf8p4qv+ZbFKJ+x3P8TA9FL0BeQj9cH2MQlSLwGoTn3LhJ9HGtzX5LpNvTcvp9pvCK1hxccuO86zqpj7PtzonqkY05DCSUAmvsY7J7r7dmfFlb5hawh4rUTHmZMZZ7tAYSNknYsmdkDYJmly/n3JXg4VX1A7q6NGJLsNmYeiRxjjrcVgfgCAu5RloUBPFFJ9STmG2ywaK+suCxafoVnzYcTvWZKPGXJtGCTXhP3u+cXTN54bmTDbZvHhumJwTpwwo0LWdxhkO6YMAa/G8MVpxZ5VNNzg+QeBr7Gv79izX1f/SzI7YRKD2EbyEv7BiNCKcrEWCoOKrn7HwY5Dhliu/wpJ2s9mIwC/7XmP6cnWRbmNm5YNIn7PP8EphtAQUtfXQNtYTfpZALukaqIS46Kw3/OXXLdpWNPq/kx0YwqP6NA6cUxkSvUHpaADLQ2e2UBKtzb6k6Y/bH8/DYAZt5X0iGMMBvMdRqX1dn3IPFKmoK1MTOl1/n3JXsopTsAtMSK0ZpgRjD5ITAsAjBGJ4Isecv6zkCpMzDaPu/PSd07Y6TPp8rxdM56LLKy6tqjaRMQ6oc8A8LHNJ1yei49ocfCfYT+r40cqTt8tlphO26PV57kagO0rlMS4MtNrtYJ6EMmfRNnZqQf5i6KTZrCqD7ZPNoLWbUbADBoh81Fv0LqqmELW2DyxaXkq3HNl8RH6Sn1TSxkxUnGAvLmhq2d6LjOmZpOw330dwA+J5uSG2mDbOCLHfDAGp/ioBIHPaG3w/DUf2jVogPNyALvbLN4FrSeXWuKn3lO5v07hEdOMYNvh27a1AIS73E+ACyuwfobYWzOeM4Jm86iQ9R0Rx3/JkPPvy23FSHEC/pfR88xKI2he62Lncmw2lCXA+WZuXekb/EVBbXQI9pLdkFop3Z23dLGDzyzGTcHyxpq1DLrIns5ihLey/fhs1tcIWscQ47gUDMsTlk51WyWjuUSsKtQZAN612ccDlEtfl8kqLvW53wP4FRtNm174dpa5tzHeel1DzwH4fBB8YHyfwDMSpFqMYPRB79NrBhdyG3sTwNmJJ/nPFyZSHILQR3Tl4HMB2N3LfaygpvZmzC2Z9SFGG84C4XXRnuxSP6f9UAX1PMA7pfioBEA/bvVX35cX7Wpu25WZfmF7DwU+v1hj/m2PiM99A8j2rTcC1C3b+ii/OTbVNEqQ4l/KEPyKhgRzS13QvL5+QfuAUhdGZp1/X+mqOAGZqS5gnRqLYxmA3wDoL0PxK0wdd9xYeF2KgfYsV71WujxfjWS+upivIkT87qcABG3KZnoWBxcx+Pe2ixMuLkXDsmVi1QaG42QAnTblflpdqH3fzPatrUyvU0Y2t+1SqP1SFzQPIOAlAPtv3aCn06jM+WJ9sN1TqO2Mx/F92IhhrLRk/xX6zojQJ4NAtq+0MkA/bvFXmaUmt5W+vboTmk4FsF60KEt77FD0CJ3QcwCb+4X/0sNM08J+d96c4tQOx00AKmwW/0vEX31/6e41iHVMnYFvJlBMhjHeAdZPtrqmfvl/Wn3Vcxi4T4biV5QzcLnu0su9AevsUo0PmB3n31faXrJOQG+gbWxdyHqZiR8CIIlRvmWN0QWFlPzjvzs2tpUYgZWcdMhTwhVVuY+pknmrTV0CG0GIiTElW0m16oNWIwHj7c0nPDcyxf33UlXiiH/IchDZ/eirGDqjMbFiyvUEgGTjhJYpB32/EPtjbHNbBQOPoS9x8Qj1mvU/Cngtt/ORYElLo/s/svwIfcXJsfNsX6Vk3FJM8X2TZXmD+30iXCxalI29nzWJmOaAkOpho24CpkUa3E/nS9tGNrd5wfxde5snestd4f5VqevHsqlD1jPwPQA9tsTIuGLCAnZu0ZD7+n9s6IydD2CRDMlvUE3EdxuV7W/Uz2k/tKQmpqw6/75S15JyAtbO6qgxQtb9RGohA4fIcNuiTtzReyqp8GrO9hx5xKWd7CV/N6+4dvE4ihV7O8ONVSsAftRGUVeZzo4TRhPPsFm0wxlXPwJRSWc8DE+puovBc20OhJNqZ5t7ZKpuK32Dv2DGzOTrRQV5DbjL4bgUycRIIvi8AWtSobWzPhStA3isjaJyOEHoM8OaVvcn4CKbxVvXd8WuLHUZtvo89wJ4RrQpcxhzoj4ifgap3/bqAqix1e+ZlU/tU0r9Cv/jZ+ojPcz8Iwn5sJmI37OEmezedtmjvcs8cYv98/X/WDNt+EaHM3EigFUi8m9ZlmO11i95A+bDI5vXFv0Jrdw4/76yboveCbj7glX9vEHzCuVILAPz6ZA4f1vZZ/Jcd0XVRQXbAMIGe8UwTno/37oSkUinu6lU2utgvh42spAx4YeZrlvdHPMogGxdQyXC5SUV92/rgmCH5nOQ/Ek7AHCSE5nNCKzoQRtjdPzI5jZvIXXDhAXsBPM5NrrvwoJbz9lW8o+4gnoUgtBHBg4o+xEAm9fk9bklFfdvGyS08wLYDRUhbGePbTZA09Own8DsSzoVoTHfTqyObF47lIBTbBa/NuL3LBEt+S+eyqrrQGQrZA1jy7c9vuWZXTpp6Gql9QSAlonIt2BzEU5xqPgyI2j+ZljT6qKM0ZZb599Xoi5aJ6A3YJ1Y0dW/hYDr0nDsu5iH25xNFZtOKOSvQMyw5WhgYM/6Zmsf0YF8Ukf8EdMoUSrNXdpQE2ZCwEbR8WNmfrpjRiun7Z7uoMWtb7rvF2XeTEtjzUdEfJMtSTLOyGTMvcibVc8CWJ1sOUXqtELqg96v83Y+KvuM5va9CqahM1ixjQ0hAXNKMRabkJLhdZ69YvRk2F/zkghwM8sbd/mYQX8USaSXumB0GgFPAyhP8VGfsaZjWnye5/OtjQ6VuAiAnRBIK1TnJzeKlnyTFyZSnBO4YPP2MGnGbSkjsNqaUdhd5jqACbNF7FukEsC1Aytd4bpA9ORialh+OP++Mv2Kygk4srnN6w1G5xDxUwzsKcNoGz1PuKfCXTX1g4l7bCpoO5Rg+6RRgvAb0YR86UhsoP6qqfTanfwpLACOnrLuIzI2jwasPRnw2xuOfH4xZm9Ohf4JvgHARzaKViilzsxYxWaQJuARG2vH6YUUs5mhzre7TLIjcXbBbHoPsCYCGJ5sOQ1J/iEksYcJRY8AMMpG0R6Hk64QCX6TDZ09N9pcH4QtYATM7zPoEdhIhPQ/0/+nSvOkSKM77zI2b06emvypdgBgpstbptX3iKZ8m819zTNtyZXUpf/7d1u9m/3+MTt/HvF5poLodACSkXLL7MZETUbQfKE+2D6m4BfOvHL+fTXJFbwTcGRz2y5GIHqHQ6mlBJosw2abRKHpxFaf55xiiLXm0NRqW/OJTzICUb+oRF7waMvEqg2l1mhH59pmED5J3qmBiRmrE/SPYC+uzKxWv+cNUeVvsrixpotA19mao4CMxtzTcNyH5L94D60baE0oBNnXzY3WA3yY7TWC6cyxzW0VhdBWm9d/18Xpi4CMUqHvkwadZW+DzLe2TK5aKQL8JmumDd/I4KtEEqljBMwzQHgEgDOluRRo1woTWhqr38zLub6TjwcwyMYi8Uo+JTHJy+lN6SthL0Ffw/+Gr9uuER32uR8s7ynfC0Q3wGYWkhLgCA292AhGHxw1yyrI4P356fz7SnUL0gk4dhG7jKB5kUM5loPoXAAOGSpbJcbArU7urg83umcWS6OGDKhqQSoxVIj+7g12jBT1yPUUpB8uxWa3TKvvAdsKBH5UprwIRGQrroxSfJ0o8pbp7666F8CHdvY0RsAclal6RfxDlgN404aaFMQ1YJ2gC5Fa/N8du0j9IO9toea2CjCfaGPifWylb69uGaFCXxg9z6wkYKod+zOOxC0iwS1T6fY8AhvhGISv7bFD5lkg3AN7Hy+/jqkcfOSyKe5387WtduNAs5JbT9tj2ZShy8CwczNHOVT8pG/8RV9KvXPCTp+Ffe7LGY69AQSlC7YsXIBOSzh4ZV0wOmNEaEV5oVQ8v51/XxmCBeUErJtjHtVlWW8BuBngnWR4bGvWx3Ng7Bfxey5a0rDbp8XUtBcmUpxsbGC/hgfQz40MWHJlPHd8UeGufr10hyeeszMF7r5gVb9018UIRQ+zEz6BiOe1TKleKKq8ZRaPoxgx7NkACpnN+kw2roAyn7T5GlL+MmbmpzsScGrq8sEF+a5fGx2OEwAMTFq1tJbrv0KfiSfoeFtxtYn+udI3bI1IcOvrA4hvE0nY3A8GrZ8S426k7vz7SDnUYa2Tq1vyta0jQtEhAB9jo+iiiK/6RdGWPkxXTv4z7MUCnPZN0y0JIv4hy8N+TwOYjgGjRbphi8bYAAZd5eKBSwohPmBhOP++Em7eOwGN5va9jJDVxBrPwl4cklJiBTFPCzd4jg43eJYWayM1cUpH2gk8zEH8VrHFGy0c+NliuI5ulzInnrNhbKj+nf1HpL0nSJ1kawxq9RfR423jdOFeAF8kPT8xfgDmjGWxd+pNjwFINhZspe7iE/JZ3t2u7h9hczzpVBnjDVgH5/kqaONEJi/P1ytuQp6u1My21geVgKwP26G8u989YGwQSSRHXcD6BYPvRGonvQHgA53AhHy/pl6m6fuwccWZwJJspo/0OoDtfJg/yAi27fbVvGfn5eEG97MVHve+AC4G8Ll0xxbZi4majID5bCavyKRCYTn/vpomRiqnfj7fnID1C9oH1AWjM6D0EjCLo2bbdBL46hit37u1ofqJot9Yx9QTAFLNHrsDEz1uBK3bM55hVfifXYWthbZoeHeSp52AZUlvqhR70z77MxpsFPswsqhqvijydvu5k4FHkx8e2LM2FB2bqXotadjtUxA12xi4+XsNmJlA9NN0PU4Rn5+vTTXmdlQz09HJ6xXdJ6NS6CsjQivKwTjaRtEXWxrd/xEJbpt3TtjpM4AfEkkkMfcFopcxpcOxRcsS2nnosuM8q/LeXCZbNwJWV1V4JPZfcnaXnZAFxHB89yu7we7LF4+jWNjvucXlxEgw/gZAMuttUdw4CoS3jID5l3zauBem8+8r1a/NJyegNxj9UaJLv8egq5B6WvdiRgP4uyNO32n1V88oldg+S6e6LQBPpWU2AZ/XXda93AhEz6tvaikTlcrGXl29LcYGtyZfhtIau7L3Q9oeyfcf3SuZf/uGQ/E/7JRTREdmduWwdRX0qFHzPh6ej3L2BtuPBbg2jZuBk/P1ZgTF9SlIPv6xdjoTj8iIFPqKE4OOsHP9l5n+KdLrqwHKj4oU+mqvRC8D0R/S8KhWONTE5Y27fJzvbd5z/rodAByQvGLRP1+YSHHRmr7jqXDPhY0EvYT/HlBK9T463p3kaQ83eM4mUuMAekm6ZYu4QLi4u6w7YoSs43NvfBay8++rZTvnTsD6YLvHCJrPEOg+AqpEzbfJmyAcEvZ7zup1iJUWjGuRvo8kQ0B0u64cvLIuaP6sd9EVMtRzcYez5MNdMFMk2TKakdYrwEx0rK2CDv2gqHHf6I2TmHzmck1HZLJe7krPPABmksVUIqZ+mI9yzsCJPZdy6TPycu4gWycxn106aagkHRCSmYTsxB2LaU7IyaM+0rqo+lUAH4skto0RiF6TFucf0VsJrY8ITx4SLYR2l3d3HwobyS6ZWT72JMkLEynO9g6WjN878OFOQBocgF9NDL6qt8N+9xHEPA32ssmVAm4wz6wLmH9FE+ckI2xxOP++mjZy5gSsnWON1qQXw17GsVLiYxCdHva5Dwz7PP8uVSH0xjhM95fm4QzcUt7T87ERNP/mDbSNFXVLOx+t9A3+QsTAy5O3XbFjOmtA4MNtFHsnMqX6A+m/ZOSMWTYKHZpJm+aFiRQnO5sEotPzbnMYbNuNAV8GxuhPxy5iVz61tb7Z2gfA6KRbAkjyDyG5oc6U/PrAmL+8sWatSK+PbD5J3ySC2Jo+MRlB888g+m0anrZIqZ5jCko/Sdn5EPhuxO9ZIspjR934cRvFHAkqPxxIowPwS1obqp9Y3xkzAPwWQKd00RY6jXCBUWk9Naxpdf9svre4nH9fSTPrTsC6OeZRKsGvglEj2rxVupjpqvWdsb3CPveDIOJSF0hC60sYaM/AoysBnEmkFhlBc2FdwLywPtjuERVMgz0DSGZAAORAh43N1cC0VWBzkomkEx0Q8WzpveTQ2k68PQzyVkTHZLRiTtiJCWfUBtvG5ZeEHefDximJPoy3mk3tZl59kGSyk/wDX1Rq/YyMRKGvjJ5nVgLY18YCP1Okl6TIWIvMtmKjeEPWzQAuScPDXtZxx5Etk4evKzAhHGFDbrNEeeyxrMvzEoDPkhc5JgAZcAACwJppwzeG/Z7f6bhjJBHugcQH3BJTB1a6nsjWSUAjGP1ltpx/BLzPhNkAvwwgC3HeuFY5E8+OmmW5M/2m+lC0jjWeshNrpIQIsOL6SIP7mjXThm8UcWxmeWPNWtL0U9hL395XxjHhVg29pi5oPu8NWGd7n14zWKRvD034RKQAKDjsnIJMmwPQG1q7F4AhSa9FhID0XnJEFle9YetDBTkyeg14c+Y7TjoeJ0HlTTKQYU2r+4P4Jxmbr0D5kwxkBismshMQ/onFjTVdMhKFvhKL67EAkj/9qtWLIr3k6FGdbwIQu/4bW1AmI9T+VwJ+loYN9AuqwuFbNnXI+kISQf2C9gEA9ku+vfysKJBNplECwCs2DPoDNv9PBlk2dUhbq89zDms6FMCb0lvfwl9XYd6Q6ZcYwegvAbox85MgVpLC0a1+z3ciPs/UsL/6cO6ODyXGbVmQpZFw8oJMOgG9T68ZrJlCACTm2pZZpIkODfs9jXLtbsuEG90zGXR1Fl7lYGAiEd9N5c6oNxid4w1Gf/Rl7Aehz3OaOAABIM52jNG0OQAVx/exUaxzSD/P29J5STKDNIGTNioJvG/mK0dJXw0lwin5kjBpUKXz+2Bk7oMMY4I3aO6dFxvC8R3HAhia/H5Qy/VfIcm5R42xUcwMN1atEOklR2/yPtnPf0kTO+pC7fcCaYjryght7L9xSsvEqg2FJgbdFd8PgDNZG011fvpvUaJUVIYW2Cg0ZsICdjqzUcFIo/t1MB9YFzRPYqKbAOwq3dbbD0Q/94asf0V87n9l4vlZc/4B7yZYH7V8yjfjFUROHPYJgAuNoLkSwF8AUAbrYCSc/PyoWdaRmUg0QeWOPwPYTbT2W6wF8Ltwp/u23i8SwrbmQ1/VNUbI3BOg6Vl6pYtAkwFMjlN5zAiaCwj0tNPJM9+d5GmXHtk6iiWMBQAklNpISHpopy/EhcKoZM/NEvCmZJazvaN+A4wTkyy1V8btpe74w1TuvBFA3x16jMGoGDwZQM6vgzPovIx3HfO5AM7LfVttXf/9oNVf/YoMQCE5XYMdp7ckrbTPywCOKHkpNLHDqDTvY1DKp8wJaO5R60/+YOJe3YUpDDXSRqGPuGLnqXWBqIwom2jGABtelf7RTe11zqzVkohbgSfqF7TP4S59JW++J99Pug9EzHeNbW4ble5rD96g9XOAs+P80/qobQUrDfs9t9QFrU0MvhOZdQLWJZx40ZjbMTGdmZPq5phHscZ0Uddv0A3QLTqufldox9VzPeLDM/jHxnirB8CZWX67C8CxDD42FsftdUHzJSZ6wuXgp8QZuIXFVYFFCnmwwWOMslFMvizbF/i/bSzTGXcARk4c9okRNOcgyeRbic0btJw6AL3N1kEAZyEeIZ225/x1V7x/zM6f56qt9QvaB+hOfVyyKsSg+yVesJC0xgOGDaV5TSRnDwX1qi7xyF4TFrDT7LTuB+iUNCjwY1X93ae9MNFTwB8saS8b0Y0MJpKkMimpjr3l0qG1V2W7si0Tqza0+j1XOpyJkQA/JN0HANiji9TZaTU2s5fwY7vOvy9p9bvvZs54DDQAXIuEXmDM7ahOnycAV4uafoNnHaz3Dfvdl4nzzwYzSId97rMJ+EPmx8PW1wAGJoL5jlgcbUbAfNYIWeemddwIQnrMnD2TXwZYrv/aXe7iLjuy2zkr8Ua1nWvAfFzOY6ESZyc+H2FAv56enGY/TnQlTrIRJ5mdhIdl9AlJT/WEPZIvQ2GRnD3iCb2slNtf39RSZm20moiQsvOPGY+4+7tPK/zbCjxSRkYhzZmqVuXq5UsnDV0d9ldP18xHAnhX9jf4xYjQivJ0PMobsM7ON+ffl0Qa3Pcw8c+QFSdgYm5vdrCUMIJthzNwiEwZABgtYDom7Pccs7ShRgyolMY8cavfcwWDTgaQayeqA4SjwHwHEok1RshcIAlEhDwaLMmHXlCOlSI3e/R+1Ek6jIYqd47IdN3UxrVBbA47kQxl1M81LVfyHD3PrCLCSTaK2loXGHReb+bsXI1XG1fi6OWlPvd7MvqEZNh9wap+YHiSHiNxlvh/dteHt9wfIisJHvOPEaEV5YkBg58A44TUt1O4O7LIPb0oQpVw5m8ACOnsLx6pcl2HZQ3VC8IL3fuC6HRbmeeKh6GuxCBfqg8xgm27EfGtWahv0s6/L4n4qm8D+EJk/uTT6Hicr0nZlIXjxzJb0KcALnZXuseEG9yStSmNRPzupxiOcQwszJMqKTAmfJlAxAiazXUh65TeLF+CkGWD+5NBACedvGaTy/m+SC+VdQ/JO1CJMu4AbJlW38OER21YvDnLBhyL4SwASX/gZeIrAbJx2oZrjVD70blo68jmtUPJRnwwIpbkH0LSDNhYMRTJJ7TsWbbJ/ZFIzyYzSBOwqtSaPba5rcLFA5uJcVwaFtgXIj73uZhBhX+XegYrEL4jA6OgGK7yQ3lIh33uB/v1lNeC6AaU6JcFUnxS6k9RF9kxNJPEtvPvS8L+6tvBfAEy7ARk0LmbN5D2mLCAnQxuKOFJIk6Ee2Kka8N+zy0SVD8zRPxDlnsq3AcDuBjAZ3lUNReABmZ+WHdpywiaj9UFzanpOq0sCNtVwETCTmb3tbmMgVYMMDjp01jMesesVE7byBTLOKh2zse1WRdkEztAOMtGfTfEUfYgmO+y2YPn50JvlIpPB+BIstjGTa6yp2TUCUlrOemdbey2VknCulTXB5TUCfvR88zKLlKzARyTJgEeXheyjisG2YzYf90ASE6HQqNG5VNt3jlhp8/CPvflCa3HMHhuCU6ok9NwbSPTE0rKzr8vCTdU35EFJ2B/p47b/hJubbTGAdilRCeIZ8nBY1p9nnNW+qo7ZL7MLC9MpHjY77klRjwSjL8ByDcDtQLA9xh4xsWDonUh825voG2s9JyQURzazjV0UwSXKip5GTKycko40lCzGDZCx6iEOiXbUvRWth8PIPkr7EQPrvQN/qK7vOw+wFY28sba2eYe2W4vAT+0UewpcdgLtvZNbMc+15LwLPX9asnsCUbPMytjCQRAOCqdCywzHvYGzb0LXT4upStlRBTcAK5W+Viv5Y01kYi/egqYjgGjpYS6ZGcjFN3VdukmdgDYPYOm3bJ0Of++ZLMTED/PqEGqtO1rScQ0pgQnhpXEPC3s9xzTOrm6BUJWWemr7gg3eM7WCexFhHsA5OGpS96JGWcTqUVG0FrkDVhnpyPepiB8ezoiGye4+VORXKqC1+uS39LQwGxVj5iSTyJHNB0zOKt2r7J5Eo+x+eTf+8fs/DnDVnIMpZx0TjbbWhtsGwfYyNjNJNd/BZvTFO2Q/Niy5VAXvklJJP/bc/66HWJxPAvGhPQvYhhAwOwRoeiQgh6DCQyU4VB4qHyuXLjB/WyFx70vgy5Ffl2Ly9xAIjXabtl6tDqQ/NWLZCzuH6XT+ffffvbczMDzGVRz+9cVmetLakEnviym1o9qbah+QqbH3LLsOM+qVp/nHAeRl5j/BGBdftaUxxLx3bE41tQFzetGzbLc0ntCunBotnG1hOQ0UarLPankZZilE4AAoBJ4CMl/HNnNu795WLbqOCrQZjCS3zgSsCDi9yz5qq0O/ivs3JRgPmP3BauydjWLoOzEWfw43FW1QEacYG+e4v425rb1IrlUzT5sKPYm7h34cKfynp5/ATgwg6/Z3aXxdH1TS1nBjkEdk/jgBddpWK3yvY6Lx1Es4nf/WTli32HgVuTftbg0T6qcn1k3id4K+zz/zuAL7sjL7iCUQhZUBvghBTUy7Ku+caVvr5KMwZmvLPW532ttqP7F+s7YMAL/JI+ShfwvOzJwRcLJHxiB6B2j5n08XHpPSH0OTt4BSGCZw1I2RThmo1jWTgEvneq2wPhX0rrBlLVkIAlyXAAg6bAuGnT71/+79yT+SzaqsEu/zn7fy0ZbJyxgJwHfS36s4kGJxybYJ/kP/My8QeSWotRVcZ+iHBGKDolR+QIA+2dhf32orhh8Z+EqA8QBWHjMVYVS05bJw9dF/J6LHKz3JuJ5RTupMuXnUVrN72S24XpxPjabUNwTGwMLWdMhYX/19BZ/lcTNymPWTBu+sdVffV/E79mfWY8j8J8B5GMmu34gOjcRdyyrC5rX7zl/3Q7Se4LtpQfkTHpeI6VFcimuDcQJW2M/m+uzvcyxJ49tbqvIdN1qZ3UMBPhUG0ZHW6W7ava3/pr5dlsyUupn2egLc6M1BUDSp7/jWj8oo02wvT6QdiY/xOQDUepbQtpUrG0bNctyu5ieI2CfLG42f2IEoucVpN8CzgoZEQXFeh133KQKrdbaSYqZVLH2ClOeXssm9M/k4x2MvJxA2MbX+0KCCJ0OoEvmw8Ii0lCzuNVffWnY594dhIMA/AXA6jyrZn8GLi/v6VlRF7BOlV4TbK0NxD02dicSjzL1Nd/Gx6/snqzpqtg0G6Bk4z0O6lTq+Ixvipzx6QCSjl/Jmu5ePI6+dfqyv8fzDICPk+8S3q8uaB6QcXVh2Jnj31jeWBORwSbY3xSqHhva6hLBpbw5KsrDEfXBdk/Cwc8ByH5yDqJb6uaYRxWazBKU2CgDomDYRMTfWzZ1SFvBONL2Dny4kxGy/sAJegvpSsOdj3Mq82d5uhk4ojfJSGbarSlfJ73ijhXCmKAVv2UEow9K7LZC3KQTh32ef4f9np+Hfe7doPVYEP0fgDcA5MspqCFM/JARNAMjQmuGSacJSRmXdk4aEMmVlJTXhuRlyJTduFAfTNxjE6Aft9G407Igv3NtlIpxQv19S/+weBzFmOkee8u8vUQkfaX3lHejjXEqyT+E1EwghaTXB+bsnlQuTtMTRfeRrb65bVfN+mUQchX73ckaTfVz20cUlC4kWGJqFkRH4QWt6IBWX/UcAHDme30nLGCn1WWeEye6Om/j46UTRfkZ6J9R461oPyMC3JPuR4+eZ1bG4rgkT0fMOjuxtwtN6wA6LeHkRiNgXl3hcd++pRMIQt5bZBwG3sLmP9eOnmdW9cR4ChFNAehYgHfKcQ39Lna96w2Zp0d8nmbpMKEvOAhdOtkpmCQmTRo2eAOSXvpYbchBRR8A46fJqQcdO7J57dDljbt8nIkqGQHraJCtBGJPLps6pG1r/1jm4rticVwJIMm4ZzRt1Czrl0unuq1MtLcs1jMNSPqWSA9vijXJSBNS2powOpO9pqMIg0RyqQpeDwQVzwUpI9i2G0M9D2DPHFdlZ07o5j3nrzvw/WN2LohkZqxcGyj59AwWmP8iAynDfUMqpgiWAv691Od+7+v/ltcOwNpAdKLVZd0M0Oji98H0mmms37VbtuXkupgRsjYhQ3F4iPgv3lB0WcRX/WK6nlnf1FLWk8A/CdgjgxbCF/YbjZZS0T0AO4Lwly7LPNcbNC+N+D0BmT4Ll3cnedoBPADgATSxo35gx0GJhJ5CxFMAGoOcXG/nnYgxywia/xf2e34nvSRsV2OgPk36MCvzQJFcyhvrgUlPEJT9zJBhn+ffdUEzwoA3GR+AkxI/AHBThgw5WyfuNNHt25vT64LmUwz8MMlHl8ed/BMA12emuXxasssJM82OnDjsExlpQmrzlF5HSTqiGKgSyaW8ISyaNbZ2trkHgOc4DftQJr6JNt9a+I19mwfesp7ux9DEDYWQIInj2JBspGYGKNJQfYMMpNyRl1eAR4Ws7xhBc6Yieh7A6BLqj3VhX7X9oP5EDOA/GaxfBTEFjWDb4el4WH1TS5muHNxEjOMyOjlRKglM+O0SXNlHEtBsBMxg7ZyPa2WaLAKmUaJlStUrkQbPr8P+6v3gcAwlwhkMngsg26c9CcC13qB5VybDCgjFssGL2zkVPwwzWIn0UhqkuyVtUDI25KiyDyW/yeIfZaIq9c1tuwJosLHp+88yn/vV7f1OM91usz9/OmEBp/2jv3dOdHeADk2+QizXf4WUcbKysz7UiORSZngxNKJ2zse1yoGXkZZDKPTHiK/6l2Gf+/8APJ7Sk0CTjQHtvy8EGSZcyZ/8J2DIiNCKchlGuSOvDOTR88zKumB0RoJ5KYDjS7A/5vU68VLh0QzXsRKsgnWBtsNSMpJ7nX8Apma4vh9FNnhesVu4osq9GMC6kpwdCD6lHUu8QfOWMTM/3VGmy+IhPHlItNXnuTfir57C3fFqJpwNxnMAEtlTL5xjVFoPiaNG2KaR0vlp1IZe9q8fG5V4k6nASDoOEROsXFQ1nnA+kLSOEOrrQu37pl1sSv0UNm7XEHBbX34XaXC/BtBiG1Xb1drQ3ph24SfUdCR5/I+B9kq3e54MMiHlsa9Vh41i1ZlwhpfY/mCvwl/juFZpx4sAhqb+KFwX9rt/tVk2xC4nzkj5AAnzZYWQQG/lmztvAJKOxUmO+EBxxOfSts6TQUhGyJoei2Mlg64CSjRAK1HK8VAqtP4bgA8zPPEPYKiQXSdgFp1/YPBVqRyh3hwLj0v5KqyLgJ91l3W/ZwTNi+TEVvEROXHYJxGf52/hBs/RjjgNZeILGViYpdf/oG6cdYv0grA1WqbV9wAwky7oUCNEejaZwQqUfCwkBb08F9XtjeW3IHnTU6c1GciI0IpyDZxho+hnLmcSH2+Z77Rnu6U/GQhR0teRQcAjEmdYSAfL3t7FBNCdZDFnR3fH7iI9e4yeZ1aCUV0Ee+5DAaQh+SH9MdLg+fXX/+bdSZ5OHXc2wE7m9q9P9cR/M0LmgfltL5AG472k7QUXGzKackfOHYDegHWwEbLeBPMDADwl3BfRjf275qb6kMWNNV0a+iRkOnttrxOwfk57Ulc/suv8w30Rf/X9KTdV0YMyVWBnADcbldYibyh6hIijOFk61W1FfNW3Rfye/cnBowD6IwhtGR2nhAuMQPQ8kb6wDZL+qMVMe4nY7GGMjw5H8kkddGf/Te/nbC/HyWeUZeCUsYvYla46uDDoe2Qvvth9707ydPb1x+u7Yv8EIfn4eYSjjIA5Km32e7N1EMBJhwlRWrL/Cml0PgBJh05KaC3OB5skemgEchJDOh+hP3518u9/WDZ1SJuGPh7AxhRe0A+MmSNCa/L7RoNC0h//WNNo0Z9cdlmOqJ3VUWMEow8S8SsAxpV6RzDRnz6YuMemdDxrmb9mETNNBvBFRitNGKC1nuttjk7oy8/HLmKXrhz8OLLg/APwuKfCfXY6HtQ6xfMcCK/LdAEAGENMLxhBs7k3cK5QpLROrm4J+92/Cm9w7wpNJxLwaubmEvpT7RxLjAFhy+sjsCz5MnqMSM7u0q7syG51umwYO3zR1fMUgM+Tayequkzz2PQpqq0Tdsxw3JVMgTXThm8E0732+hbnpG/atnWC8p2WRvd/ZJQJ6Vsf+L3kC9F+Ijl7aAf2ESkAAN24Neff1/fjAKU653pccM0a29xWkceySNoBqIC9RYdyR9YdgMOaVvc3QtZvlTOxHKDTIF8RAOCjMgfflc4HRhrcrzHTFGTaCQhUkqLA9pyAYxexq8uympCd2I6Puyvcp74wkeJpGyisrhE1/QYNyoEWI2heO3qeWSniKGKmUSLc6J7Z6vccCsJBIHoC6Y8V2E9pfkCumAtbMS6X2ihzuMjN9pbajuxW5LLGm51ieCp5NaHp6Xi/0dy2H4D9bTgv5kX8Q2xcnU7cbmceZsLpI0KfDEq1vfVNLWVQNC151YKc/hPSuzpALUm+DA4QydldHvgwEQLdGPa7L+vLL8N+90MA3ZiizPfrJMcDYM5Pn4nmpNd/BkSPckhWHYDekNk4sNLVAuZrAIjToHcMKKhzkrn+0Ve+5gRcn+E2VJKi2VvLDjysaXX/Lst6Allx/vFD4U73Kel0/gFAi79qLjKfYKXQ6A/gN7EElnsD1tmSzKH4Cfs8/w773NO0StQDmJXmx4/xDrB+IlIWtrBZW2KjmDEiFB0i0rOxitpyntLy3CuKtuNcOi4tSa4cjp/ZrLStrL5hf82HAObYKDrQxT0pxz5MVOzSAMbgJIvFFanHZIQJaR32jHdtzHIHp/P6f4lJvMQdN313/n01Xy+suoIJs1N6K/FJ3pB1eT5KRDnUMhvFhhvN7RKqJVd9lo2X1IXa9zWC1ovEmI20pNouJkMbf+11LmWEXidg5q8DAwMB9aw3aN5SO8cajSZ27B34cKe6kHXKwErXYmTl2i8/FO70/DiVpB/bIkZ8EVIM6FqkSlxDxHcb+1uv1M+JjheBFD/LpgxdFvZ7jgf0ETYzUm5Nl35Xv6B9gEhY+Obcq9/ZvFwmZy87tZIvzElSO6tjIIAxNjbhOQ+TEfZVvwwkHYy83yZXz7RU3juyuW0XMH/PRtEPI53uOXbfq6But1eSzk/1JAkRJ+1EJGBOi7/KlFEmpNcE5XdsFNthg2keKtJLjlGzLDfAI0tXAsk7/wAAM0g7+qtTYO9j5tfn0N/VBc2p+SaVfvH4WwB6kh67xBNlVOWGjDoAvU+vGewNmrcw64U2r5QU+0Qyx1PhvjTTb4k0uF9jnRUnoIuAnynN/zEqrXicytcx88MAshFs93F3hecnmXL+AcBKX3UHkWoEY4Po7hatsIO0pjeMkNVU39y2qwik+An7a15yV1QdyMCVSD4T35aMmyrdqc8UyQr/O/cCiCSvUHysSC9Jo9CljwLgTF7UiZdyb1IRM+ihpNtMnNI1YAfRGQD6Jb9m8p2p2CwtviHzYO/qtVE/x7K98fI+vWYwAJ+N7pGEakL67ZBF7laAPk1aH1XyOlzqaAeOQcmG7rLp/Ptyvp5YtYEVH8dAeypLNDMe9gbNvIqft7ixpouAhcmPQZ4soypHtl4mHlrf1FLmDVmXUrnzPQJ+BkDiOv2v3Qee63Lyyem+qro1Io3u17PkBMwFaY/5tzVafVVvM+gkAJ2ixVuez8F8sibV4g2al48IrSgXkRQ3L0ykeMTvuZ5IHQQb2Vq3sEv8ad7GORFyuWi+kvxkhO/KNa9k5czft1FqVUtjzUd5UX+lH0CSp0UZOMQb7LB3qmUGK5CtIO/dLhfdl+JcyWDcYWsjby9hyebXljm+B6AsyWLrurGhWQaYkHZmkAY46SRlxCQOwGSXB7J10rkIdjZ0QyrOv6/24lOqP3Ao9V2k8sGcMICA2fkW4kQzXrRh1/nSEoJDSN5USvcDjUDUryt3XkLMNwHYQUS8Rf5R6fYcl4m4f9uceIrTCZg1599Xcmxwz1OKJ6b4FafIF0sMIOB6Fw9cYYSs6SKQ4qfVV/U2HI6DACxN7UlcWx/qkCxzwv9MKWTnhNkuG9vNo0V6faM3oVODjb55MV/aEJlS/QGApHVFIf5DO++rG281wkZoGwI9+u4kT8o2RHd52X32biXQVCPYtpvNzbCNGIL02ErfXt0yyoSMrA9saw6qMwLmKJFe39g78OFOAErvVD3RDWGfO22x91qmVL3C4J+m+JjdXRpP1ze1lOWNnJStMVi+qWzT8TK6ctBd6XqQN9gx0giaARAFABopot0inxHTaWG/58zF4yiWE+O4uJyAWXf+/XcCr17odCbGAfiXqPU2GQ7mB7xB87l8O7IupJ/w5CHRGPGRAMKpPEdz4kSRpvANneiJzYGdrKeM74v0+kZPHFNhI0Gbhn4xn9pB4KSTgTDodDsnjxmwdZKOlL4jHW19/5idPwfxwzaKOkDqrGQL9QZtTzqDqtJasv8KGYPBc23OFT8S6fWNOMpPRPInfwubNDv/vtqL+6vvB+PmFOt2qK4YfGe+iKrMwa8CiCU/BumHMrqyT8oOwL0DH+5kBM2bCYmlAPwi0q3Yx8A/XE7Utja4H851ZSKN7teZ9ZF2YmbkETlz/n3J0klDV4d97skAzgLhE1HzbU3wOJKAt4ygdXtv/CChSFnpq+6AVlMBfJaCYXOUSFL4xrp14rBPwJx8ogmmE+WKSZ/naTubYc1xZ159CKMKxxM2TsXtXheMJpUUoNcZZueE6ZstU6oXpqu9ivBXJJ8kB2CcvfuCVcnFLlR6OpKOAcbLWxqr35QRJmSKcINnKWyEIGGiUyVMRF8nVj69tNqbGeffVzrb5f4FgGCKi/ZPjED0vHwQ17uTPJ1g2LmpcfTI5javDLDsYt8BOIOVEbKmx6g8AuAiADKBbsXQA+GQsN9zZjque6RtM9VQs5g5cUyBOgFz7vz72gLBYb/n7+Xd5SNAdANsZEEqIZwAn0flzpVGIHpZXh1dF9Jr2DRWrSCmC1N4xL4TFrBTJCn8j8WSfAwxwoDu8k1ni/C2TX2ztQ9sOLMIeHHZ1CFt+dSWlolVG0A8M2lnAFRSV1tZ6QtgJyA+0e1pba+vuhWwtfEaUtFZcVLfG8xEwA+Tl2uKsQ4FoS96Rphto5h7o2keL9Lb3voQ3R+gw0qmwRl2/gEAplEiRq4fgtGSYl1vqZtjHpUfYuNH7BRzKLpIRllq7L5gVT9vs3WQN2h9t35O+6H1c1fvvG1z2gbe5ugE73jrLTA/QECViH2LfAyi08M+94Fhn+ff+VjBAnUC5o/z72u8c8JOn4V97ssZjr2R6hed4mdHEP1BV+68xAhE5dRwkdLqr3oEwBs2i/dv7zZrRYrC/zggHsfmE/XJ2pcXyQeHbZMg/iVsOLM04dG83L8pSv7KKeF7Y5vbKvq0IV7QPoAAOydi1m7s39WU9vYy23IqMvU9GYgRih7GwJ7JqojTmXhERpiQcTQ9Zm8M0JWSeGw7onWoX5RMY7Ph/OtlpW/wF1qjEcDaFB7jZI2m+rntI3Ituk1l5U8D2GRD6NPldpg9RoRWlBuB6DX9u/q3k+LXCPyk1vplnXBZ3oD1xMjmtUO3VC4pB+CoeR8PN4LRB0nRAgIkSPuW6QLRDapCecM+94Mg4nyubIE5AfPS+fcNefqHLA/7PQ1gOgZAqwyHbU74I0EUMILm/PpQtE7kUXRGFBP4z3aLs1Z7iRCFrxP213wIsnHSiVGjB+wisQC3YdsRYZqNojFsij+dj21qfcO9AECymYkHdZE6rk8b4o18GmwkuiPg7x9M3GNTuttbVemZyaA1NooeWBtsG9e3nyobyT/w7NJJQ1fLKBMyb39XvQ5glY2iY4xQuySL2greOdHdwXxCKbSVQTOy5fz7kmXHeVYB+rtI7QbZzpzQzXvOX5fT5KubY9KSnWzvFarc+QsZbckxep5Z6eKBz4PotwAG/s8/O4n4JKUS/x4ZsL714a5PDsCxzW0VdcHojETcsRywk/2rZAiw4vqwz315y8SqDYVS6YJwAhIey3fn3zc2qg3uZ1XnJ/sC/CsUV9blTHC0ZnrbG4r+cUTok0EijuKhv+YAbH0NBMB6qEhQ+PZSgIdslWO+akRoRblI8Nsk4o6rYC+My7zIicPyM/7tDNLMsBNzuW82LvO5Np6tEwnck4nmvjCR4kT2nk1Q240h1Rsr8KRkn82AJP8QsrQ4EBPxQ/YK69+KALe2dqoZAIo+JAuDZkT87qtzsmf017wE8M9Tqz+8ZT3dj6GJHTkW5T9t1v+iEaE1w2TE9Z1YHHcBOHjb6zsPcxDP/N9Yp9t1AHqD1ne7HGoFg64C0E/EvUXxLtZEh4b9nsbIlOoPCrEFee0EJDzm7u8+rVCcf1/SMq2+J+yv/qMjTiMB/AO2rq6VDGXE9Asnx1u8QbNBxFEcLG6s6QLwli1jgJVcBxC+hdOBx+2sUwzsWaYHXSgS/Cb1wfYxAH5sp6wizmvnDrG6H8kmxyAcWx9s92zTLm6OTgBgJ6t98+bTHhnaDEDfBaA7eRMLPxwRig7Z1m/6b+w/FcCOST76i0qtn5FRJmSLRMx5N2xkIgXosPpQ9CSR4DepC7XvC+aiP/iTS+ffl4T91beDOaWsvgSabAxo/30u26E2rA0BiNoo2t/Jzmtk1PUNY07UB+DUPv58dKfZ/g07b6sOwPoF7QOMoPkYgZ8Eo0ZEvUVMIpwRXli1/zKf+9VCb0xeOgEL1Pn3dZZOdVthv+dMIjUO4Jdl2Gyru3kYAc11IfNuycxWNLxv07nQX0Qn/C/vTvJ0Avi7LSOf+P+259wpNTT0H2EjHjQB77ds8MzM57aFG6tWgJBsDGZnArztRBekzrdXo/Qm//hfVvqqOwh4ykbRctf2nMAMO06AJ3o/AglCVuhNSGQrDrdmujHprNhFDjPfjFQShhZCG/PA+fcl7krPz8B4LsVOu6wuZP4kV21omVbfA+Zb7O0BMb0uaB4gI2/b1M7qGAhNdyW5p5r+jf/e0o9GNq8dqrv06wC+J2LeIt0A3RgjV22rz3MvZlDRnOzKKydgETj/vk6rr+rtsM9zBBg/ACAxcba5fuHsjZb1lFzZKwboC5tKIA5gYSskbgdgZ10YqKF/J/LbTF0gejJsZP7t3Rj+CdMokfezDyefDITAP96G4V1DxFNt7DJXhhdWPZfp9mq26WRkOm9rV8dGzzOrABybvOy1XP8VcoD+i82Ce/TfWPFLkV/v+hCMTgP48KLea+SR8w/YHMpBOWPTAKxIcQ91uxEyD8xVO2Kq7E4An9so6mDgXtn7bUdIrsRNAIYnp+vY9+vJjr7lABwRWjPMqeIvARglIt4is5RDjQr73Zet9A0uythu/3UCYl3urPbicv79t13E4QbPYxVaexk0A4B8Hd/6ZNVYxgOfyIN4FkJqPWkr+6omtV5kJ2yJsL/mQwCP2Sz+E8k+DhhzO6qZ6A6bxTvWd8XvK4R2bipzPQZgY5LFRtU3W1tMdKcc8Z/CTrxEwm3Z+FgcaXC/BmCRjaK7eQdYvi1u5uL4gY02f9Dqr35FZishB+vDS2C2p3vM/+cNtI0tdRmOnmdWadBfi7yZz+ST8+9LWiYPX+dgPRX2HGhf0g/AU1vLAJtpVvoGf0GA3evMdS4MlJicWxNO0JzKjLNtFO2PJ/7r9/uGA7B+QfsAFztmM7CniPhb3ogWgI4N+z3Ht0yuWlnszY001CyG1rlxAhar8+9rLG6s6Yr43Vc7nAkvCI8h2ThFJTPs0GhUWn8USRQwBFux/Ij5cxGesDWUQ10Ne6cACUT3lfRVYGZCIvE3ALvYLH7bmmnDNxZCU98/ZufPAcxOuo2kv3Xltb6ppQxEZ9moRpeTux/M2pRL9jZeCryVq83JJ/9j0P0gErtGyBV/sFnOSaTurW9qKStZyTFTT5wfIKCqyFv6Sb5WbGlDTZiZvmfTxvlyEq5xOBKzxza3VeTG9Fe3wHYSQFxWF2g7TKaxb2IE23Zj4F6bxc2v39r4hgMw0aVvBWhfEfE3VPhTMF+uuj7ZL+x3zy+llocba97KuhOwBJx/35jkJw1dHfZ5fqA0HwgkHauoVLhETuwUsjEJr71NrDgAha3TMrlqJRh2nSpDGPqer1+HKCXqgtYFAOzOqesczp7bCsqKs5GshIlOnbCAv5H5MlE5+CQASTuOGXhoScNuWQur8sWG2KOg5De3zHRs7ZyPa7/+d/WhaB3AyZ6IYifZysAsCOnZv/g9IYAW2yw+WlcMvqFUZeedY55PoMmiRbkl0uCex6DLUrO/eb9OcjyQC1unxV9lwv4pQCeTetyY21EtmrCZzY5cmglgZ5vK8OzX/+srB6AxJ+ojm5ngipQ4MW5Tjp4R4YbqG1qm1feU5CKaTSdgiTn/vjFRNla/GV7oPgSMMwFYMvy+tYO7e/Q8s1IEUViMmfnpjgBq7ZTVZC95iFA6OFyJGbAZRoGBRm+wveSumRjBtsOZcJPt/QTxVS2Th68rpDa3bvD8i0Frkizmbt9oHvNNEwW2kn+wsn3V2hZrpg3fCCY7pwRIJRw//cY8DDXdxmNeXupzvyczlJBDm5GZ9KUp7EcurgtYp5aa2OrntB9KTDeJAuUHEb/7z0S4J8WhcJI3ZF2ei/p3l5VdncKethqJ+OOSEBLADFZdDsf9KRzS09B889f/YrMDsIkdSNCNMtS+2hg8z8B+rQ2eCwvN0M0EWXEClrDz778DnHS4wfOPGLlGAvRHAD0yGr9iaE+MLhUxFBax8k1Hw2YGOYeKLxEJCtti6aShq0Fk96oXiHhGKW3yamebewDqSQB2r7e1VlZ57i64hk+jBAGPJm8L0lfOr/pg+xgAB9uwKF9eNsX9bvYbnbgdQPJJWgg//upj2wxW4O1kRN7yuJLkH0LOifiqX2RK/vr/VyOX+J5Sigc4MmDtqbV+GoAkYMgj+le5LwDhhdS22PhdXdCcmu26v3/Mzp8T+IoUan5Yl2X+vVRva3xJ3TjrFjCfbP8JfE+4seatr/+NAgCjwjoZhPqSH2WMlcQ8LeL3HBXxe2Tz+TUy6gQU5983WOkb/EXY7/6Vcqh6ED0hEvlyU4GL5RRgYaGZTrE3FdMa+fgi9IUYvrgR9jPmERP/zRuwDi52Oe0d+HAn5aA5AIbYNpGYfr54HMUKsf2K9P02JqLje08xQ0NfYHPhuj0X7Q37az4kIGSj6A7xOJ0KAHUHWBORZKZBABs3ucqekplJyAsbRNMlsBuHDOhPpILeYMfIYpfTnvPX7eAgbk5lfRAyw+JxFONN8ZMApHKqWjHjYW/Q3Dvb9W9d6HkAwBsp7P6mGyHrT6Xa/0bI+i0TLrAtPeB9HXf+6lsK0WvlnF/i4+sLEF8WU+tHtTZUi8NlawZlJpyA4vzbKi2Tq1aGfe5pTDQJQKtIhHeKxfB9kUNhsDl2FI6zNy3oN0WCQl9Y6durm5kuhP1ESv2IEKhvju5frDLaO/DhTjEqnwdwrd1nMGF2pME9r2DXU191K5LPjtuvu6z7pL0DH+4E4Ac2XhutqHI/nTPnB9tzPjLzhWAm5uSTfwB4qjfxiiDknOUN7vcJnEo8PzchMb++uW3XYpXRnvPX7VAe65kDoE40Jj+JnDjsE0V8HFLJDEwYQMDsEaFodp28M0grxRcC0Ck85RJv0Lqq1PrdGzSvAPM1KTwirjWdumzqkPX/+w9qZPPaoSA6pFQ9CgA/pKBqw77qG1f69uqWaWbbpNUJKM6/vk38Pve/3BXufZjpHAAdJS0MwjTRiMJAM90Im9d/me1f2xFKcI5scM8D4+8pmAI7aaLnvM3RCcUmm/q5q3eOUfk8AsanMPF+6nQkLih0WbCtq6l0WgL9zgCQdCZFAt+TyxOTEX/VvwBaZmOdra+bY04G84k2hCzXf4W8or/b83sk7/z/OrtqpZ71zonuXozrQ3lPz7NgHCSakt+0+KpbifgHsBPa4b/s7tJ4OttZrlumVC8EcF1q2z+eYQTNP5fKdWBvwPw9pSoz4usije7Xt/RvSlHCD6Dk7lYT8CqzHh/2V0/vzVQj9JFwY81bSvMUpOIEJHogvMF9qjj/+sYLEykeaXDfw91xA6A7UlwACpmJuUppnyq1cz6uNQLRy+oC5l+9IfOsUfM+Hl6snWSErOmwn2U0EVe2rq4JJUxMuX4B4KMUjIIBRNRcG4hOLJpxOLejWsddL6Xm/AOYcebSSUNXF7xANiUeRdKxdfkwJrYTfzYW166/5dbQJQbYVhZGzXQ/gIFJSQq0Jryo6nmZjYR8YvE4ijlYTwewMYXH7EVMr+biCmWmGD3PrEokXM8DGCdaUhi0+qrnMJBa8jKiQ3XF4DuzXXd3hftqAK+l+JhLjDnt901YwM5i7eMJC9jpDZp3EeHKlLoZeLWqv+farf27ItKldvrvYxCd3upzHxZpqFks04k9Whqr39QJjANoTpJFO8B8fnhK1Y8xjRIiyeSInDjsk7DffX5C61E2ZF8MuDY5nfsVWqXrAuaFSjveAdEfmHABMe5JxB0fGCGrqdjiy9QH28eA2X7WS8LLK33VHTLahWRY6Rv8BRNPRyofRwgDFNFcI2SdW+jyqAuaByCRWJiG+M7/iDTk7hprutdPgAPJ29Hw2NhkPbO8cZePc91mHXfcC2C9jc1DVbJlFPghzCANQcgzljbUhAFckdJDGDUEvFQfMo8sdHl4A21jY3EsJGAf0Y4CW8f8nusBPJzSQwg/MQLR87JZ7xcmUpwVnwLgs9TGIZ9udVnPjppluYutb71PrxlsdVpzCTgnxf5tY4fj5G0dslIAjS6RMdNF4KsrtB4Z9rkf3PxlVEiFZcd5VoX9bp+DdR2DLgXodiLcs8U/wPXQdOL6zthu4YbqO0T+qbG8sSYS9rt9TDgOqQWGLThYc0ElLDKC1mlMuBVAv2/vl/hkQmKpEbRuy3pcjkwsXsGOkZp0EIDtZC3MdJuMcMGWYeyrfhHAjBQfUwbmO4yg+dCwptX9C1EOdQHrVAYWABia4qPe03HHJcWkIypLV1QZ+vZ8aO/m2D/8SDbeFdf6QZmFhHwl7HPfykxPpviYHTXjX3XB6AzMYFWIcvAGzR8QqZcA7CpaUZhsrNh4FoB/p/QQolvq5phHZdVGm1L9AYHPScOjjki4+K1iSuBWG2wbR+XOhSCk2ifdxDgxPHlIdFs/coIwHMXtimEATUrrX7U01nwk00b66f2yFhZJ5GLD62keEVrxLycP/DkxrgRhQPG3mncrlJqObW6r6AL/eTs/cwF8vovpNG/QvH5DZ+yWNdOGbyy0XvE2RycQEk+BsXMKj1kV6ax6Rka2YHuTt9B9nTHOOggEX4qPOnVApau2bm70x62Tq1sKoe1jZn6646ay7j8z+MdpsJw2KFInhbcQPLqQGVLpDlldlgUgk6cHWiNTPC/lS5sV4a+acQ4yG+7njeWNNRGZgYS8hYjjoU/OcHF871QSIgFwMOgqY7w11jXPPOPdSZ72gnAwzOoYSM7EH1M+XSTknA8m7rGpPth+gt6cMM9uOCEnazTVz20/oGVy1cps1b3VX91UF4juz0SXpvQgRg0Rv2AEon+IqQ2/L9Q8DhMWsNPssn5JwFUAylOe5sDntvqrt5t1WYGxUxFP9m8R6yPCfs/3xfknFCsrfXt1R/ye6+F0jCTCPUgt01Lew6BBhVLXTqWOBLBLH38+iIDrB1SWLfcGoz8qpK/LRtA8kxTNA1Jy/oGAmyU0gJASM0jHlOsHAJambkhhPCfobSNk/SHbQbOTHoOBqH9TWc8SAn6chscliHBqi7/qnWJTjxcmUhyMRzNqeoL+mk+3HFp81a0gvJhhe1uSfwgFYC8P/kKRPhGpZFP9Lw2xBFqNoHVavre7LhSdopyJpWly/nUAdLtoU47ndX+VSaSmAuhM4TE7c0I37zl/3Q7ZrHvrIs+vQPREGh7lAtFvXXrg4rqgeUCh9aERMEeZXdWMnP8AACuwSURBVNZrvck+Unf+EV/T6q++ry+/VbCZpTHPscA4M/xm1fjWhpqXZZoQSoHw5CHRVp/nHKX5IKR6NDyPYRRO8FdiTvqKBYGHEeg+Y7z1tjdoNuSzI9AItu3mDZmzAPwNQIoOElpGnZ/cJSNZSMcmTydwHIBoWgxM5ssSlYPfzMfYT6NC1neMkNUEogCBh6Vplr2o1e+ZVaz6oUhl0lm1voec/8y7NoMzuWHv4U2xJpl5hEKgxVfdqggnIumEQFs0SAcD/KARNOflY4IQI9i2mxE0H2KmENJz5Xe9hvYBvEI0Kfe0+qreZqbpgP27nAx4y3q6H0MTO7JW8Rmk1Ya1pzKQnqRRhHoGXjNCVtPIgLVnvvfb6HlmZV0wOgOExakmaftvR/Kdrb7qq/puE9gIDpzHxBi4tbusrDbc4PmHBCMWStK4aax+M+xzH0zM0wB8WGztI9DnhVJXBVqTyhpBQLMx3gx7Q9ELamd1DMyXdu05f90OdUHzekBFiHFcmh57Ycu0+h4ZwUI6WHacZ5WC8qXLxiFgH814zhs0n/M2Wwflun0jm9cO9QbNuxLMYTCfnLYHM24O+6uL+nRHi7/qHQb+k4lnM3DfSt/gL/KtzUP6e57h1Najbew7aPbmBCuCUCBzgM/zPBH9BEhbEKxjCXjHCJoP1c4298h1+4y5HdV1AfOvgFoO4NQ0PbYHTCcu89csEg3KHyIN7qcJfE2K+6rJxoD232d1DE6r73E4YicjfSHEFJhPdhC3GkHzz7WzOmryra/GNrdVeEPWpbE4VjHoKqR8cOKrDnwsvMhzQTJFnABHARpY6AOACbMpoX4Raawqqa8SY2Z+umO3MzYEDj1Ya+7vVLC6UbYmHw3QXCyAKhYfrkkNAgBNic8Qd7UtmzqkregbT8StwBOj55mhWAJXgHEpvp2EolDHenuh1NXhwnM6js8BpHC8nkYS46/kTPzOCJj3OaDv6Y27mROng1PFz+eennMZ2DGNj24K+93zxZQT0mpg+qveqQ1ZU5TmuemKj0rAkVD8mjcYnatAd1VVuIPbyrSWbryBtrEgdRYhfnra53SiB8ILqy4tDe2gBwH+U7qXJ631nfnY2hcmUtwIWfeAcU36Rcly/VcoOFp97keMQHQHEN2G9MTHVABOVQ58zwiaM4n1bdm+hVYXat+Xmc9EIvEjJlSk8dGawKe1NnieFc3JR132XG3MsWrB+L791YsvqwuZy1t9nnuzZqNNHr5u1LyPJ+m4418MeNP02HIAlyhn4gIjaD5JwC2tfs8bueyfEaHoEJems7sIFxJzuuMPP15R5Z6e7KE3J4hawBhZwEbcMij988iU6lApDPKRzW27OJRjCgFHMvjIbnRvPtLNgCKCZsCFGIyg+QXA/yHQq5qpOeKver3YM++OmvfxcB13nMCgyQAORCKxk1aELz/wKSjAmYARND8D8CYT/cuRSDxRzPEh353k6QTwmxGhNXe52HEdQKcis4HAM46DqaWQ5F8XMm9kRjq+rO0AwsUJqIuNoLkEQBORCra+OeQ/mTztXDurY6DDoadq0qcQ4scwkO5rAquc3P1TMeGETLDM5361fk77FK11M9LotCbQZAYmW11W1Bsw71NO/memkoWMmmW5Ey6cCOBMMO+XEUEx3xle6L6gVG5OlDn54VgcfwDgSuNjn8vnRBgx6LtcoF8jDbGGvlIboL3S7Z4nM41QiIQbqu8wglEC6K9ptI1dAKYxqWneoPkfIv6nA+qppT73e5low+h5ZlU8TicycCazHpuBVyQIfFarv1qu+eetK4R4fdPqnwyodH0nlSulzLjdCJmtYZ8na2Gklk4aunr0PPOIWJznArRvGh/tAvADBn5gBM0lIHrCoRNPZusAxYQF7GzfaB7DjB+A6WRQ+g/hEOj+1s6qMzEu+djpTmYsJOCEAlT3dcSYUVVZdWc2v77nipHNbV6HoisBmgZweR88eYMAOoyBw4j4ciNkvYuQ9Se1Ye1jxXbNzhuwDibiXyXiaASg+nCif0cAxxLzsVqpG42AOZdBv480uF8rVv1Z6Ru2BsB0b3P0Xii6mYB9CrQp7HDqtwpqXd7wyU1cObgRwIFpfOzeAPZm1tca460ODlgvEvErgH5bORJLWyYPX2f3wXvOX7dDeU9sf4APAHA4kDicgXLKjN+4m1mfvKRht0/FghMyRcuUqlfqm60JWvE8pD/7azURruQEXWkEzdUA5iniefGY8zW7p833nL9uh7JN3fsqRZMYPCkBHgPO3IcbYv5Tq9/zSzQU90fCr/PuJE+7ETTnAWhI4yYsr69Or/RVd3gD5pNEOCVdz1TghxePo5jMMkKhEvZX314XtOK8OU5mWj9wErAPmPZJgG8wguY7AM1XzK90K359pa+6w84zR4Q+GeRM9OynFE1iomNjcd4X4EytDz2K+JQWX/WToin5zZppwzfWzuo4npyJNwEMtfmYfmDMHBFaM75335i19XjP+esmlnd3B0B0aAZesTeY906QusYImmGAXyRSryhH/KWlk4auTtdLRoTWDCvTrglMPMnqsiYDtEvmpEa3t/qqLrR7uMupSM1l1tcVkI5rgB+JES5d6a/uaC3yAT16nlkVi+F3IPwkxYVpNJgfSFTu8ntvyDwv4vM0F7psRoTWDHPBeSuYU3FgKxB8BPbVBc1mDccvIv4hy4tVnyKN1S9gBu9n7N9+KphvzMBmOLMQvf3uJHd7IVW5ZVp9T+2sju8qp34e4NoMvGIIEZ8E4CRAQScUjKBpAlgG8EdMsABlQmO9Iv0ZGMxAlwI5NFAB4sEgNZw1vkPE9ejpqUV2kkMxgc8NN9QsFtNNyPg4bHT/p35u+6E6oecD2D1DrxkO4EzNdKb672nzVjBaQPgIwHoCf6GhvnAwxxg0iKEHMdEgAjwADAAGenqGQ1Hvp6zMHtgm8NWtDdUzSlEnFPEDmildDsCP3P2rAuF8bzTT7SBOmwOQtHpQZheh0Gn1u+82QpYF5n8C6J+h14wBeIwm/NLFBCNofgDGe6TwnmasAtM6EG8gTRtJsWbQILAeCGAgE9XQ5iuSBjj23/WBM/rN5jMwndzil2u/hcKyqUPavIG2qUTqJcD2FXCPC65ZY5vbDlvcWNOVrbq/f8zOn49tbpvURepJgKdk8FUGQAYz/zQRd8AImusArACwgkErCfwZUa+tptVnW9m87EDMLoB3A6ldAR7BwBhiVHHmv6MmiOny1gb3Tak8xNnqq3rbCJqtAOryfu8PLEgounjZFM+7xT6Ixy5iV5dlnReL42oQdkifDHkYGLONkPWEU286p1BP3tSHoidppr8hjVe6GGgkJCbVBaJ/3VRefu37x+z8eVEq1wzSYeDBMTM/nd1d3nM5mC9GGq8EZXTvwlyQXyGXTR3SVh9sn5AAz83S6UvP5j+EzWsRA4TNh4h6/Qn66zMrMyj7F8Mv6Wu6ekFIBy2Tq1bWzuo4RLkST4KRjUQeOwI4GISD/7vOEAgMTb3jEpSrmAydDJwV9lc/WrIKsWHdbFQOXgsg5a/0DNxVCLdRIo3u142guQjAuDQ87p2WRvd/ZGYRioGwz/2MN2AdTcRPIzsfx3cHYXdmHEUA8KXjQHHvxx/Gl4ZZttcIAt5XrBtyFW9aSGGOb6hZXBeI/oiJHretOsz7dZLjATBPy2b4sMWNNV1g9htB81cgug7ZOYyw8/+3d+9xclR13se/v+qZhAQEAyTdMyTKLcl0BhUIF7kTEJN0d8iiSx7WB4K66+1ZBVdZZEUl6K7K+ugCrq6rKALusxrWFc3MBAgSVuSyEC5CZqonhGvCzHRCIJDM5DLd9ds/grrrA5LLzHRVzef9esE/SbrO+Z1fV536dZ1Tko6XdPxvf3Z1/+39kr/e9+O//c9H7jvq2mym87tK2Z/v6Uf9NrDXxTyfn5TZOV3F3Bndc7OpL/61tPeVBip9KyVdLQ1d8e8PvtznVm3sPflb1zclLz6VKyK3xRralxD81hg3+/SY7dtX5dv7/kKLPEhrnj16zoSNYSF7WS2KjpRsaQKaPGiZzA8TW3woTuob06CT3G3UL6Vw6bNhMXcNUzWMtO75E3uy47KnyuyqURyGJ6PATiwXc/86mnNhx3YoNhT7Wm1vqNoPktJvMw3Ni0pcvPwDqVIuZe+tRQ0zJd0/isNw+3bzd1L8S66uUtPNJn11z64T/qctHZXL6nCB8rDUdJVL8yVje6DfX3BXSTqhq5j7+VB8WiBJjQ36rqRKDHvbb/Irt4zfckRYyN6S9qFtaV8/Ld/e12bSEslG4sUsedVq97Qs7T04KTHKd/T9rckXaZiL7SZNkvS9/LF9K/LtPaemOe9WzWsuh8VsQW5nyRXfF2y4fhjOmdib5Fg/NjvXXy5OWmCyj0naNAqvYFXJP14u5r7CxRz1ctcsq4aF7GVmdr6kgdHVe1va4NuOHQ0/pu7UJDiKhqKItXjl/GwlKX1+ZfPgv8q0YU/P5YEFPyaDkL458YHPD9qm0831j9qJTcVTZJvLPh0WsnN2d39CxEfXg9nPSdqjYpFJX5reUTmpHu0vF3NtQVQ7UtIDjKbfFIzPzAxLuZVDNvf57U2pmz4fo55GLl0fKDi8q9i06JlZh2xN87C+re3ZCfn2vqtNtZWSiiN8+EOsZssOXfbifnGPU0tH78flunyEb5aOkoL/yLf3LZn+i75D0pyHYSl7x/hc9iiXfVrSxpg1byDw6G/Tcf9t3lXMfkeZzHTJbxpFV7BNLp0TFpu+JSAOE+RC9l8yHh0j032j4ftnrovCByeVeOnO73XOa3pA0p5Nqk2JOqetXTBli9y+v4c3hks7i5P6yCCk0erC1G1dpdwnJJst6fnRcDk0C04oF7PfGMklnxhGiywKxgfnS9qTH/sygfxr9bs+Nz83Pps9We6XSdo6CkfxFXO7ICw2LeycNWnzUH7w75Y3ludmr3P5rfXuqUsPemQnl4u5D6Z+crHIg3xHZeGgjS1Lulg7Xlldh4KEDh87OPi9OIcq39H3TnP7Rh2bUAoy6pzR0XvlzCU949Oakg8dY4PlYvYbQWbwMJeulVSLRcNcl3fOa34uTbEO50zsDYtNC910tqSnU32uc3Vaxk8oF3NtzMoQJytLzWH4QPZkd/uIXJtT+v3rCKLoiK5S7ptaZBGj/ofx8R/twT9+JCzkErhcsPbtPbm+RzKW/yL1wmJ2mW+rvkNmNyidTwNuN+krW8ZvmdlVmPQII54unbMmbfbA57u0+y9PdJ0wbUlPSz3vS8NS01VBJnibpNH0Qpq2IIre1lXK/mg4Pvz3+5uZedVqH5Kppz7zU1vr0v8uF7LHl+dlU/9r/PS23ln5YyuPyP2GV5eb1nsCfG5LW++FcYxV6+LOMYp0nepVIP29ce72hYEgWJXvqCyUu6U1PzvnTHmxXMxdHCg4RtJ/1LMtZn5bOJD9ZlpjXS7klgzaprykTw3Bsqy4qZr01cFg08yuOU2dAuJokUXlUva7QUNwlFwdKepZRa4/C0u5Ytp+QBlKUa3hJu1mMcykRF6bwmLzs6bdzvUXq/YKP+ZgVCi/Z/KGsJB9v3l0mvb0aeEYcenOwPyormLus2lfaTeq83du0zOZIHivpO27+xmZTOa4+t+XTlodFrLvNtOfS3ohxUP2XOCaHxZz84Zz3vY/XnCwujB5rSLN1sgu/9sis6u8GswoF3P/L+2PHh9x2/NT8u29NwZmd0p6e5zaZoF9vXX5un1iNznf+4CPydQaoyYdJPcbZnRU7p7e3nNMmvO1szjp0bCYO93cF0h6dsRzUipnou1/pgVWS3OcVxembguLuX/Y1jjmMHe7IhWFQPdfu0fv7Crm/mZ1Yeo2pmHJZRrc9fFzJe472zln0uqwlCt6ZCeadE+Ch+xFk1+5bcyY6WEpxz5tb6B7/sQeM9+NJwvspXGR/ySp/Y7cdnPpsv2Yc/qQznOS+1Su2W4UjjyRudNVar47Oz57lLt9REleFuzqVGTvKRdzZ3YWmrp2L2d3fdzNo2ErMpr7rrfHlOr7iv8xt5k76dcm/+ju50z0ppicb7yrkPtBVM0c6tJnU/bQxMtyfa6xQTM6S7lfDPfB/r83nIal3EqPrCBpuDcAdUmLgyhqCQvZy7rnT0z1hvgzl/SMn9Heu6hWzayS7IKYXhQOiAaiD8Uqbiu8UdKn4hkunRQoeCDf3ntja/u6XJrzt6vUdPOm/sG8zL4gqX+EDvtErZo5czTtV/XUWfu/XC5lvxiMCw52s0tUh6LrEHgyMD83LDWdUi41PxSXRgVWa9jlf+P+IrenUnZ80/OSdu2mzfRMUvtbnpe9r6uQPUWm87Rn++eM+ATSZYsGrfGQrmLToqfO2v9lsnfnRL5bS1qve2hec2JfIlMuTrpdsu5dPi8OzYtTUuktDRP6JQ3u0lzSbGOCu7zr53m3xC41vWuWVcul7Hc39Q9OfXWOlqRC4OPmviBckX17OC/7sz07X+76uLsN61Y3uzxXjuSPj6ZzU1ex6XqT795WWhbEKs+750/cVC7mvtKY0VslfVLxfJHtztpupu82NmhaWMr93WOzcyNyjx283uQ3yAQnSuoalqOaPWwenRYWc/8r9ctS3C3fXrlgIBM84bIrJO0V6/aaLjm844mxcWnOlkrf+ZLeEuuIyS6IFK3Kd/ReGqfYDbW1C6ZsCQvZL0XVzDQzfVfD+au16b5M1U7pnj+xR6NQ56xJm8uF7NfD/uxh7vbeHW8G3/3H90fICpnOy47PtnQWmv4tbo0b53po138ttKXc0u646THzu3YtdL4s0Z0287CQ+0lYzL0jMJ3ppl8opk/qmFSW/NIG33ZIuZi9cnXhgFfI2l2zuX/wFu3a6peqB9G3k57jkv/TLv6rB159cQpe51wp6eFdq0RE/5nYFJJ2dSn4wN5euzsN8+FyIfv1oH/DoZItlDyuRc3IzG8z6U/CQvYdXaWmm4diH9jNA9t/JWlXrjORB2oftjxs2OU8dHnD7aPt/NTVn7t0N+a1W4Ng+6/i2J/HZuf6w2LumqiamWqyjylZbwx+3t2uCBS8tauQ+8hjs3PrRvLgf3QPs5krvHGgr+9TMvuShmL/NdMGub4U9mf/Me1L+iRpenvPMRkFV7t0UqIabnZOWMjeEoem5Nv67pDpzMTEzrXa5J/tKjXdnPb8bllSOUGBX2PSsUP4sVWTvmb9GxZ1LmjdLvzOkT976c3bx2w9J5IWmOxM1X9PTGnHI+s/NUU/7Co1x35SP6Otconbzr7RzO8Oi02nknk7tHb0nRG5frmz1/ogGJzWOWdKqp6gbL113eFRLbpQ8gWSTavztWazm252s+93F7L3kKFDcH5o71306g+1OzMAN4bFpguT3ufDOzbs26jBUK7mnel0ZHYK+fYGedTR90F37exblj1QcHRncdKjiezsIg/yx/atkOyonbu90OVdhdyX0zju+SU9R3smeL9J75PrgPrex6nHI/3QI13XfXZuWJ68y3dUPi/3L+7c5UrXl4u5Dw5r/Nt7fyrZe3by+vmDsJT789F4fjp02Yv7jd2+/V5JM3byFPWdsNj0scScf2/tbVVVH3Cz8yVlY9a8mlx3BYF/Z+K43C2v/mBUp1PETpj+i75DMg26zF0flNSwG8d5weTf2jpm7D+MhiUp03++vjloqH5VsvN3NsaxYnZDWMi+v+43W8vX7RMNRC9IStxTdS7d6YH9Vffc7GOpTvZFHuSPW3e+uV/h0qF7+GnLAgWXJnYiPIJa/n3tAcGYzBkuzZLZ6ZLyI3j4Xpndbh51vNJfXbJ2wZQtiQncYs/M2Kev3d1mv8HffDaIolN5ccIf5F1H79fM7ZI3muCY+byuQlOqn56c0bHuKHm0wF3zZJoxQtf6p820zOTLqoMNt6V965QRn3Ms7hwT7b3/HZKd8gYT53K0rXpy+T2TU7H/UMuS3tMtsKV6oxUqrr8KS7mryZQ3vs607F253aQz3nCuaPpmuZC7KMndzS9ZN1WZ6L43Knq5/NZM/4vz0/7j7o6HZ9ad5oGfba6zJb11hA79uLuWBKZfdD2YfXC43/g+c4U3DlQqHZLe9UbtGrTGk4f7yfRpS3oOzFhwn0yHv8E97sNBsP2stP1AuSuO6KgcVnO/X9KBb3Cte8oyg8cmMVYzV3hj/7q+ExXZu2U6y6SjJWXq0JSqSXe72c2ZQf37yvnZWCxX3qUJ6/Sfr2/ONNT+1OV/Ktkxksb9kQLIOjPdqZot3rLPwNLR8IahHZPHAz4m6YuS9k1wV54Oi7lD692IGe198126JcFxrJrrO9YweEXaLzQzV3hjf6VybiD9hUun6XW2F3gNL8vslsCib3XObXqQO4fdPPe0r8tFFp1mriNdOkJSq6SDh6AoMSj5SskektnD7v7rcjGX6H1TDl7+9F57DYz7tkkfeJ2/siJjdt7KQvZJMusPL+xuLR2Vz5i0SK/9w0yvu32gXMreNprCMm1Jz4EZZU5R4KdJOkFSyxDMAfpl1u2Rhya/V55ZFs6b9ARJOLwmL14z7k17j1kk+SWvfR2zpYMWXbi60LQ+Tf1uXdJ7XBTYjyRNfY0/HpB0cVjMXUeG7Jwjf/bSm7eN2fYTSe/+I3/t++Oz2Y89dIwNJj5/djwd/S+SXuttodskfTs7PntpPZ94qWuxRTpJ7qdIPlOyvPZ8O6htMj2sSP+pQPdnMrV7V84+aE2d5lNXm/Sh1zpfutu/7TU45kOPnjNh40i05+239U0arNoPJZ/7Gn8cmfTjWjXzUX48+905/2a93jZbZg+rZuelZd7Reuua/b3acKabnSRphsvyJp88DIfaZDv2jr5b5r+qDTb8Oo75tts3h6cv94b1m9e11jL+FkW+vxSMlfkmmW1oyFTDepyI6qmlvfJek39N0iFp6M/Y7WMnjNQJ+/Vj2vc3JqVgqYC9JPmV2fHZb42Gyc+rv8K9ywOfaZHNcNPEQDrApX6TXnHpOTOtNOl+bd7wa5b6DtPFbvm6fbS5NsMDa5KsKXJNMtMkySea+X7uVpXZgNwjlzaa2UZF0Usu9SnQM+b+THZ80/Npzdl8R987Jfuo3A/aMVPV04HU1lnMLkn72+j31G9/DIzcTjHzN7u0RtIdm/sHf5aoJ0KHOUbKVKebgqmScgr8QHMdKLMG9+hNJmtwt40WyE3+kkvrFemFwIJyLaiVy3Nyz5KH9R2/oKFWkHymyQ5y15Muu7lcyt6b1j7PXOGNWyp950RuZ5spK9MLLltRVXRj2gqeI8LdWjvWz66pdrHJjpO0v6Qtku4JTF/pLOTuTFt/W9rXvVuBF811iEyDkj0SDQbfH637Ob+mxZ5p3Xf9IVG1Nt0Da5Zbs0mT3H0/C2yMXPvI3RVYv9xfkWyrWbRBsmdrkT9tGT2d2yu3Nk5zsyPaevJVyywwU6vkDeYqRx79tF4vgmtpq5xopvmST5eUMenxahTduGpec5kE/L3Ji9eM23f8mPe6+Wna8aRqv6Rn3W1pecWkZcP9FGm9Hbrsxf322r69JXJvURAcaFG0n5vtZ2b7yX0/Sfv8kRPeK6bgFTdVLPLno8C6M7VaOSkrh4z038NJ4tLK2zORX+3SrHRdx6Nj6v0Gz3x73/ck/UV6omrdCqJPhXObOvjmAAAAjJL7hZ+vf1P3Iwf2p/2mGgAQbw2EYPe03rpm/1qt8QqL/C+9PmvKh5VZZv96t8Hlky1VNWqfrsja8+19t2TMLmGJIQAAQPqx7BAAEAcBIdg1M1d4Y7697+KoNma1SRcphcU/SZJp77o3wVP7K+mf1NzDlva+aw7v2LAv3yoAAAAAADCcKADughlL+84cqFQelnS15BPS3FePYpAbpjTvDddo0kWNPvhkvr3vYi32DN8wAAAAAAAwHCgA7oT8knVT8x2VxR7pDu14wyZGgiX/zWg74UBJV+f3rtzf0lY5kUEHAAAAAABDjT0A/4jW5ev28YHaJa7oMrnGEpER5j6a3oB4jJnfk2/va5Oij4fF5mdJAAAAAAAAMBR4AvC1LPIg31FZGA1Eq112hUTxDyOmJAVd+Y7KV1uXr9uHcAAAAAAAgD1FAfAPzGjvOz5/bOVeud8gKUtEUAfj5f6Z2oCH+Y7KQrkbIQEAAAAAALuLAuCrDu9YOznf3nujS/dJOp6IoN5MPlnuN+Q7KvfNaO8jJwEAAAAAwG4Z9XsAzlzSM37A7BOK7HMyseQScXS8S/fm23v/JVMN/nrl/GyFkAAAAAAAgJ01qp8AbOnomzcQBJ0y+yrFP8T/u2oX1DK+ekZ776LDO55gX0oAAAAAALBTRmUBML+k5+h8W+/d5vqFpINJAySGaR+XXdHob3p8RlvvuQQEAAAAAAC8kVG1BHjakp4DgyD4vKS/lJRh+JFgU91scb6t75eSPhmWcisJCQAAAAAAeC2j4gnAmSu8Md/ed3EmCJ406SJR/ENamM6U6ZEZHX3/PG1Jz4EEBAAAAAAA/KHUFwDzbZV3DVQqv5F0taR9GXKkUIO7PpwJgu58e9/FWuwUuAEAAAAAwO+ktgA4fenz0/Ntfe0yXyYpz1BjFNhf0tX5vSuPt7RVZhMOAAAAAAAgpXAPwLe1PTuhGuz1GUX+VzKNYYgxCuXN/NZ8e19bze3iVaXsU4QEAAAAAIDRKzVPAJ6+3Bta2iofrtrYbrl/RqL4h1GvlDEPW9r7rjm8YwPL3wEAAAAAGKVSUQBs7eg7ozJQecjM/1nSRIYV+J0xJl3UqMGwpa3yYS3ygJAAAAAAADC6JLoYcERH5bB8R2Vx5PqlpLcznMDrcDWb+T/nj638Z0tb5UQCAgAAAADA6JHIPQDfflvf3tWq/3Vtx1LfvRhGYKcdY+a/zndU/i2o1S7pnNf8HCEBAAAAACDdkvUEoLvlOyoLB6ta7bIrRPEP2B0m93OjIAhntPcuOnj503yPAAAAAABIscQUAFuX9h6bX1q5R+43SMoxdMAeG++yK8YNjFuV76gsJBwAAAAAAKRT7JcAv63t2QmDNvbrUaT3SzKGDBhyU+R+w4yO3vdFpo+W5zY9Q0gAAAAAAEiPWD8B2NJWObEajF1p0gdE8Q8YVu4222r2+Iz23gVEAwAAAACA9IhtAbClve99Zr5crmaGCRghpn1c9uOWtsoXCAYAAAAAAOkQywLgjLbK+SbdKGkMQwSMODPzK/NtvV8kFAAAAAAAJF/sCoCtS9ed7ObXScowPEAdmX2+pa3yYQIBAAAAAECyxaoAOG1Jz4FRFC2WNJahAerPzK9tae97G5EAAAAAACC5YlUAzATBtZKaGBYgNsaa7Hot8oBQAAAAAACQTLG5qW9d0nucpPMYEiBufGbLsX0LiQMAAAAAAMkUmwJgFASLJBlDAsTxRGGf12JnX04AAAAAABJ5Xx8DLe3rp0k+h+EA4smlQ1vHV4pEAgAAAACA5InHE4AenSee/gNiLTK9jygAAAAAAJA88SgAmpdG8RisIQ0TJRrFfS+cvtwbSAEAAAAAAJKl7gXAmUt6xpt01CiM/YDJr/Rt1aNIw0RZau4LJD03Cvv+pvUD648gBQAAAAAASJa6FwC3yo6QNJqeKnLJb4yqmaldxaZFY/Zu2EoaJodJUVep6eZgfNBq0lclbRtN/a957R1kAQAAAAAAyVL3AqAHOngUxXuFu50cFpsu7J4/sYf0S67OWZM2dxVzf5NpqE2V/KZR03ELDmb0AQAAAABIlhjsARjsn/oom3rc7SPhg9njy6XsvaRdeqycfdCasNi0MHI/w6XfpL/Hvj+jDgAAAABAstS/AOjemOL4bpXp7xozmlYuZb+rRRaRcunUXWpaXu7PzpTZ/5FpQ1r7aen+vgIAAAAAkEpBDFrQn9LYttXcWsNC7nOPzc71k2qjwAKrhYXsP43dNvZwmV0laXvq+mjBZgYaAAAAAIBkqXsBMJLWpymgLv3GI58VFnPzVpWyT5Fio8+j50zYGBayl2U8OtLMb0tV5zzawAgDAAAAAJAs9X8JiNVWpSSWL0r6ZLk/O7M8r+kuUgsrS81hV6FpjtzOkqszHScMCxlZAAAAAACSdj9fZ92bmldL2pTgGA5K+oex28ceFhZz12iB1Ugr/HdhKXtHMLDhaHP7a0kvJ7kv1lh7hBEFAAAAACBZ6r8H4I6C2Z0Jjd8dlvGjwmLuU4+eM2Ej6YTX07mgdXtXKft/fVv1MJeulZTAQrF1r5x90BpGEwAAAACAZAni0AiX35KkoJlUNvNCWMyd1TWnqZM0ws4qv2fyhnIxd7Gi6DjJ71ayEv8WRhAAAAAAgOSJRQFwc3/1J5I2JiBeG+V+2XbbdGRXoWkp6YPdFc5rfjgsNp3qprMlPZ2AJrt78ANGDgAAAACA5IlFAXDtgilbTPpOjOMUSX5TY4Omh6Wmq1YXpm4jdTAUyoXckk39g61yv0zx3gvz5+XixFWMGAAAAAAAyRPEpSGWGfyaZC/FLkKmu4LIjg6LTQsfm51bR8pgqK1dMGVLWGq6KtNQa5X0r5I8Zk2sBZEtYqQAAAAAAEim2BQAO+dMeVHyS2MUmzUyuzCcmz2jc172N6QKhtvK2QetCYu59wWBHy/TfXFpl7lfzXcAAAAAAIDkCuLUmLCQ/b6ktro2wrXZTJdvGb9lWljI3igzJ00wkjrnNj0YPpA92eQflNRX5+Y8Ps79C4wKAAAAAADJFasCoMx87PaxF0jWXYeju+Q3RbXM9K5C7svPzDpkK+mBullkUVex6fqompkm2d9LGvl9J00bMmbnPDSveYABAQAAAAAguYK4NejRcyZsHLTBd5n01AgedkVkdkpYbFrYPX9iD2mBuOieP3FTWMx+JmPWKrObR/DQLwfmc1cWsk8yCgAAAAAAJFsQx0atLkxeu92qp8ns4WE9kKlHsoVhIXtcdyF7D+mAuFpZyD4ZFrIL5HaWXJ3DfLjnosBO7Zzb9CCRBwAAAAAg+YK4Nmx1YfLaxoyfKum6Yfj4re76cjAumB4Wszexzx+SIixl78junT3SzT8h6cUhP4CrI1O147rnZh8j2gAAAAAApEMQ58Y9NjvXHxZzH3Kz2ZJWDsFHRjL9OKppRrmUu7xz1qTNpACS5q5ZVi0Xmv4xyAxOdelaDc3+gGvM7YKwlCuunJ+tEGUAAAAAANIjSEIjy4Xs7WF/9kiZzjNpd5bq9rt0vUtHhoXcn3WfnXuaoUfSdc6Z8mK5mLs401CbavJvSHphNz7mMXf7yKb+weldpeyPiCoAAAAAAOnTkJiWLrBaKP1E0k/y7T1vNQ/OdtMJkt4h6RBJ4/7b335R0irJHlakO6IouKN7/sRNDDfSaOXsg9ZI+vThHU98tkH7nhZE0btldrRLMyRN1O8L/Vsle1aKOiXdn3FvW1lqDokgAAAAAADp1pDERofF5mclffPV/yRJkxevGTdhfLTXAXu/ZdNds6zK0GK0WV2Yuk3S7a/+9ztH/uylNw8O9gx0LmjdTpQAAAAAABh9GtLSkbULpmxZK21hSIH/6dFzJmwkCgAAAAAAjF4BIQAAAAAAAADSiwIgAAAAAAAAkGIUAAEAAAAAAIAUowAIAAAAAAAApBgFQAAAAAAAACDFKAACAAAAAAAAKUYBEAAAAAAAAEgxCoAAAAAAAABAilEABAAAAAAAAFKMAiAAAAAAAACQYhQAAQAAAAAAgBSjAAgAAAAAAACkGAVAAAAAAAAAIMUoAAIAAAAAAAApRgEQAAAAAAAASDEKgAAAAAAAAECKUQCss1fGbKnFMjHM698uUxS3uLhUI2sBAAAAAECSUACss2dmHbJVUjVu7aq5v1L3Rrg2x2/EfBNZCwAAAAAAkoQCYDy8ELcGmVnd22QxjItkL5CuAAAAAAAgSSgAxoI/EbMGRZv7B1fHIC6r4jZSJusmXwEAAAAAQJJQAIwDt4fi1R6FaxdM2VLvZlgUPBy3obIgepiEBQAAAAAASUIBMB6DsDxO7XHTL+PQjs6HJj2ueC0D3ti5KUcBEAAAAAAAJAoFwBh4eWBwmaSNcWmPKfppLBqyyCK5fhafuNgtWmC8BRgAAAAAACQKBcAYWLtgyha5bo5DW0x6Kiw03R2X2Ljb9XFpSxRFN5CtAAAAAAAgaSgAxmUgGoK/lxSDp8vsazLzuMSlPC97n+RxKEg+UJ7XdBeZCgAAAAAAkoYCYEx0zpm02qUb69oI1+rt9sr18YuOf05SfYuSbpeTpQAAAAAAIIkoAMZI1fwzMm2o0+HdZR9fXZi6LW5xCYvNv5L8pro1wPTjsJS9gwwFAAAAAABJRAEwRlYXmtYr8gtVn6fdri2XsrfFNTZRteHjkq+qw6HX+Nbqx8lOAAAAAACQVBQAYyYsNbWb/IsjeUyTlgf9Gy6Nc1y650/cFAXBuZJeHsHDbnKPzim/Z/IGMhMAAAAAACSVEYJ4aunou9ZcnxiBQz0waI1nrS4c8EoS4pJv7zlVHrTLtM8wH2pAbvNZ+gsAAAAAAJKOJwBjqlzIXSSzL2g4lwO7OoLxwZlJKf5JO/YDjCyaJalvGA+zXqYzKf4BAAAAAIA0oAAYY2Eh+yUFXpK0fog/elDS58MV2XmdsyZtTlpcuovNKwIFR8n1y2H4+P+oRQ1HhYXc/WQgAAAAAABIA5YAJ0DrrWv2r9Uav2zSByU17slnuXSnuS4OS7mViQ+Mu+WXrrtA8q/I1byHn9Znpsu75mavl5mTdQAAAAAAIC0oACZIy9Legy2yT0p6n6SJu/BPt5m8Te7XdJWa705bXA7veGLsGN/3/S59SPKZu/JvXfqNyb+3qb/6g7ULpmwhywAAAAAAQNpQAEygmSu8ceu6yimRdIbcjpZ8mmT7Sz5Brs0ybZK0SrJO8+iujLbf8XjprS+Nhti0tK+fZqqeJdlJMpsu+Vvl2keSybRJrjWSuk26N/Bo2cpSc0hGAQAAAACANPsv5vKmfpQ1YccAAAAldEVYdGRhdGU6Y3JlYXRlADIwMTktMDctMDdUMTc6MDA6MzkrMDA6MDCYvssvAAAAJXRFWHRkYXRlOm1vZGlmeQAyMDE5LTA3LTA3VDE3OjAwOjM5KzAwOjAw6eNzkwAAAABJRU5ErkJggg==;" parent="1" vertex="1">
          <mxGeometry x="260" y="523.04" width="340" height="81.28" as="geometry" />
        </mxCell>
        <mxCell id="XNyWhRnu9zckB0rVUKcg-6" value="" style="shape=image;verticalLabelPosition=bottom;labelBackgroundColor=#ffffff;verticalAlign=top;aspect=fixed;imageAspect=0;image=data:image/png,iVBORw0KGgoAAAANSUhEUgAABH4AAAHRCAYAAAAcx36FAADqSUlEQVR42uzdeXxU5b0/8M/ZZyYLSSAQwqogu4qAolgXsC7V1vbWpdal1bZa622199fe9iq0arUueF1xq8t1g4oCbsUFkNUAYZctbAkhJJA9ZJvlzNl+f5DndBJRcUlIJp/36zUvIobkzDPPOXOe73yf7xcgIiIiIiIiIiIiIiIiIiIiIiIiIiIiIiIiIiIiIiIiIiIiIiIiIiIiIiIiIiIiIiIiIiIiIiIiIiIiIiIiIiIiIiIiIiIiIiIiIiIiIiIiIiIiIiIiIiIiIiIiIiIiIiIiIiIiIiIiIiIiIiIiIiIiIiIiIiIiIiIiIiIiIiIiIiIiIiIiIiIiIiIiIiIiIiIiIiIiIiIiIiIiIiIiIiIiIiIiIiIiIiIiIiIiIiIiIiIiIiIiIiIiIiIiIiIiIiIiIiIiIiIiIiIiIiIiIiIiIiIiIiIiIiIiIiIiIiIiIiIiIiIiIiIiIiIiIiIiIiIiIiIiIiIiIiIiIiIiIiIiIiIiIiIiIiIiIiIiIiIiIiIiIiIiIiIiIiIiIiIiIiIiIiIiIiIiIiIiIiIiIiIiIiIiIiIiIiIiIiIiIiIiIiIiIiIiIiIiIiIiIiIiIiIiIiIiIiIiIiIiIiIiIiIiIiIiIiIiIiIiIiIiIiIiIiIiIiIiIiIiIiIiIiIiIiIiIiIiIiIiIiIiIiIiIiIiIiIiIiIiIiIiIiIiIiIiIiIiIiIiIiIiIiIiIiIiIiIiIiIiIiIiIiIiIiIiIiIiIiIiIiIiIiIiIiIiIiIiIiIiIiIiIiIiIiIiIiIiIiIiIiIiIiIiIiIiIiIiIiIiIiIiIiIiIiIiIiIiIiIiIiIiIiIiIiIiIiIiIiIiIiIiIiIiIiKi7k7iEBB9Vnl5uRaJREK2bavRaDTY2NiYXltb27OysrJPVVVV78bGxvTy8vK+8Xhcj0QioXA4nBIOh1MikUgoEomETNM0bNtWv+h3pKWlNWmaZoVCoUhaWlpTenp6Y1paWlMoFIpommb16tWrJisrqy43N/dg7969q3r06NEQCARihmGYqqramqZZubm5cb5aRERERERE9HkY+KFuq7i4OK2xsTG9uro6u7a2tmddXV1WZWVln/Ly8r51dXV3VFZWorGxEXV1dYhEIgAAWZYBAK7rQpIOnz6e50GSJP8h/u6rSPx+8bWu63BdF47jwHEcaJqGzMxM9OnTB5mZmejfvz8yMjL+q0+fPpW9evWqyczMPJSZmXkoKyurLi0trSknJ8fmq0xERERERNS9MfBD3UJRUVGP4uLi44qKiobs379/YF1dXVZ5efm0xsZG1NbWoqmpCZZlwXEc2LYN27YRCARgWRYsy4IkSdA0DaqqwvM8uK7b6ud7nuc/APgBoK/L8zw4jgNZlqGqaquAk+u6/v9XFAWapsEwDKSmpiIrKwu9evVCeno6+vbt+8d+/fodOP744/cOGTKkaPjw4bWcCURERERERN0LAz+UlAoLCzOWL19+zq5du4bv2LFjZE1NzfWRSARNTU0Ih8NwHMcP4iQGbBLZtg1ZlqEoCiRJ+sz3ua4LWZZbZfl4ngdZliHL8meCQ22J/5+YLSR+lvjatm3/+8RxiOCPoiife+wAoKoq0tLSYBgGDMNAdnb2zCFDhhSdcsopm0aMGLHzzDPP3MWZQkRERERElNwY+KEuraaqWq6vr88oKyvrv379+gkrVqw4u6CgYFRDQ8OpIkuGjiwlJWXD8OHDd51xxhmrJ0yYsH7IkCFFPXv2rO3VO9vl6BARERERESUHBn6oy9lZsKP39u3bR5eWlg7Ytm3bK5s2bUJFRQUsy/r3xJY4tb+Moij+tjZVVdGnTx+MHj0a48eP/9XQoUMLjzvuuOKcnJyKnNy+LCBNRERERETURXF1TF3ChnXrj8vLy/vO5s2bTy4tLf1DTU0NKisr/WCPpmlQFAWO4yAej8O2bRiGwYH7ArZtQ1EUKIoCJBSsVlUViqJgzJgxyMnJwYgRI341fvz4DSeffPLmntm9PI4cERERERFR18HAD3Va+atWD1u+fPk5eXl53yktLf1ZfX09YrGY3+lKVVW/9o4oeCxJkh/MsG02tfoisiz7RaJFHSFZlv0gWnNzMwzDQDAYRFpaGvr27YuxY8f+z0UXXfTR5POmbOYIEhERERERdX4M/FCncaC0LFhYWDh08eLF5y1dunTynj17LjVNE6qqQtd1v9CxqqpAS8aKKIIsCip7ngfLsmCaJoLBIAf1C4iuYeKRWDjadV0Eg0GYpukH2VRVheM4kCQJuq5vuvraa2aedtppa8eNG7dx4MCBEY4oERERERFR58PADx1TpSX7U/bu3Xv8unXrTl26dOmLO3bsQHNzs99Ry/O8Vt2sxLakaDQKwzBaZfygJWNFfL/jOBzgLzr5j5AtlfiIRCIIBoPQNA2u68K2bX9MFUWB7TrIzMzEwIEDMX78+NunTJmy5KSTTtrSv3//GEeXiIiIiIiok6z9OAR0LOzYsSP7w/c/uGTNmjUvbdu2DWIbl+d50DQNaAniWJblb98SEjN7RCtzsb3L8zw/QKHrOgf6KCS2g09sKS/GWmytS9xCZ9s2IP+7jb1hGH4Q6Mwzz7zlrLPO+uTcc8/dxtElIiIiIiI6thj4oQ713nvvTZo/f/73N27ceHtVRSVisZhfTNg0TaAl2CD+3vM8yLLsf50YpJBl2a9P0zZYIQIW9PlEu3sxrm3HNzHgJsZSZAbJsoy4bUGWZdi2Dc/z/ECbruvIyMjA2LFjH7/gggsWXnjhhQv69OnD9CsiIiIiIqJjgIEfanebN306YPHixee9/vrrP927d+8FSAjOUBJfXFq25/Xu3Rvnn3/+X6+44oo5k75z5k6ODBERERERUQeuzTgE1B4qyyu01atXn7FkyZIpeXl5d1ZWts7uYf2d7kHTNJimCdd10bdvX0yYMOHRCy64YOGkSZNWDT7+uEaOEBERERERUfti4Ie+VWX7S0MLFiy4cMWKFW+tWrUK9fX1cBzHbxEu6u84jgPDMDhgScy2bQQCAX9LnugIlpWVhf79++P7l/7gmnPPPXfZSSeddJCjRURERERE1D4Y+KFvRU1VtfzKK6/8fP78+f9XUlKCSCTi1+cRHaLE14FAoFVNH0pOqqrCsizE43EoigJVVf1ubWlpabAcG7m5ubj00ktvvuaaa2YNHjy4maNGRERERET07WLgh76RdWvWDnn33Xd/OH/+/IcPHDgASZKgadrhrk8AHMfx6/kEAgGYpgnLsmDbNjN+kpxt237BZ5HtI772PA+qrkHTNDQ0NCA1NRVXXXXVtOuuu+61cePG7efoERERERERfTsY+KGvZf369YPfnP3GVXl5effv3bsXlmX5i3xZlv3FvOgCJbZ4ua6LYDCIYDCISCTCgUxiqqrCcRzE43F/u5+maX7LeNOKwzRNpKWl+dlBmZmZuOSSS/7n/PPPX3TBBRds5CgSERERERF9Mwz80FeyadOmAQsXLrzg/ffff2FvYRFc24Zt237rb5HpIxb9YruXoihwXdcv7ByPx6G2BIqoa/qynmyu6/qvvwj4mKZ5OPtHUQBZ8ueD4zhQVdVvC5+ZmYnLLrvs1rPPPnvFeeedt5mjTURERERE9PUw8ENHbfr06b949913X9y9ezfgeoe367QEdVRVhWmafiFf13Wh67r/dyLDRwSIVFVFvCVIRF3T0QR+NE0DAFiW5b/2nufBbgkKKZoK13UhyzJs224VMHRdF8cddxwuvPDCP1xzzTWzRo8eXclRJyIiIiIi+moY+KEvtLewKOODDz64+LXXXruuuLj4IlGgObFmC1G7XJxatggCQFpaGm644YbfXXnllW+OGDWyiqNDRERERER0lGsrDgF9nheee/7HS5cunZefn4+amhoYhuF3ZhILc6L24jgOFEWBpml+LaDhw4fjvPPO++UPf/jDd08YPqyWo0RERERERPTFuHKnz1jy8eKxr7/++k/z8vL+dODAAdi2jfT0dADwt+Co6uEtOkTtRWz/QkvNqGg0CsMwkJGRgVGjRuHnN1x/1o9+9KM8jhQREREREdHnY+CHfCXF+9L+8Y9//Hr58uUPlZaWor6+HoZhQNd1SJKEaDQKXdcP12ixbSiKwkGjdiM6wkmSBE3TEIvFoOs6otEoVFVFr97ZuPDCC6fdcMMNL5100kkHOWJERERERESfxcAPoaR4X9rSpUsnP/LII++Wl5fDcRwEg0E/sycajbbqzmRZ1uHCvAz8UDtLnGemafoFogOBAOK2BQAwDAPXX3/9rbfccsvTffr0cThqRERERERE/8bATze38KMFE95666118+fPRyQS8ev4xONx2LYNwzD87B5FUfx23IFAAI7DNTa148WppbizKCiuaRps2/Yfqq753+c4DiZOnIhf/OIXU84666xPcnJy2DKOiIiIiIiIgZ/uq7q6Wprx+BO3LVy48NHi4mJ/YR2NRuG6LhRFgdzSql3UWRFfJ7beJmovpmkiFApBlmXEYjG/mLiqqpAkCZZjQ9M0xONxAEAgEEBGRgYuvPBCXH/99bknnnhiOUeRiIiIiIi6OwZ+uqElS5ac9PTTT29et2YtTNOE53kAANu2/awKVVWhKAosy/LrrIjMCsMw0NjYiEAgwMGkdmNZlp9x5rquX19KZJp50uEC0LquIxwO+1/LsoyBAwfizjvvPPWiiy5az5EkIiIiIqLujIGfbmTHjh3ZL7zwwq/mzZt3X3NzMxRJ5qBQ0gqFQpg0adKT//Vf//XohNNO3csRISIiIiKi7oiBn27i448/HjtjxoxN+fn5fsYEAz+UzFzXRSAQwLBhw3D11Vf/+Jc3/uptjgoREREREXU3DPwkueLi4rRZs2Zd8+abbz5TWVkJx3Hgui4Mw4BrszgzJS/Ric51XfTs2ROXXXbZH6677rrXho8cUc3RISIiIiKi7oKBnyS2YcOGQU888cS+5cuXw7IsuK4L0zQPt8KOx5nxQ0nNdV2/flVKSgpM08SZZ56J22677cSzzz1nG0eIiIiIiIi6AwZ+klBlZaWydOnSydOmTVvU3NwMy7JgWZZf+FZVVViWBZkvPyUxz/P8gtCxWMzvAJaWloabb7755p/fcP1Lubm5cY4UERERERElM678k8zGjRsHvvfeeyUzZ85EQ0MDXNeFqqp+63XTNIGWltie43LAKGmZpum3fhdbvkTXOsdxcPmVV+DGG288bsKECfs4WkRERERElKwY+EkiCxcuHDdr1qwNn3zyCerq6qAoCgBA0zTIsoxYLOYHgRzHAVyPg0Zd1pdtVDQMA3V1dcjKyoKiKGhoaPADQZKiIBKLYsqUKfjpT3865YorrljKESUiIiIiomTEwE+SePvtt8965JFHVuzZswemaSIYDCIWi0HXdcTjcciyDEVRIMvyvzMhGPehLuzLAj+e58EwDMRiMTiOA13X4TgOFEWByHUzrTj69++PX/7yl9f9/ve/n8lRJSIiIiKiZMPATxdXfuCg8dxzz9306quvPtHc3AxVVRGJRKDrOgeH6Au4rgtFUeA4DmRZxqWXXjr9D3/4w8MjRo2s4ugQEREREVGyYOCnC9u4fsPgF154oXjBggVobm6G67p+Zo/I6iGiI9N1HdFoFLqu+1lykydPxtVXX3369y65eA1HiIiIiIiIkgEDP13U6pWrhj/44IM7V61ahUgkgqysLEQiEbiui1AohGg0ysAP0RdwHAeGYcBxHMTj8cNbwFwXJ510Em688cbvXX3tNR9xlIiIiIiIqKtj4KcLWrRg4fj7779//fr165GamgoAsCzLD/SIzB/XZdcuos+jqipM04QkSdA0DQD8Auj9+/fHzTfffMVNN/96LkeKiIiIiIi6MgZ+upgnn5hx9VNPPTWrqqoKmqbBMAxEIhFYloW0tDTYto1YLIaUlBRYlsUBI/q8i58ktarzI9q9u64L27aRlZWFiy+++K5p06bdm92nt8MRIyIiIiKiLrn24RB0DRUHy/Wnn376lpdffvnR5uZmBINBOI4D0zRhGAZUVUU0GoUkSX4nL9HOnYg+yzRNpKSk+Fu9dF2H53mwLAuGYcA0TWRkZOCSSy7BLbfckjNy9KhKjhoREREREXU1LALTBZTtLw3NmDEj/OKLL8JxHKSkpMA0TaAla8HzPJimCcuykJqaCsMwEI1GGfgh+gIpKSmIRCJQVdUP9MiyjGAw6G8Bq6+vx+zZs1FbW1uxZ9fuXicMH1bLkSMiIiIioq6EgZ9Obm9hUcbdd999aOHChVBVFZ7nIRqN+ltSUlJSEA6H4bou0tPTYVkW6urqkJaWxq1eRF8gEokgLS0Npmn6Xb0Ss+gsy4IkSVAUBYsWLUI4HK7ZtGHj4FPGjyvh6BERERERUVfBrV6d2Nr8NUPvueeePevXrwcAf/uW53mQJAmSxJePqL2Irl+xWAySJEGWZYwcORK/+93vzrv8yiuWcISIiIiIiKgrkDkEndO6NWuH3HXXXXvWrVvnbztRVRWyLPuBHyJqX6ZpQlEUBAIBeJ6HgoICvPbaa4tfeenlH3B0iIiIiIioK2D0oBNasWz5mIcffnjrypUrW3UaAuBn/Giaxq1cRO1IVVXE43H/v0UdINd1MXToUPy/P/7huz/5yU8Wc6SIiIiIiKgzY8ZPJ7Pyk7yR99xzz9b8/HwoioJgMOhn94hizaLzEBG1H9HpKxgM+i3eDcOA4zgoKSnBI4888vHs2bO/y5EiIiIiIqLOjBk/nciH738wcerUqfmVlZV+YEcEfcQWL8dxIEkSHMeBqrI2N1F7cV3XL+7sui4sy4LneVBVFZqmIW5b6N+/P/7zP//zxzfeeOPbHDEiIiIiIuqMmPHTSeSt+GTUX//61/ySkhKEw2HIsuxn+Ijgj23bQMsWFFnmS0fUnnRdh+u6fpt3EWhVFMUPwJaXl+Ppp59+69lnn72cI0ZERERERJ0RowedwLIlS0+aOnXq9rKyMsiyjLS0NDiOA8uyYNs2PM/zsw9ES3fP8zhwRO0oHo/DMAwEAgH/7xRF8Tt8ieDPgQMHMGPGjDkzZ868iKNGRERERESdDQM/x9iKZcvHPPTQQ5uLior8du3xeByu60JRlFadvNCy/cS2bW7zImpnItPOcRy/pbso+Ox5HnRdRzQahaqqqK2txcMPP/zhnDlzJnPkiIiIiIioU61tOATHztLFS06+6667Pt25cyccx0EwGEQ0GvW3mDCrh6jzElk/aAnI6rqOPn364Le//e2Pf3njr1jzh4iIiIiIOsfahUNwbGzevLnf3//+90+3bdvmb+MSf9q2za5dRJ2c67r+ORsIBGBZFoqLizF37ty3Xnnp5R9whIiIiIiIqDPgfqFjYNOmTQOmT5++f9OmTX6XINM0EY/H/e/RNI0ZP0SdmCi+HovF/K2ZsixjzZo1qK+vf2/1ylUjzjhz0i6OFBERERERHUvM+OlgJSUlKY8//vj+pUuXQtM0BAIBOI4DWZb9Tl2e5/n1RYioc7IsC5qm+UFaz/MQCATgeR727duHe++9d+emDRsHcaSIiIiIiOhYYuCnA5WUlKTce++9zQsXLoRpmvA8D7Ztw3GcVhk+YtsXEXVeiqLAtm1IkgRd1wEAkUjE7wK2Zs0a3HPPPfu2bt7Sj6NFRERERETHCgM/HeiJJ5649cMPP0Q4HPYXjoqiQNM0uK6LeDwOSZK4zYuoC1AUBY7j+IXYRfc9RVEQjUahaRpWrlyJBx54oKykeF8aR4yIiIiIiI7J2oVD0DFmzJjx0+eee+7pxOCObdn+glEUiRVt2m3b9rd+EVHnY1mWH7h1HMfv8CVJEiRJgmma0DQNpaWlqKyslDZs3LCYo0ZERERERB2NkYUO8Morr1zyzDPP/FN06xLFnEVxWEFVVbiuC9u2/a0jRNQ5iUw9y7IQj8chy7J/buu6jlAoBMuy4LouPvzww/+Z/sCDv+KoERERERFRR2MF4XY2Z86cyQ8++OCSffv2QVEUv127qqrwHNbxIUpWonaXyATKyMjAbbfddvV//u63r3N0iIiIiIioozDjpx2tXLly+Ouvv76kqKjILwTrui5CoRBM0+QAESUxXdcRj8ehaRosy8KhQ4cwe/bsf855483zODpERERERNRRGPhpJxUVFeqTTz65c/ny5X7LZ8uyEIlE4DiOX8uHiJKT53mQJAmO4yAUCsHzPBQUFGDWrFkf569aPYwjREREREREHYGBn3YyY8aM3y1atAgAYBgGIpEIUlJSEAwG0dzcDEniLjuiZCa2dFqWBcdxoOs6VFVFfn4+pk+fvquyspLF9YmIiIiIqN1x4dEOHn300etefPHFZ2OxGAKBAGKxGGzbRjAYhOd5sCzrcPFmtmwnSlqito8sywiHwzAMA57nwXVdFBYWwnacpry8vFUcKSIiIiIiak/M+PmWvffee5Nee+21V0XXrmg0CgBIT09HY2MjotEoUlNTYds2B4soiSmK4gd6UlJS/A5fwWAQuq5j9uzZDz399NNXcqSIiIiIiKg9MfDzLdq+fXufF154YWVZWRni8Tg8z/M/9fdasnsMw/BbPhNREl9cW9q7u66LQCAA1z3cxS8SiUCWZZimiVmzZr2xaNGiUzhaRERERETUbmsTDsG3Z/r06X9as2YNbNv2P+1PSUmBJEkIh8MIhUJQFAXNzc1ITU3lgBElMcdx4HkeDMNAOBxGSkqKX9TdsixYloVdu3bh2Wef3VhaWhrkiBERERERUXtgheFvyZNPzLj63nvvnZVY16Ozsxwbuq7Dsiz0799fBKbeVVXV9jxPcl33x7FYzF+kNjc3IxqNQpIkqKoK27YhSZKfySA6GLmuC1VV/Swn0d0osaW9ruvwHJcTpytfPD6nRpUoXO66LmRZhud50DQNjuPANE1omgZXnCOy5GfFiewYy7L8eaWqKgzDQEpKCkKhEAKBAFRVhSRJb0uS9B+xWOwDRVEujsVi2LdvHxRFgaqqiMVi0FWtU4+fOIcA4JJLLnn4/15+6Y+cVURERERE9K2v3TgE39yH738wcerUqfmlpaWwLAtpaWlwXbfT1/HRDB3Nzc0YOnQobr31VkycOLHX8OHDa8X/LysrC0Sj0eChQ4cyKyoqckpLSweUlpYOKCkpeaiiogIlJSUwTROWZfkLfhHskWXZDwjZtg3P8xAMBqFpGkzThGmanX5hTl9y8fiSwI8kSa2CgY7jQJIkGIYByDIsx4Zt25Bl2f8+XdeRlZWFtLQ0DBkyBNnZ2X8dNGhQycCBA/fn5ORUZGVl1WVkZNTn5ubGy8vLtb59+1o7d+7sVVVV1fv222/fvmfPnn8XT3c7d/F013WhKApM00QgEMCDDz74g59d//P5nFlERERERPStrt04BN9MwbbtOXfeeWf50qVL4bouQqEQIpGIyEro1Mcuq4cXnVdddRWmTp0a6Nev31EVHqqsrFRqa2t77tq1a/jOnTtHbNiw4bmCggJUVlYCLZkMiZk/YnuLbdt+kEhRFCgSdxp2Zd4RAj+Jc178f/F3qqr6tW0sy4Kqa1AUBY7jICMjA2PGjMGJJ55428iRI3cMHTq0cMCAAaU5OTlHHT3929/+dsuzzz77VDwePzzHOvn8EoEf0fJ90KBBeOKJJ4afPumM3ZxdRERERET0bVE5BN/MK6+88vPVq1dDURRomgbRwj0ej0NRlE597PF4HBkZGZg0adL3jjboAwB9+vRxAFS1PD6pqqp6saampteyZcvOnT9//ve3bdt2XUNDA9LS0hAOhxGJRKDrOjRNO7zFq2XrV2fPyKCjd6Qgp9jupygKLMuCaZp+QDAlJQVx28KoUaPmXHTRRR9NmjRp1cCBA/cPHDgw8nWPYcqUKUtmzZqFQ4cOtdTZ6tyBH13XEY1GoWkaZFnGwYMH8eyzz+4qLdmfOmDQwDBnFRERERERfRsY+PkG/u+FF380ffr0B0TLdlGjxDAMP7Olsy88hwwZgvHjx2/4Jj+nd+/ebksQ6E0Ab27duvXPq1evPuOVV175eUNDw6XNzc2Ix+OwLMvPAnFdF5rC6ZcMPi+zLRaLAQA07fCWPsMwkJqaioEDB2LMmDF//fVvbn5mxIgRNUuWLPlWjmPIkCFFp59+OhYtWnS4tlAnryFlmiZCoRDC4TBs20ZWVhYWLVqEIUOGXA/gKc4sIiIiIiL6VtZsHIKvZ+fOnb2uu+ba6n379kGSJMiyjHg8jrS0NNTX1yMYDB5xK0xnohk6fvrTn/7PQw899GB7/Y45c+ZM/uijjy7asmXLnyoqKiCCZOgCW3Hoa15UWgJBiqJAbLvq27cvJkyYgDPOOOPySZMmrRp94pjy9vjdzzzzzBX33nvvm9FotNMHFhO3whmGgfr6egQCAfTr1w9///vfz7j4+5fkczYREREREdE3xZSLr6GkpCTlmWeeqS4qKoKu65AkCfF4HLqu+wtd0cGqMwuFQhg3btzG9vwdV1xxxVIAS9euXfuP+fPnf3/p0qWPFxcXo7m5GYqmczIlmcTsn6amJpx88smYOHHi1LPPPnvFpEmTVvXqnd2uaThDhw4tzMnJQUVFBex45866CwaDOHjwIHr37t2yNU2BLMuorq7Go48+urqyslJt2VZJRERERET0tTHw8zWsW7fu1Dlz5viLXFHXR3SxSk9PRywW6/Qt3TMzMzF27NhPO+J3nXbaaXsBPLFnz57X3nvvvUtnz5591f59JRdxNiWPtlu+/vu///u33/3udz8+48xJu/73kYc75BhGjhy5Y+DAgdi/fz/kTp7Q2NTUhNzcXDQ3NwMtgVhRB6mgoAAzZ868FsArnFlERERERPSN1mocgq9mxYoVo+6+++7tW7duhdTJaxNLkgTXdVu11VYUBa7rQpZlXHDRhY+++uqr/+9YHd+Mx5+45v3335+5fft2WJblt/tWFMVvcy3LMhzHgaZpfutv13Wh6/qXZlQ5jtMq+Ca+Fs/fcRy/+LAYH7Ftz3XdVlv1xBiKB1q6lH3Z+B+py5X4OvHYjlQnJ/F7PM/zH7Is+y3QRZt0UTBbHH9iG3UxBxL/nfhZX0SMuei8JcZOVVWYpglV1/xx9TwPuq4jNzcXl1xyyS0/+9nPXh00aNAxKVB833333fTkk0/+Ix47PH9EkXUxFm3nQ2fVM7sX7rnnnnMvu+yy5bzyEhERERHR18UiK19BaWlpcNGiRds3bdrU6Vu1i4VuYjFlSZL8NvO2bWPixIlrjuXx/e62W2c9+uijOX/605+uPeWUU/ztcWJsRSAjGAwiEolA0zQYhoGUlBQ0NjYe1e8Qzz8xgIKEoJAIhLT9frHtRjzEGDqO4wdUEgMt4iGCVokd3cT3iJ+Z+Pfid3ue5wcmEoM54jVsG6jxPA+2bfvfl/hcHMdBPB73gzVtA0W2bR/VNkRJkmCaJhobG/2goW3bflFiESCLx+Po378/br755l8///zzuX/5y1+eOVZBHwAYPXr09oyMjFZj1dnrbR1JdXU13nzzzWVFRUU9ePUlIiIiIqKvi1u9voJ169ad+sYbb7TKGujUL25LlzER6BELdREsmDJlypJjfYwjR4+qBDBr86ZPV/zrX//6wYcffvhUUVGRH1yIRqPwPA89evRAOBxGU1MTAoEAsrKy/K5RX/T8xXMVwRoRgPE8r9X/T8ymSSxOLAIxiRk14nGkeZAYZEgM6rQNPIifIX5u4p9t/21iAK9tUEx8jwjyiCCTqqp+Jk7iv28bAPsi8XgcgUAAsizDsiw0NzcjNTUVAFBbWwtZVTBy5Eicc845t19yySXvT548eesdd9xxzOf9mDFjtqWnp6O6suozAdrEse7sHMdBfn4+5s2bdxmA/+MVmIiIiIiIvg5u9foKJk+ePGfz5s2Xi4CAKiud+nhFYEOSJFiW5S/6HcdBnz59Vhbs3PGdznbM69asHTJnzpwr5s2bd39TU5OfmZKSkgLTNJGamgrLstDU1ATDML7wZymK4j9vEbxQFAWqqn5utgwSMnt0Xf/MVikxfq7r+m3KkRBISQyoJGYFJX6feHzZv08M8hyJeD5tt2+Jn6FpWqvtTYnH7zgOVPWL474ieyhxLMXPVBQFl/zg+w/+8Ic/fPcHP/jB6s42jy677LJ/5K345Ka2f3+k8e20F2fl8Jw97rjjMGPGjGFnnHHGHl6FqSMVFxen1dTU9Kqrq8tqaGjo0dzcnBoOh1NM0zQaGxvTv+jfBgKBmKZpViAQiIVCoUhqampzKBSKBAKBmKqqdq9evWrS0tKaBg8e3MyRJiIiImLgp1O45557fvP4448/bds2AoEAotEoArrR6Y9bZPqIAIeol3P++ec/8dqsmbd11uPeuH7D4Pvuu++OgoKCG+vr6/0ATjQaRTAYPKqsDVmWW21pEtuVRCaUCHw4jgPLsvxAjaZp0DQNltW6K5SiKNB1HYZhQNM06Lp+pG1e78qy7Mqy7CqK4iiK4qiqasuy7Lb8LsW2bdVxHKUlOCQ7jnOZ2H6VGJAyTdPfWpW4dUsEk0QQJrE2kQgAJWb5JGb7JAaijiZzTVVVRCIR6LqOUCgESZIwYsQI/OIXvzjv8iuvWNJZ58/9999/4+OPPvZc4hi0DcB19sCPZugIh8NQVRWTJ09+5s0337yFV2L6tuzfvz8UjUaDtbW1PUtLSwcUFxcft3fv3uP37t17fGVlZZ9oNBp0XXdiYvBYbGNte209ErHdNfEcPFJgXFXV/GAwGM3MzDyUm5t7MDc392BmZuahYcOG7c7IyKjPzs6uzszMPMQAEREREREDP+0qLy9vxC233LKjvLwcmqbBNE1omgbP6fxbvkTgRwQMbNuGYRi44447rv3dbbfO6uzH/8Jzz/947ty583bu3IloNOpnm4hFw5cFfnCELVciKGKaJnRd9xcosiwjEAggIyMDPXr0QI8ePZCSkoKMjIy/p6WlNaWmpjanp6c3ZmVl1aWlpTX16tWrRtM0yzAMMxQKRVJSUsL9BvSPftXnWFleoYXD4RTxiMViAcuytIqKipxoNBpsbGxMP3ToUOahQ4cyGxoapjY3N8M0TVRVVSEcDqOxsbFV9o/run6gLLHe0JG2rR3N3NF1HZ7n4bjjjsPPfvazK7/3ve99OHDwoE69CFu8ePHJ1159zafi9fYveFLXueQpmuoH+yzLwnPPPTf58ssvX8YrMn0dO3bsyN6/f//AoqKiISUlJYP27t07vaKiAuXl5YjFYn7AW2xj/byAzdES513iOZf4tdh6m7jtNfF3ieB8amoqsrOz0bdv38f69et3oH///mW9evWqGTx48L6cnJwKBoSIiIiIGPj5xqqqquRp06Y58+fP97e+WJYFwzDgWHanPvbE7lQi40dsUXrttdfGnXf+dzd1hddgz67dPd94442f/POf/3zq0KFD/oLhyzJWRBaMbdt+wEgEAlRVxeDBg9GrVy/069cPubm5t+bk5FT07NmzVgR2xOPrBHPaS8XBcr2hoaFHJBIJRSKRUH19fUZFRUVOeXl534MHD+aWlpZOLSsrQ21trb+lK3FLW2IQ7MuCIIZhoKmpCVlZWbjgggvuu/HGG58fN2H8vq4wZ8rKygKnTTg12jbY9VVqHB1rjuf6ndUsy8I555yDhx56qOewYcPqeGWmo7F69eoTNm/efPLWrVtPLCws/GtdXR0ikQhisRgSg6Kis2Hbc0V8T9uOhkcTDEr83iP9mbgV9Ug11BI7Eyb+ncjazM7ORr9+/dCnT59pAwYMKD355JM3Dxs2bPeAAQOifOWJiIiIGPj5SubMmTN56tSpSxoaGvxOSqK2jGs7nfrYxc20uLHWdd2/cV6wYEFOS2HlLuPjhYvGPfXUU/+Zn5//i6PZpiSev23bSE1N/XT48OG7TjzxxK2jR4/ePmTIkKLevXtXBYPBaCgUivTO6WMnw3wt218aam5uTjVN0/j000/HFhYWDv3000/H7tmz54T6+vozRNDsaIIfruti2LBhuPXWWy/4yU+vWtTVxqJf39ytjuOMOVLgB10g+COrCuLxuL+VUFVV/Pa3v73p9ttvf55XZvo869evH7xy5cozFy9efF5lZeUNDQ0Nfje/xPeExK2hibW8EgM24r/Fe58IIIusyy+7/n7mhqNN9k/bczNxqyoSirEndlsUx6tpGmRZRjweh6qqyMzMREZGBk444YS/jRs3buMvf/nLdzkbiIiIiFruvTgEn6+4aG+PG2+8sb6goAC2bUPXdUSj0VY3qZ2ZyHJJDII4joMzzjgDjz32WObxQ4fUd8XX5YUXXvjRiy+++HZRURHi8TiCwaCf1dO7d2+xRevNE088ceuoUaMKTjvttLVjx44t6+7zeefOnb02btw4bt26dacWFhYOPXDgwPWmaaKurg6WZUHXdcTjcUiShOzsbFx99dW/ufbaa2d21a0UV15+xbPLli37tWVZCAQCrbavoAts+xI1rURNqXA4jDFjxuCBBx4YdeZZ39nBKzQJBQUFvZcsWTLlo48+umj37t0/tyyrS21rbKf3vw1nnnnmyilTpiwZP378Br4HEFFFRYWak5NjcySoO6uqqpJ79+7tciS6HwZ+vsB99/795hdffPGZpqYm/1N38cloF7nxbVU/QWyPuvDCC/Hggw8Gc/v3i3XV12b9+vWDH3/88eLt27dDURQMHDgQo0ePvm3YsGG7R44cuWP8+PElnMFfLD8/f2hZWVn/goKCUYWFhU8VFRWhtrYWJ554Ii699NKLr7vuug+78vP7/a23/XX27Nl3J3YjS8x26OxEsFkENWVZhqZpuOyyy/4246kn7+QM7t4OHjyob9++ffTSpUsnr169+uEDBw74BekTg/7dlehE6DgOBg8ejClTptx65plnrhwxYsTOgQMHRjiDqDMpLS0NLl++/JzS0tIB9fX1GZIktWtKqizLriRJnm3bqud5Uq9evWrGjBmz7eKLL16bLGNaWVmprFq1alJBQcGo+vr6DFVVbUmS/leW5f+ybVtt5/tvOT09vXHUqFEFP/7xj1dwhtPnWb58+egNGzaMP3ToUKZlWVoHrQ8fcl339lAoFMnNzT34ne98J2/MmDEVfDWSn8ohOLLCwsKMq678yTM1NTUIBAJ+toyoe2Dbdpe4sRaZPolFjfv06TO1Kwd9AGDChAn7CgsLM4uLi48LhUKRnJyciiFDhjRw5h69008/vRBAIYBl5eXlz5eWlg6orq7O7tu3b/m4ceP2d/Xnd8IJJ+wRWxuPVGi2KyxcE2ufGIaBaDSKpUuX/vWjDz58/6KLv7eWs7h7Wrhw4bipU6duKCsrw/79+9Hc3OwXZ265qesSdazaUzQa9TsRlpWVYebMmU8sXLgQp59+Ot56661zuBijzuS11167bs6cOf9obGz0O5C288LPbwghOoMOGjQI77///umXXHLJmmQY03feeedHL7/88tzq6mp/eygAxOPxRztifGVZRp8+fTBz5szvXXvttR9xllNba9euPX769OnbtmzZ4m/t74j7VFVVYZrm/aqqQlVVbNmyBXv37u1x/PHHN/JVSW4M/HyOWbNmXVNWVgZVVVsVuexKn6KK405s3y3LMnJycpIiqjt06NB6AJs4W7+5vn37WgD2tjySwuDBg/choZZI2+K0nT0IZBgG6uvrkZKSAkVR/G1fNTU1ePrpp28BwMBPN7N69eoTXn311Z9NnTp1WkNDA+LxOBRFQWZmJjzPQ3NzM1zXha7r3X6sUlJSYNu2P0ayLKOyshLz58/H8uXLlz/22GPX/cd//MfbgwYNCnNm0bG2aNGi8+vq6uA4jr99vT1pmoZoNOrf48bjcezevRvbtm0bA6DLB36qqqrku+++e25JSYlf3zIWi/mL3qOpE/lNF9a2baO0tBTr16+fAICBH/qMgoKCUQUFBYhEIv48FYHY9pTYCbimpgYbNmzA/v37BwLYxlcluTHwcwSffPLJyN/85jdPik8IEgtQikWjqqqd/hPVxLbnIutHURRkZWWxKxAlvZ49e9YioQNRVwv8iE9/xPGKLWuyLGPlypU/nzt37sts79497N69O+v555+/8ZprrnkgFoshFAr513PXddHQ0OAvNgzDgKqq/iKnuwqHw1BVFbqutzqPHMdBLBbD66+//trgwYPPApDX2Y69rKws4LquHI1Gg7FYLOB5niTLsqvrejwlJSXMzmXJ5+DBg7mhUMhfkLV34Ed0N9U0DfF4/HCnWsfBoUOHXqiurv6/7OzsLp0yGIvFAg0NDQiFQgDgL6ZFowSxLba9eJ4HTdOgqioqKipyOMPpSBobG9PR8kGfID60b+/zX/yujIwMOI6D+vr6DL4iyY+BnyOYPXv2VZWVlf6CMbEmiG3b/pavzl4nJHFxK/7UdR2pqanNfJUp2YVCoUhiQXa02frY2dm2jR49eiAajcJxHKSmpvodjHRdxyuvvLJ0z549WSeccMIhvtrJaf/+/aGPPvroouuvv35eUVERevbs2aqzlVi4JW4LtG0bsVgMqtq9394DgYD//t12W0tTU5O/IOwsCgoKehcVFQ0pKCgYddddd72wd+9eNDY2oqmpCY7jiPduZGdn47rrrnvs1FNPXTdy5Mgdw4YN282spa5P0zQrHA5DkqR2D0q0BEb8xgGxWMy/r3Uc53+6etAHh4PgtvjwxLbtVt0IO6JWp+d5/nU4Ho8zBZM+7z5PFR/sSZIEVVU7JPCrqiocx/HLlnT3reHdCQM/bXz88cdj//CHP/xV0zRYbtwvitw2iNIVThLxRi7IsgzDMBAIBGJ8pSnZtXw6DtM0/U83RBC3K5y/mqa12qYptqyZpolgMIjt27cjLy/vOwD+xVc7+SxcuHDc9OnTN6xYsQLhcBhpaWloamryW6yLIE/iHBHZqMFgsEMWj539/U9RFOi67rezF+e/YRjQdd3fDnosffrpp/1XrFhx9h133DFr7969ME3TX5gmfiobj8dRU1ODmpoayLL8+/z8fPTo0QPDhg3DM888c+W55567bOTIkdU8c7puoEJkiSRme7bn+4vjOIhEIv4HmYqiQFEUJxnG03VdWTQ0EduuxHmlaVq73wMkdv9NljGl9pmnIntXBGDE/V57EvcKaNn21ZIRx+hPd3iv4RC09t57711aXV2NeDwOrSUimngTKRZjHfWpwTe98W37JqTrOlRVZStLSnqKojjBYLBVjS6xiBLncGfmeR4aGxsRCAQgyzJisRiCwSAAwDRNmFYcixYteq+wsDCzpd4VJYnZs2d/984771xUXV0N27Zh2zaCwSAMw/C3giTOE3GjmHgj191pmgbLsmBZVuICDGjJpsvMzHz1WLZ4r6ioUOfOnXv5H//4x9fLysr8wNSRrgMiwCfex8VzqK+vx4YNG7Bly5Y3Fy9ejDfeeOO7P/nJTxbzDOp6TNM0RHYaOqARgVhsouXT/3g8LrYnJcXFo2VrJEzT9BfUIgtQ1P1q5wW9/zuSZUzp2xcIBGIiMCmu6+LDnfYkSdLhdW5L+QBVVRn46SYY+EmwcOHCcTfccMPd4k0wMeoqbqjbO/3uW31xD5/IrS4mmqbBMAyTrzZ1g4WfJQIlSAh+ipvrrtDSXWQrIKFYJETHLwlYtWoVFi5ceAGAN/mKd31FRUU9Hnvssd9PmzbtrsRApa7rfiD/SGnZiTVs6DBR00PXdX+LpEip13Udp59+ev77779/TI5t3bp1x1177bV7S0tL0dzcjGAw2CoYnfgaJ9YmQ0IWkHhfFwWsWwJAH990003333LLLU8fy6AWfXWKojiJdRnb+1wW74WyLPvB0ZbzQ0uWMbVt2y9e7bquv52mI7N+WxbY3OpFR+S6ruw4jn/ed9R7uQhMdsWOt/QNr/0cgn977bXXrpNlGYcOHUqa+giJN4/iT6adUncgSZKX+MZ2pPOhi98woKmpCR9++OEbBw8e5I1lF7ds2bIxf/nLX+qXLFlyFwM43857X2KQVyz2RAB17Nixnx6L45o3b945f/7zn/ceOHDA/8QVbbamHc31SZZlv76T+O9wOIwlS5bcPm3atNJVq1YN4ywgIiIi/96BQ3BYfn7+0CVLlvw+mYpiJn5qJL5uiSi7fMUp2UmS5CW2bU0s8NwVsn2+jK7r8DwPmzZtwkcffXQRX/GuKy8vb8Tdd9+9dcOGDYhGo8zc+Zbe/xKDIqIGkqhlMn78+A0dfUxz584997777lsmMn0SO4Q6juMHq45mG7m4honvl2UZoVAI8XgcBQUF+N///d9dH3zwwWmcCURERAQGfv7tn//859WmacKyLPTo0SNpaiS0XUC0dCpjTh8lPTHPkzXjx7IsGIYB0zTx0ksv3cBXvGt66623zr799tt3lJeX+3U2mHb9zbVtbiAyalzXxcCBA+fl5ubGO/p1fuCBB5Y2NTX5W9BEgW6xLS2xCPWXSQz46Pq/E/4Mw4Cqqli7di1eeumlNevXrx/M2UBEREQM/ABYtGjRKZ988sndottHPB5PmueWuIAQRSJt22ZtJ0p6nudJ4lwWAZ9kyqRILAK4bdu2H82dO/dcvupdy0svvfSDhx56aPmBAwf8os2xGJsufhtEYCQxe0Zs9zr99NPzO/JY9uzZk3nPPfcsP3DgAEKhEJqamvyglMj0EV1dEot0f8n1DaI2hMhoMk0T8XgcpmlC0zRs2LABM2bMKC4qKurBGUFERNS9MfBzuKjzBdXV1XBdF5qmobm5udUnaF1Z2+1e8Xgc0Wg0yFedkp3jOEokEmm1zTGZAkC6riMWi/ntqV9++eXr+ap3HS+99NIPnnzyyfcqKyv9xb5t2wiFQkmxFfFYMwzD/1pRFMiy7AdLJ0yYsL4jj2XatGn3VldXIz09HbW1tUhLS/OzdUTxWVHE+asU9hVZQmIbm6IoMAzDf+7xeBx5eXm8NhAREREDP3l5eSPy8/MfEF0NxI1hZ2/1fDTaLnbR0gaagR/qDmzbVsPh8GfOga7Qyv1oiG0h4jzftm3bz5n10zUsWLBg/FNPPfVeU1OT/4FDU1OTH/gJh8McpG96c9MSTBFZPuI60KtXLwwdOrSwo47j1VdfvbigoOCWtLQ0mKYJSZL8LJ/EotNIyOI5msCPmDeiHa94fo7jwLIsaJqGYDAIx3HwzjvvPLZu3brjOCuIiIi68b1Rdx+ANWvWTCwsLPQXgq7r+p+kJ4PEgrYti+GkatdJ9AULI1kstNqeE8kQ+LFtG+np6fA8D+FwGJZlYeHChUurqqqYLtKJLVu2bMx99923vq6uDtFoFIFAAJFIBKmpqVBVFYcOHUIoFOJAfUPRaBS2bft1dNCSJdevXz9kZ2dXd8QxbN++vc/777//vmmaEEHo1NTUVgEgy7L8jB3xPn20GV8J27db/fu217iGhgbMnDnzWs4KIiKi7qtbLxAKd+/Jeuett192bQeOZUOGBM9x4Vg2DK3rb/Vq+0mnoihwHAd1dXVZnPqU7MrLy/tGIhF/wSc+IbdtOym20miKCjMaA1wPqqzAtR2szV+DLZ9uHstXv3PKz88fet99920tKys7/BpqGuLxuL/NSxTqTYbAZGd4/0sMgIhsmHHjxv2mX79+Zkccw7p1607dtm2b32FMlmWYpul3GwMAVVX9zl5o2ZZ2NBk/oq5P4rUs8d+KjEAxDuvXr//bggULxnNmEBERddN7o+785BcsWHBhRUWFv9deBEm+yh77ziyhfbu/mIjH46ivr8/g1KdkV1NT00ucB4mLP7G9IhnOb9GpSNM0eJ6HmpoaLFmyZApf/c6npKQk5fnnn99TWFjoZ6BQ+0vMeg2FQhgwYEBpR/zeiooK9dNPP/2XyMYTGTniPbm9iaLWon19bW0ttm/fPpozgoiIqHvq1oGfd95550c1NTVAyydlruv6N2XJ0u5ZdP0Qz0eSJNTU1DxVXVmlcPpTMisuLj5OBHKREABKllbZiVkDYlEZiUSwYsWKhwq2bc/hDOhcnnnmmd+sXLnSz76kdr65SXgfF+d+eno6Bg0aVNIRv7+uri5r8+bNrYLNHfmhksgiEh9sRSIRbNmy5ZWDBw/qnB1ERETd8N6ouz7xvLy8EQUFBVcioeMHWgIjyZIRkHjDa1kWJEmCpmkoKytjnR9Kert27Rre9pwWtTSSZSuNLMt+MVhxfpeUlGDZsmUs8tyJvPPOO9954403HnIcp8MyPgitat7Isoy+fft2WMZPWVlZ//Lycqiq6t9jdGTgJ3Hbl+geVlpaisrKyj6cGURERN2P2l2f+OzZs68yTdNve9o20ydZ2j2LhYbYEuK6LoqKihAOh1MAxHgKULLavXv3MDHv0aZgajKc34kdCBVF8ReV4XAYc+fOvRzAbM6CY2/VqlXD7rjjjk9UVYXjOAiHw+jRowfr+LQzkd0nzhFVVTFkyJA/DRkypKEjfv+2bdvGRKNRPzgr6vF0VMahKGwtMn9kWUZtbS3Kysr6A+iQ4NfatWuPLywsHBoOh1Mcx1FkWXYlSfI8z5Mcx2nXtDdFUZxQKBQZNmzY7tNOO20vzwgiIuruumXgZ/Pmzf1+8Ytf3CkWS4mfwootE4kLxq5KPDdN0/yFYTweR1VVFaqqqnoDqOUpQMmqrKysvzi3xfnQtvhpVz+/xfMQQQURDNq2bdtlixcvPvm8887bzJlw7JSUlKQ88sgju/bu3YtAIADP85Cens4aPx0kMSDaEvgp6qjfvXfv3uPF9cZ13Va1BDuCCPaIIs+KoiASiYj3/na3b9++1KlTpxbl5+fDsiyoqtqhGU/inu7ss89GeXm53rdvX4tnBBERdWfdMt98xYoVZ9fW1vodPxJbqYqCiMlAtHgVnzSKPy3LYpFHSmpr1649PhKJnCKCt47j+FuixPmeLItatAR/RIaDqh6O57/77rs/5Ew4tj744IOL8/LykJaWhvr6eiiKAsMwEI/HOTjtfXPTkl0jzvvU1FQMGzZsd0f9/sbGxvS228jFfUZHXH9EUWfx/MWjJdu33UUikVBRURFs24ZhGH7reVHjKvGY2uOhKArC4TD27dsH0zQNnhFERNTt74262xOurKxUPvnkk39GIhE/8CP+FItDkRnQ1SUuApGwNUSSJAZ+KKlt3br1RFHzRgQ9xXYLUfS8qxN1fcQiSlEUKIqCeDwORVGwZs2au4uLi9M4G46NnTt39vrXv/71Zl1dHerq6tCzZ094nodDhw4hEAhwgDqAyHaRJAmZmZkdmvFjmqZh2/YRA80dtd1LBJ50XfevGe29xUoIBoPReDzeqsi0YRgwDMNvM9+eD8uyYBiGCHxJPBuIiKi763aBn1WrVk3avn07YrGYnwEjPhmUZdlvi5wMxPMQC0Jxw+m6LhYvXnwepz8lKzG/xafdqqr6QVARDEqWhW1i5zIR7HVdFwcPHsS8efMu42w4Nh5//PHbiooOxxlSUlIQjUbheZ6/5etYE9kw4hxp+96RmKEiAihivonvT8xeSWyK0LZ7XuL3ifnaNvuubQe+to8jHZ8IfEqS5B8fWjpaJv5MSZIwaNCg+wYMGBDtqPFVVdUWAZfE59tR251c10U8Hm81rrFYDMFgsEPGwLZtVcx1sXXetm2YpvmZ7Kf2eCAh64uBHyIiom4Y+Nm4ceO4Q4cO+Z+AJTMR5LFt28/2kWUZtm2jqqrqrC1btuTyFKBkU1hYmFFcXPy77j4O0WgUW7ZseenAgQPc5tDBli5demJeXt60+vp6f+HdtrPcsabrun88ImCSGExJrH2nKIofPBXPQ3wtFvaWZfm1i0QwJjEgmfhzNE3zv0+8J0WjUcRih/sNGIbhfzCj63qrzNXERgzivU1k92ma5h+n53kQGSeSJOGMM85Y3ZHj27Nnz9rEwuuJQbGOyChuu8VMfLAVCATY1IGIiKgb6laBnwMHDhh5eXmPxWKxpNjKdTREto8IAiUWWVy4cOEFPAUo2Wzfvn10TU1Ntx+HliLPKCoqGsJZ0bFmz559VTgcRlpaGmRZRjweb9XVKTGQcaw0NBxubmUYhv8eIQIxruv6wRnLsvwMGhHk8TwPpmnC8zxomgbDMKDruv++KjJbRLBHBCEcx4FpmhDdrgRVVREIBKDruh+wCYVCwOFaMX6WSOLPF0GmxDbptm37xxcIBPwAUCwWw6mnnrquI8d34MCB+03TbBWcEu+9HdnZK7H+V0pKCnr06NHAM5SIiKj76VZdvTZt2nTKnj17YBgGLMuCIiV33EukVotP+8SnuAAQj8exYsWKswG8zNOAksmqVasmNTc3d/tx0DQNVVVVWLdu3akACjgzOsa8efPOufPOO+8Q12ARtEjc7mNZVoct/j9PamoqFEVpFdhJDEw0NzdD13U/O9ayLLiui9TU1LyePXvWDh8+fFdaWlpTdnZ2dXZ2dnVWVlZdampqczAYjGqaZqWmpjZLkuThcMBIchxHsW1btW1bdV1Xrqury4pEIqHGxsb0xsbG9Pr6+oyamppeVVVVvevr6zOKi4uP8zzvVF3XWwWhxNZNEUxBS0DJsqxWmUiRSAS6rsO2bfTu3XvR6NGjKztyfE844YQ9mqb52VSiq5cIrHWExIwr13WRlZWF3NzcgzxLiYiIup9uFfh5++23/yMcDiMYDB5OtU/yXd+i4GtigUuxINQ0DTt27Ljhww8/fOZ73/veOp4KlAw2bdo04NZbb53e1Vu1fxssy0I8Hsfy5ctfrq6ufjU7O9vjDGlfu3fvzrr//vuXhcNhP8guMj1M02y1CD/WWadifgBAIBCAoiiIxWKIx+MIBALo27cvVFVFRkbG68OGDdt92mmnrR07duynJ5100kEAyMvLa/djLC8v1woLC4fu3LlzRFFR0ZD9+/cPrK6u/l1zczPq6+v94xdbvBK3nGma5ge2TjnllE0bN27s0PEdNmzY7r59+6KyshKSJCEajfpbzzrq/V8E8tCS/TNgwAD079+/jGcqERFR99OtAj/Lli07V9d1xOPxpCnu+kVs2/ZT3cU2A3EjrKoqdF1nm1NKtjmv6rqOWCyGgN69p7YogLt9+3YUFBSMArCdM6R9bdu2bcymTZsgSVKrIs4i+C5q1ohtSseSOBbTNBEOhyHLMlJSUjBo0CAMHDgQEyZMuPakk07aMnny5K0LFy48JsfYt29fC8COlgcAoKio6C+lpaUDCgsLh+7du/f4wsLCh8vLy1FdXQ3TNKGqKoLBIGzbRjgchqZpmDBhwvoXX3yxQ4995MiR1b/61a8ePHDgwJ/Fe6+o7ySycNuT4zgQGUciCDR69Ohf9+vXz+SZSkRE1P10m8DPvHnzzrnppptOE127ZFkGusHn37Ztw7IsaJrm108Ih8PIyMjAtddee9PEiRPX8DSgZHHqqacW/+Mf/7i8srJybnVlVbceC5FR0tjYiEWLFp3PwE/7qqqqku+6667ljY2Nfr0Z13X9TBRRA0cs/I/1Vi8kZP0Eg0GMHDkSEydOvGXixIlrxowZsy03NzfeGcd5yJAhDQAaAGwDgJKSkn8cPHgwd/v27aM3bdp0ytatW/9aUlLibw8bOXIkTj755M3H4ljPPvvsFevWrfvzoUOHWnUT7Kji3q7r+kW6+/Xrh7POOusTnqlERETdU7cJ/CxYsOBCwzAQiURgGMbhbBg5+Qs8i+LOIo3f8zz07NkT55xzzuO3337787ff/v/Ze/P4qspr/3/t+UyZZ8IQZAyTgCCDA0XA4tDbOnvbqvVaRav9VSutcKut116HVq1ebbWt3rZav15wotUCVUCqMs8kQCAQIBAyT+fkDHvevz/I2t1JkSk5Jyf7rPfrdV4kQHLO3s+z17Oez7OGxfQUEK5iwYIF7z/zzDN3v/D8r15L5fuArbpN04R169ZdCgAv0uyIH0eOHBn62Wef2UIP1lTDP7EujVMM6uv5wTAMlJSUwLXXXnv3jTfe+N7w4cPb+9t9HzJkSAQADna+/rJ3795Xqqurh3z00UdfY1nWvPLKKz+ZOXNmZV98tksvvXTd+++/D86aY1ikOt7iDx5yMQwDoihCSUnJC5dddlkFPakEQRAEkZqkRFevPWXlA3bv3LVYU1QQOB4YC4BJgWgflueA5TkAlgFV14ATePD6fXDx9Gnwi2d/+SOa/oRbWbRo0es33XLzf6VlpIOiqWBYJgiSCLwogKwqIEii6++BZZjAMSxwDAuHKg/esHH9hlE0M+LHa6+9dnc4HO7SZtyyLLuQMwot+HW8wVoyWO8KO3Xh90VFRXD//ffDG2+8kblo0aLX+6PocyrGjh3bcPXVV2959dVXH/vNb37zs69//evr++qzXHDBBaGvfe1r16Wlpdkp1qZp2rWJoDPljmXZLh3TziYNDGtFoZCIvxu/x3mIaYcPPvggCb8EQRAEkcKkhPCze/fuC1taWmzHN5FdNfoSTdPAMAzQdd2ueTBmzBh4+OGHR3TWTiAI17Jw4cLnJk6cCBkZGSCKIoRCIVBVFTIyMiASibj++rGAMM/zEIlEYP369ZfQrIgPBw8ezNq5c+cjGFWKaUZ9CcMwEI1G7a+9Xi8Eg0HIzs6GSZMmwXPPPTf629/+ttCZOkXEiWuvvfZvkyZNAp/P1yXtGtdmFAFRvEFB50w4a0YZhgGyLAPLsiAIAiiKArFYDPx+PwAAzJ8//5HJkycfo9EgCIIgiNQlJYSfnTt3TorFYgCdufVY6NjtCIJgh5XLsgx5eXlw2223XTN9+vRDNPUJt1NSUhK+5557LhoyZAgAAEiSBIIgQCwWS4nnH9NJMMpk48aNM2hWxIc1a9bMaW5uPrmosmxS1O9BwT8QCICiKBAKhWDw4MHwla985SdPPvlk3iWXXHKgsLBQp9GLL4WFhfqDDz44EMcBo8AkSQJRFG2hB0UgLMZ8Nus7pnOimASdgi/LsuDxeEBRFJg6dSrcdddd/0sjQRAEQRCpjet3P0cPH0mvqKh4Eh1ydKwS1VK1L0GRCzcBd9xxx4Lbb799BU17IlW48sord9x5553/JkmSvRHCVs9uh+d50DQNLMsCj8cDhw8f/u7mjZtG0KzofdasWTPH4/GApmkgimJSRJRiTaH29nZIT0+H4uJi+Na3vvXtX/3qV0+NHj26mUYtcVx44YUnHnroofl5eXkQjUbB7/d3EXhQoHVG/ZwJwzDs6GVFUbqIRoIggKZpMGTIELj//vvHjRo1qoVGgSAIgiBSG9cLP/v37x9dVVUFuq4Dx3F2Pn0qnPgDACiKAoIgwMyZM9/4z//8z9/TlCdSjTvvvPOjO+644/uyLAMAgN/vT4p22vEGa8pAZ6pPc3MzpXvFgRUrVlx86NChe7GWD9b26Ws0TQO/32+3N//JT35y6Q9+8IP/RyPWN3zrW9/6eOHChVcPGDDAFmTx2cTnFYWbs6kBpeu6HTFkGAZIkgQ+nw9M04RYLAZjxoyBxYsXT541axZ18yMIgiAIwv3CT3l5+fhgMNjFEcfUB7djmiaIogg5OTnwk5/85Ema7kSq8vjjj/963Lhx77EsmxKij/P5x2tWFAXKy8vH02zoXTZv3jwtHA7bERjJIPqAI+Jz4MCBsGDBghv6ssgxcZLbbrtt5SOPPDJ7yJAhoOs6qKpqp2VhFCLHcXba1unweDy2yOj1esGyLGhrawNRFGHixInw0EMPXTRv3ryddNcJgiAIggC3Cz9NDY3c7t27X4fONC90hDGfPhUIBAJw55133jZjxoyDNN2JVOa+++57NS8vzy6K6nrj3nmNzrSj6urqH+4pKx9As6F3OHjwYNbevXtfwhQv533va7xeL3i9Xrj11lv//Z577vmARis5uPHGG/+xaNGiyaWlpeD3+yEWi4Gqqna9Hl3XQdPOrvcC2jLTNCEajUJOTg5ce+218NBDD1145ZVX7qC7TRAEQRCEvTdw88W1tbVl7d+/H1RVtTc/KAA526m6mUmTJsE3vvGNv9BUJ1Kdm2+++dO5c+f+jOO4hLTT7muw9gemuWqaBvX19XD48OELaDb0DtXV1UOOHDlip+icbUemRI3/9ddf/8ADDzywhEYquZg3b97OF198Me+mm256sLCwECzLAsuygOM44DjurH4H1ipjGAYURYHBgwfDvffe++8LFy6UrrjiijK6ywRBEARBOHG18FNWVjbh+PHjwDBMl3x6nuddceKPDh/WLnIWdTQMAwoKCuDhhx8eXVJSEqapThAA3/rWt/7flClT7DoaHMcBwzB2ygW2wHZLRJDP5wOO40BRFOB5Hpqbm2H37t0X0kzoHbZt2zalo6PDni+Y7pWI+WOaJmiaZjcrwMgPnufBMAy44oorYMGCBb+jUUpORo8e3fzzn//8f/7whz8Uf+c737m/pKQERFHs0okP/RacUygQYap6eno6jBs3Dh588ME7li1bxj3wwANLBgwYoNLd/WdXQ8MwwLIshu4IQRAEkeq4urXV5s2bp4Ej9B6LnVqWlTSdV3qCruuQnp4OwWAQJEkCAABZlsHn80EsFoNrrrkGRowYQSleBNHJtGnTqn7729/eVFFR8W40HAFZlsE0TfD7/aCqKnAcB1lZWRCNRs/65D1ZwZRWhmFsgcs0TaisrPx1Q1397wuKCjWaEefPiRMnpEceeeQ1WZbt+iwMw9gCTCKQJAksywJZlkEUReB5HiKRCIwePRruvffeYmrXnvxMmDChFgBeOXDgwNJdu3ZN3Llz56SamppnW1tbIRgMQiQSsQ+sPB4PZGVlQVZWFlxwwQUPTJ48eceECRPKhgwZEvnhD39IN/NLIOGHIAiCIFwu/Hz++eeX48mYs+CmYRiuEH7w9A8jFRiGAU3TQJZlKCwshNtvv70oPz/fpGlOEP9kzpw5a5YvXw6bNmy0W7x337BjelR/Bos6Y/oIRgpUVFRAe3t7JgA00Ww4f5qamvIqKirAsizgeR5UVbXFNYz8iSe4hpmmac/faDQKPp8Prrvuun/vFBSIfkJny/U1ALDmxIkTL9fX1xeGw+FANBr1MQxj8TyvS5KkZGZmtmdmZrYPGjQoRneNIAiCIIizxbXCT319PT9xwoXz0RFHcQRxQ3FnSZIgGAxCRkYGqKpqp3qZpglf//rXfzRu3Lh6muIE0ZURI0a0vf/++1/ZuH7DPziOA57nIRqNQlpaGui6DtFoFLxeb78XhrGuD8/ztvDNcRw0NjbC0aNHS0j46Rn79u0b097eDoIgdEkddKbixBtd1+3ubXgIcNlll8HXvva1jx544AEapH5KcXGxAgDVdCd6Bh6OUcQPQRAEQbi4xs+6desuxYKb6BBj7QOe5/v9pg43cShsYccyAIDx48fD7bff/iZNb4I4NTfccMNn06ZNeysWi9nCcGctCNte9Hec4gPaCAAAVVXtNFji/Fm7du1snDt4kIBRYjwf/zMVZzQXdoMqKSmBm2++eeqQIUMiNEJEKnOqaG+CIAiCSGVcK/xs2rRpOsdxdhi8MwQfT/n7O7IsQ1paml2PhGEYEAQB5s+ff8/oMaWNNL0J4su5/fbb3/R4PKBpGvj9fohGo6DrOng8HpBlud9fX/fOZRiVYpomrFu37lKaAT1j27ZtU1DoQQEIBfhEdI3D2k0YZcTzPEyePPmx+fPnb6PRIYh/2j2K+CEIgiAIFws/Bw8eHIGLPsMwYBgGaJpmf+2GUyC8DhS2WJaFkSNHwhVXXPEpTW2COD2XX37559OmTQMUiJ21stwQ8eNMOereJQjtI3F+lJWVDQiFQnOd9xnXFowei/vi3VmTCudufn4+zJkzZw2NDkH80wYSBEEQBHESV9b4OXToUOY3v/nN/3Bu5gzDAMMw7Hbn4AjL7694PB4IhUKQmZkJsVgMOI6DiRMn/nTqtIuraGoTxOkpKh6g/P63v7tpx44d7waDQQgEAqAoCrS3t4Pf7+/31+eMdHR+z7IsxGKxyeXl5UXjx4+vo5lw7uzZs2ecIAh2ZJiz1TZGkcV704niEqbxFRUV/e5rX/vaRhodgvgnJP4QBEH0HZWVldktLS05bW1tWaFQKF1RFElRFKnTL7UEQdACgUA4IyMjmJ6eHvJ6vTFqThE/XCn8bNu2bUpHR0eXhZ9lWRBFEcAFgg+iGTp4fF5QNBUESYT8/Hy47obr33/hf16kmU0QZ8Ell136xYgPRsLu3btB1TUwLBMkrwcYjgXL6N91wLoXGMbIFNwIrVmzZg4AvEWz4NzZtGnTdFVVu0SGYeqVqqqJsf+aBpIk2d0c77vvvlffe+89GhwiaUCbg8Io1ljUNC3ufpiu6/Z7CoKg0WgQBEGcBGsTMgwDkiT1KCW2qamJCYVC6fX19YUVFRWllZWVI/fu3Tu2sbExv62tLWv+/PnTMEIZM1XOVG5lxIgRm3Jzc5uLi4tPjBw5snLixIm7Ro4cWZmTk9NCHS17hiuFn6amprxQKJQSTpUkSXaNn9LSUigtLa2gaU0QZ8fYsWMbFi1a9KO9e/c+K8syiKJoRwS6nYqKilKaAefHsWPHBvf1ZxAEAWKxGPj9figuLoYJEyaU0cgQSbSxMJ2F8g3DsIXnRBy+iaIIsiwDx3HQebrcQaNCEARxUhhnWRY4jrMFoHMRfsrKygbU1tYOqKioKF28ePGbVVVV0NDQYEdBo8CPIg+K/907bH8ZsixPb2pqgqamJti2bRssXboUMjMz4YILLoBHHnnkxzNnztwwcODAmosuuoi6X54jrhR+qqurh8RiMRA43vUDiKe+sVgMrr322qvy8vIorpkgzoHZs2ev/ctf/gKKotgn1Kqqut5+VFVVDaPRP3cqKiry7r777rv6+nOgE6WqKlxxxRXfJ9ufvNTV1Qnbt2+/KBKJ+KEzvN00zbgXEtM0TfD7/ZGcnJyWWbNm7e2LOYriCzr7mqaBKIpx76wqyzIwDAOxWAxWrFjRtGTJknmWZTEMw1gsy5o9vf+GYXCZmZntgwYNOk5pCUQC1+2McDgcwFSZeMFxnGGaJqtpmsDzvC4IgiZJkjJmzJikaRyzb9++/I6OjjQ4mfLMMgxj8Tyv4/c9+d0sy57WQE2ZMuVov978d3a3RnGmMzLztNdcWVmZvWXLlovLysomPPLII79oamqC1tZWu2kSNlPieR4URbGFJcuyQNf1Ls2WzpSC6/P5ADoFqk57C01NTdDW1gb79u375bJly2DcuHHwxBNP3D9lypRtV1999RayDmc59m67oJqaGs8Pf/jDp92SznU6cIMaCAQgJycH5s6du5qmNEGcG5MnT94xevRo2LhxI2iaBjzPp4TwEwwGbzl06NC9w4cPb6dZcPYcPXq0JFm6vkmSBB6PB2bPnr328ccfp8FJUp/kd7/7XeyTTz6BSCRiO9wJEH3AMAzwer2QlZUFb7zxxrV33HHH8kRd98aNG2fgHO3e9S5RdXckSYJwOAxvv/02WJa1Stf1LhuUnoAn2YMHD4bVq1dPmjt37i6a7UQ8efPNN69+7LHHlh89ejTuUXP4nHIcZz+7Xq8XHnvssQfvueee3/dluk11dbV/0aJFz9x///0PKIpi21RMK8Volp4+36fjySefvPf666//oLS0tKm/Cj+YcovizJeJZTt37hz09ttvf/Oee+55JhgMQmtrq23XMVUMxRnDMEDXdRAEwZ5H2PRCEARb9DlTAwxZloHneTuFHu21YRjQ0dEBXq8XysvLYefOnb9555134D/+4z+evemmm9696qqrtpKlSDHhp6mpKa++vv7kRO7nNTrOBkEQIBqNwtVXX/10YWGhTlOaIM6NvLw865VXXrnliy++WIqLC9YDczMdHR2wd+/esQCwnmbB2VNVVTUsHA73+efgOA4Mw4Dx48fDsGHDqKB/kvLJJ59cuWzZMmhubgaPxwMcx9nNGBIhfNTV1UFTUxMsWbLkb1VVVZnDhg0L9uZ7NDQ0cC0tLTkHDhwYtWvXrok7duyYXFlZOfLpp5+eGQwG7fRZlmWB53nweDz2CXA8wdpXpmlCU1OT/bzwPG+fSPcEURQhFotBa2srLF269BYAIOGHiBsHDhzIue+++5ZXVVUlJGIOu1Pi82uaJkSjUTh+/PiLnevN3/rqXrzwwgsPbd++/YFYLAY8z4MoinZtPUEQeqWr5pmEn7feeuu3ubm5zQDwfn+cT9Fo1I7OsSwLVFUFjJaCk+nsvtWrV8/94IMPrr/++uvvMAwDPB6PXS83Go0Cz/N2XUMUgQRBAJ7n7YhLvI8sy9qdSHE9OJMwhf9H0zRbzJMkCURRhFAoBF6vF3ieB8Mw4IsvvvjRmjVrfnTLLbe8cvvtt795zTXXbCarkSLCT0NDQ0Fra+vJSejywTNNEziOA0EQYO7cuat///vf04wmiPNg9uzZa9GZwlQEtwvHsVgMjhw5MpSEn3Ojrq6uKFEFnM/kmFqWBRdeeOHdAwcOlGlkkpMTJ04UB4NBO3Qd506iiht7vV5gWRba2tqgMy2iR8LPwYMHs2prawccPXq05OjRoyU/+MEPfn348GFoaWmxQ/4ty4KOjg4IBAL2KTwKMei79DTi5mw2rphqgCfOeNLcG3WGFEUBj8cDuq5DTU3NQJrpRDzp6OhIO3z4MJimCc6OkvHCMAzbHzIMAwKBAEiSBMFgEA4cODCqL4Wfw4cPX4D7HxSo0PZAp+jbU2HsTPZJVVWora0d0F/nEwrwzm6ksixvLC8vH1BWVjbhrrvu+ntNTQ2oqgoejwdisZgdhYP1MNGeOpsnGYYBsizb9hf/j2madroX/syZwDkuCII9toZhgKqqkJOTA7FYDBRFAVmWwbIsEAQBysrKvrdo0aLv/fznP//eddddt2zcuHH1ZD1cLvycOHGiOBQKnRRFGNb1A2hZFowcORLGjh27l6YzQZwfpaWlTfPmzVtSVlZ2K8MwJxcml0vHqqpCQ0NDAY3+udHU1JR3Njnq8UbXdcjOzoaRI0dW0qgkL6ZpsjzPg67r9km0x+PplVPp0yFJEiiKAoIggGmaWAvQe66/5/jx496DBw+O2LNnz7jq6uohjz766FPHjx+H5uZmOxIAOoUs7NRiWRb4/X7QNA1UVQVJkuxNGob8x1s8RWEGcZ4yOzeJ5+08d15rZ1oDdQ0j4m3veY7j7KLl8RZOMcUGn6VQKAQcx4HH4wGGYfp08eusP4T2FfC+oO/WG8/32QhH0WjU15/3jhh1ibXYVq5cCX/5y19qt27dats2jLbBdQQAICMjw7bfmL6rKIo9ZyRJsg8e0E/CPzG17Ez3F/8frhlYgFoQBBBFEVpaWiAzM9Ne59Anwyiw119//ZWDBw++smzZssuvu+66L8iCuFj4aWpqykuEUUwG0NEaOXLks2PHjm2g6UwQ58/06dM37d69+1av1wvRaBRYl9f4kWUZWltbn2tsbHwhPz/fpBlwZiorK7MXLVq0uK9FH3TMCwoKYMiQIdTVIonpLDgKGCqPJ5ZYAyGejj3WvsD3P5cN24svvvjt8vLy8XfeeeePw+EwtLe32ye5+Lvx92M9EHTOGYaxNxV+vx83SfbPqqoa94gnPNE2DMOuQYEbEdxQ9HAjDrIsg9/vP2NRVILoKdglDwXkns7fs1lfsBOf3++3ozZ4nsfIwb4ULRiMIsRIEnBEEiaijpooiv36uUdbKAgCaJoGkUgE1q9fb4tAnXOuyzqFaWHdI3qce1K07873wKhPcNSOOtMeHdcLrPMDjkgubGoUiUTs98X54Izw/Oyzz+DgwYOfv/rqqzffd99975IV6bQlbrqY+vp6vqqq6jU0Vm4HH6qZM2duoKlMED3j6quvXoFhrPHelCUDPM/D8ePHobGxMZ9G/+xoaWnJaW9vj7vTfTYIggCDBw+GQYMGHaeRSV5M02RxQ4KnoHjiGc8XRhRZlmV3bjnbdr3f+973nnjppZf+vHbt2h8fPnwYGhsbQVVVe947T9bRiXemdOH/wWvWdR1EUexSrDMR/hFuXjDFzPnePb2/WG+iM32h3/nSmqZ1KYabDFGMvYlhGBwKjPj8oRgQ72i7eIkd+GzhcxTvF26oVVW1RaDO1B+5r++FU0BAEQJrzjhtUrxenSlw/baLkHMdwj9VVe1S8BltAkb1oOjoLNDsFNjwe+d64BTZ0b6czf4c14vuqWHOFD88fMDPcypRqb6+Hn7xi1+8s3jx4oePHz/uBcJdwo+qqmJTU5OtAKYCOTk5MGDAAGolShA9JDMzs33gwIGuc4BPRygUglAolE6jf3ZEIhF/NBpNivnBcRwUFRX9fxStRfQm+/fvz927d+9jdCfcDda0w40cbprcEr0kiqKKdUcwCgTBelsEQbgTTK8WBAE8Hg98+OGHz7388svRo0ePBlL93rhK+JFl2XP8+HHb0LsdwzCgqKgISkpKjtJjThA9o7S0tGnMmDHPp4LtQFpaWqClpSWHRv/saGtry+ro6EiKz+LxeGD48OGHaFSI3kRRFAkjZAj34mzFjKlwoigCx3HP19XV9fuQ13A4HMDUlO7RTT3t6EYQRNLrAZCZmQnQecApyzKsXr0aXn755e+n+r1xVRGLjo6OtMbGxpQ5sWcYBgYNGvTsmDFjGukxJ4ieM3r06P0ff/zxydB3lxd3ZhgGwuEwCT/nQEtLS068u6mcLYFAgNq4E3HB66WIeLdjGIZdnBvTKFRVhY0bN0IwGFQffPDBfh319eKLL/58//79dudbTEuEzpSTVDrgIYhUA4s+m6Zpp421trbCihUrnnr88cc7Hn/88V+n6r1xlfDT1NSUF41G7eJObjfrXq8Xhg4deoQecYLoHUpKSo76fD7o6OgAcLl2jPU3Wltbs2nkz46Wlpac3ugY0hv4/X4YPHjwMRoVojfRdZ3HYqmEuzdGWMcDRRBN0+DQoUNw6NAhYFn25/35+rAmCYqYWJgYa4EQBOFeWJYFWZbBNE1IT0+HYDBo14J64403Xv7Tn/509Dvf+c7fUvLeuOliqqurh4Cj8rfb8Xq9lOZFEL1IYWFhfXZ2auggGBlZX19fSCN/djQ3N+c6N0p9SVZW1m8GDhwo06gQvewwmxQN4X6w4Dc4WjtjJEyiigfH8+XxeMDn83W5NoxsImGTINyNoijg9XqB4zjo6OgAr9cLXq8XYrEYsCwLr7322kfLly+flpJrvJsu5siRI0OxvVwqOC5er5da+RJEL5Kbm9ucn5+fEvYDBfLa2tpf1NfX8zT6p+fEiRNSa2vrf4OjO0VfUlxcfIJGhYiDXbDoLqSA899NBBEEASRJAtM0QZZlu5tPf31Fo1H7AFgQBLvNNLawJgjCvYiiCLFYzC7qjv5uNBoFQRCgtrYW3nnnnU379+/PTbV74ypnv6GhoQBPsVmWBTDd7b94vV4oKChooEecIHoHv98fycjISJUNHhiGAa2traCqqggAdAx6GgzD4MLhcNLUjysqKqqjUSHiYBcsiohwP5j6hOII+s3YIrm/R82j2IPtqXHNS6WunQSRqui6DhzHga7rIIoiWJZlF3xWFAVYloXPP/8cJk6ceBUA/DmV7o2rIn6qDh4awbMcmLoBmqK6fvAyMjL+b9SoUS30iBNE7zB06NCO/Pz8x1IhVRQXv/r6elAURaLRP+NGia2vrweO4xK6KcLNirMdsWVZMHbs2L00KkRvY1kWQ6le7geFf4yQwZo4+H1/T/XC68C0NYxwwrb1BEG4274xDAMcx9n2TRRFUFW1i514880331yxYsXFqXRvXBXx09bWloWG3jAM1w9eVlZWGz3eBNG7+P3+iCiKoKvubmmMhS6j0Shomkax72dA0zQB2wBjSnEicYpNlmVBRkZGsK/uxdGjRwOHDx++oD+PpyRJiqZpgmmaLMMwFsdxBsdxRkZGRnDcuHH1NOMJgiAIwp0oigLhcBiWLFlyKwBsSZXrdpXw09LSkuOs3O92KNSfIHqf7OzsVkmSXC/8YPfDjo4OiEQifhr5MzoJUiQSse9dItJhnCfvpmnatacsy+qzNN+VK1dOffrpp7eUl5f36/HUNM2OpEJ/QZIkKCkpgQ0bNoyaOXNmJc16giAIgnAXhmGAKIqgKAqsX7/+oeXLly+95pprNqfCtbtG+GlubGJHjx49FsO6UiFUmYQfguh9cnNzm0VRhIjLrxPtpKqq0NLSkgMAR2j0v5xoNOrD9LhEHSw438d5qMHz/JZhw4YlPOKnoaGBe/7557d8/PHHdupEv3V+OlPnTNPskvJy7NgxSE9PvxUAnqBZTxAEQRDu83+x9o9hGLBkyZJNx48f9w0aNCjm9mt3jfBTX19fiAXc8CTW7eJPbm5uMz2+BNG7ZGVltaEtcTOGYQDHccAwDLV0PwvC4XDANE1gWTZhqcRYqwLXMoz88fl8feKcRKNRX0NDgyvWV03TgGVZUFUVBEGwa4HIsgzl5eXjacYTBEEQhPvAtR8L2e/atQs+++yzWQDwd7dfu2uEn7q6uiJMXUDn3O30ZY0HgnDzc5UKwo9pmsBxHLAsCw0NDQU08qeno6MjDYWYRK0xX9aBJj09PdQX94DjOENRlC5pZ/0V7GIkCIIt+DAMAx6PB1iWNWnGEwRBEIQ7cfpX4XAY1q1bt7Kurk4sKipydZ0H1wg/ra2t2XiCh11X3B7x01fOP0G4mUAgEE4F4ccpYrS3t2fSyJ+ejo6ONOiWfhVvWJa1O+04U8z6yvZrmibwPA9erxf6e8tv0zRB0zS7848kSXYkl2maLM14giAIgnAfuO7jIZ6u67Bnzx7YvXv3hQCwzc3X7hrnBusvgCN33+14PB6ZHl+C6F1EUVRTQfhBIUHXdZBl2UMjf3rwHiVS+HGeSDkLO3u93j5J9cJW36qq2jVx+utLkiT7oMgwDDuCqzMF0qAZTxAEQRDu9H81TbMbdbAsC8eOHYODBw9ubWpqcnXUiGuEn/r6+kKfzwcsy4KiKClR3DkQCITp8SWI3oXneV0URddfJ9aOYVmWavycBW1tbVkowiRK/ME6TOBo525ZFmRnZ7f2xT0QBEFziiT9GfQT8BnQdd0W2gzD4FJ1nkuSpOB9wehp7IDGMIydTo/ff9nLsiwQBMGOVhNF0Y6wSoR95XkeNE2zDwKdzxHWc+rJi2VZ+5lUFEUiC0kQRH8SPtAeoj1Du4g46+aiHcefcfqPaO/RL0LbiBHlGEnrtJ/OiFvnoVaifAtchzBy2TAM8Hg88N5770EsFvO6eo/jlgvBhRfDtlJB+CEIIi4LApPIqI5kEH9UVRVp5E+PM/0nEetL9+6U6FgxDAOCIGg0IkQ80DRNYBgGdF0HQRCAZVl7U+BMoT+TjewupqEI4xRM4uwTdkn7NwwDDMOwv+4NG4/XQtHXBEH0M38GOI6zBXL8Hjtjg6NRkiiKYJomyLIMHMeBz+cDTdNsO4rrQ+f6AYqigNfrte0t/hsKPvj3giAAdIouTjE9UTUUUZASBMEWooLBIOzZs2ccAGxx69i7RvgJh8MBZ9HNLyuK6bYNKpkvguj9DX4qCD9oI1mWhUgk4qeRPz26rvOJPFDofhKGr87oCZVGhIgHqqqKzrS37iINpsedqcYTbgpEUQSGYeywejwJjrtzy/P253R2x8NT7Z7WqMJNTKpHiBEE0S/3j7YYzzCMHf2i67pt11Ds13UdRFEESZJAVVUIBoPg9Xrt5iBYI8/n84HP5wNJkiAYDEJra6stwKuqCrquA8/zwPO8nV5tWZa9LuBa44zEief1g+MQD1O+Q6EQrFmzZg4JP/2AcDgcwDa7qSD6ABWgJIi4PVepFPHDsiyEQqF0GvnTo2ma4Nz0JWJsoFtkBQk/RLzhOM7QNA0kSeqSXohfn+3cx1QxZ0qA83fFu44abmxwE4OCVW/5h3g63iki8TRzCILoL6A9RhEcIyIFQbBtMwpClmVBJBIBXdchJycHhg8fDnPmzIHCwkIYMmQIFBQU2OsFpoV5vV6IxWIQDAZh//798I9//AP27t0LwWAQZFkGj8fTJYXMmYKLqcXxXh9wLUBBShAEUBQFNm7cOMPNY++axSoajfowdxAcKV9uhk6ZCCI+z1UiUhGSAdwAYccq4stRVVV0Rg4kAmfuvHPDyvO8TiNCxAOPxyNj4Us8SMONAM4/DJE/09wVBAE0TbOLZ6KTfzY/3xuYpml/Budn7406VRhJZJom5OfnN9LMIQiiv4C2C1NhJemfZcqwUZLX6wWPxwOFhYVwySWXfG/evHmrpk+ffmjfvn3w8ccfn9f7vvPOO1d8+OGHa3bv3g2yLIMgCHYqGYo/ifCxnBpBZ9SmHcHU0NDwtV27dg2cOHFijRvH3lVdvRLpkCcDdMpEEHFZEFIm4gehVK8zk+iIH+dBRvciigQRL0pLS5tmzZr1IHY9c85FDOtHB/l0L0EQQFXVLjUXUSxJRNdEdOY1TQNRFO3PcabPfbYvXdfB4/FAdnY2XHbZZV/QzCEIoh/5uXb6ldfrtaN6FEWBtLQ0KC0thW984xs/euaZZ6b+8Y9/FB977LFXp0+ffqin73vzzTd/+otf/MJzww03fH/48OGg6zpEo1Hged6OPMLaP4lYI6AzehMjf3Ct2rBhw0y3jr1rhINYLOZ1niKlggBEwg9BxGVBTCnhx7Isaud+lvY2kcJLd+EHc9A7U1eovhsRN7797W+/lZOT0xIMBjMURfk1y7IPddpFhmEYC84i1TwYDD776aefdikIDd1C7OMJ1hby+XxwxRVXgN/vX2hZFsNxnAG9EDFtmiabn5/fmJ+f33jVVVetvPvuu2niEATRX/zcLsWVFUWBvLw8GDt2LEyaNOnO+fPn/33cuHH1zzzzTK+/d3FxsQIAv3777bcrly5d+vHWrVvtAwVwHBDEExTwnalmGAXFsizs2LFjMgC848axd41woGmagKFaeKrj9s0b1fghiLgIIUyqCT8kIp+bvU3ExrW749Ot0DMJP0TcGDVqVAsAvAUA0NTU9EpeXt45T/atW7e+v3fv3sM1NTVgGAaIomi3d08EqqoCwzCQm5sLt9122wVTp049QiNLEARxUvjxer0QjUYBAGDkyJFw00033Thnzpw1w4cPb1+4cGHcP8M3v/nNT/72t7/NaG9v31hXVwfQGX2jKIrdCSxeYNQqFrOGzu5eiqKApmlQXV09xK1j7xrhQNd13hkKn6gc8r4kHA4HyHwRRO8SjUZ9mub+btnYTaGzwB4JCWdAFEU1keuK8zSKYRhQVdV2VpxpZwQRT85H9AEAyMzMbMfOLOhgO7vTJcK+sSwLiqJAZmZmO40kQRDESTiOs7t6sSwLU6ZMgQULFrw/fPjwhNrKa6+9dtNPf/rTiVhEGruJJWJ9cDaDwqLSGAkUCoVu/fDDD12Z7uWqiJFEF97sa6ggK0H0PrIse+LdSjJZSLW6aD1cX6xEpnqdapOM40XRngRBEARB9HfmzJmz+7rrrnvQ4/GAoihJ0ZhJURRobGzMd+P9do3zyDCMlQrpXU5aW1uzyWQQRO8SiUT8qST8uL37YW/BcZzhTLdK1Pg4XxhxRKl5BEEQBEG4gZtuuund4cOHY0Rzn38eWZbh+PHjg9x4r13j8bMsa6ZaxxOK+CGI3icSifhTwY6gmNCZSkStos6AIAhaIg8XThXxgwUIqRg3QRAEQRBuYMKECbVz5sy5IysrC5Lh4FXXdaivry904712jfCDnRoghdIXqMYPQfQ+qSL8OG2l034Sp0aSJMV53xI1Ns7OXvi+JPoTBEEQBOEWrrjiik8HDRqUsHbuZyIUCv3nwYMHs9x2n10j/PA8r+NpaKoIP8FgMINMBUH0Lh0dHWmpUBzeKV7wPK/TyJ8eSZKURLWihi8RfvBrsv0EQRAEQbiFiRMn1owZM+bHPp8vKT5PKBSCtrY2En6SFZ7ndUxbSJXT+qampjwyFQTR68Y+XZbllLhWFDEo4ufMiKKo4tqSqDXG2akShR/LsiAUCqXTiBAEQRAE4RamT5++ye/39/nnME0TgsGgKzNrXFXjx3kaSxE/BEGcD7FYzKuqquuv0ylisCxr0sifHhTHErm2dI/4wULcsVjMSyNCEARBEIRbGD9+fHkg0Pdai2maEA6HQVVV0W332DXCj8fjkTE9I1WifqLR6Ddra2tFMhUE0Ts0NTUxjY2NT6VCpyuO44BlWTBNE/x+f4RG//QUFBQ08DwPLMuCKMbf7LIsC7qugzOFGTqFur6K+HEWATdNs0cvjuPs4tV4fRi1S53mCCLuz7JtZ0zT7LIuuMV/RtvitKEYRUkQRPIxfPjw9okTJz7qiEYHZzdVhmESUgOIYRjo6OhwZWcv17SEFQRBS7WuXrquQ3t7eyYANJK5IIieE4vFvLFYDDiOAzBTo7NX50Kq0eifHq/XGzMMo0tb9T5k6rFjx3yDBw+OJvJNDcPgOI6zhZuegD+P99MwDHsTmipRuwTRVzj9ZXwWDcOAnJwcGDhwoCuu8dChQxCJRLoccui63iWSkiCI5GL48OGH0B84VXq9U6iOt310Y8SPa4Qfn88XxUmSKhE/sixjuzkSfgiiF+jo6EgLBoOdTmJqlL1hGAZ8Pl+URv/0BAKBsGEYSZNO3NDQUAAARxL5nqZpsoIg/EuUwPkQiUSwo9y/RPmk0gEOQfSV3YdOsQfFVlEU4aKLLoJbbrllQkFBQUN/vr5jx441vPbaa7Br1y7Qdd0WtzBiIBlaRhME8a9Mnjx5R/dGGk6fK5HCjxtr/LhG+ElLS+twnhamArFYDJ1/giB6gWAwmNHe3p4y14tCeXp6eohG//QEAoFw95DjvqSurq4o0cKPIAiaLMsQi8XA6+1ZmSFJkmwHDg9run9PEER80DStyyYH7VpOTs4PZ8+eXd7fr6+urk70eDwqivX4Mk0TUqFrJ0H0V2bMmHFwxIgRmyzLmt49TTORfoFbG2m4JpE+MzOzHVLspFCWZWhsbMwnM0EQvUNra2t2R0dHQk4U+hqnrUT7SXw5Xq835vV6kyZN4MSJE8V98b6GYUBaWppdk+d8X7qu23MQnzfnBpQgiPiBtTNwQ8XzPFiWBYqiSG64Pk3TBOzOKQiCLSyTbSGI5Cc7O7v1bHzXeBMKhX7V2NjoqqKDrhN+nIXc3I6iKBTxQxC9SH19fWEkEkkZ5xAdfxJ+zowoimp6enrSFAetrq4e0hf3IBAIQDTa88xA3GyyLGvX+EFSQXgliL62/Wj/nZF2PM+7IgeK4zgD7QsWlMdrpPo+BJHcFBcXn3BGVie64QPai3A4DLqu8266t64RftLS0jq65wS6HU3TSPghiF6krq6uSJbllOgq5Ox4kpaW1kGjf3oEQdCysrJ6pb5Nb9AXwk9hYaF+8cUX3zhgwIAeR/xYlgWapoGmacCyLGDRaNM0ged5mnAEEWf/EYu047PXWe/HFYufYRicU/TBOmIMw3RJcyMIIvnoa+EHdYRYLAaGYXBuureu8a4kSVKcOYCpIACZpgnBYPDHR44c+e+hQ4fSxo0gekhra2u2rusgCAIYRmpEHViWBZIkKTT6Z1gseV73+/1dnIK+pLm5Obcv3nfBggXvr1ixYtqWLVsu7snvYVnW1DRNYBjGEgRBa21tfWXfvn1w5MgRUFWVWroTRHx9ZtB1vUv6E8MwwLKsKxY+QRA0j8cDHMcBdmPsvD6yLQSR5HRP9cJDykQ9u2gvOlPSXRUi6BrhJ7+woN6wTABgAFgGdNMAFtwdzslxHNTW1mKRTxJ+CKIH1Bw77rvrrrv+2+/1gSzLPW5X3Q+EDDAMA3ieh9zc3GaaAadHFEW1uLgYtm3bBqIo9nmB0EgkcuvmzZsfnTZtWlWi3/vqq6/eAgBbevN31tfXv7Z48WKtsrKSUjEIIs6gGMJxnCu74VqWxSiKYkc1OUtAkH0hiORm4MCBNWiPsCtfIptroEhMqV5JTE5OTguGi+Mi5nZ0XYfm5uY+O/klCDcRDocDtbW1oChKSjiGeHpimuZpC+kRJ8nLy7MyMjJ+wDBMUnSFiUajKPoTBEEQBEG4AkmSFMzc6e6PJ8I/d3OjCdeoI+PHj6/jeX5vstRfSAQcx0EwGOyz7i4E4Sbq6uqKWlpaThrGFBCOnSegRUVFdTQDzkxBQUEDnh73NbFYDI4ePVpCo0IQBEEQhFvw+/0RZ+mWREb7gKPxSefLVSfBrtrdeL3emBtDVr8MbL9ZVVU1jMwEQfSMPXv2jMPCsqlSIN6yLBAEAXJyclpoBpyZ/Pz8RlEUkyIizLIsOHLkyFAaFYIgCIIg3ILf7484I376QvgBivhJfrKystoMw7DTvdwOnjrv37//6ZqaGg+ZCoI4fzZv3jwNOmsfpELUILbxTU9PB6/XG6MZcGays7Nb09LSkqL+k2VZcPTo0ScqKiryaGQIgiAIgnADoiiqp9rHJ0r4cTOuEn4GDBhQm8iq330NdmOorq6G2traATSdCeL82bdv3xhsaZsKNgQXz9zcXBAEgfrbngVZWVlt2dnZSeF4aJoGDQ0NUFNTM5BGhiAIgiAIN8CyrOnsNpjoYA7ne7vu3rrpYgYOHFiDg5QKGze8xra2NtizZ884MhUEcX7s2La9pKGhYQ50plC6vaMXLmwsy5Lwcw5kZma25+TkJEVEKcMw0N7eDocOHRpOI0MQBEEQhEv8U8ZZh9IZhZ8I/8uZYsYwjKtSiFyljmRnZ7dicedUEn4URYGKiopSMhUEcX5UVlaOjEajAJ3Cj67rKXHdLMtCWloa8Dyv0yw4M36/PxIIBJIiFVAURejo6ICqqqp3mpqaKPaZIAiCIIh+j2marDOtiyJ+etHvd9PFjB07dq+qqilT3BnVUMuy4JNPPrmSTAVBnB8ffvjhvwmCABzHga7rKZFDzLIsqKoKw4YN+35RURFF/JwFBQUFRnFx8feSISLMNE0QRRHWrFkDHR0daTQ6BEEQBEH0dzRNEyzLsqPvBUEA6DzwSsTBG3b0kiTJdRHxrhJ+cnJyWkRRtAcsFcAHo7Gx8Yo9e/YUkrkgiHPjUOXB7Nra2vsxygdToFIBSZIgKyurjWbB2TNgwIBar9fb559D13XgeR5CoRCsX7/+EhoZgiAIgiBcsLdlMIjDuadP1N7ezWVjXHVFhYWF9enp6Xa3GreDRWg1TQNN02DVqlXzyFwQxLlRVlY2ob6+HpyLTCoIP5Zlgc/ng8LCwnqaBWfPyJEjK/1+f59/DmdU2vLly6+hkSEIgiAIwgX7Ww4zWkzTtPf0iQrsQP9KEASq8ZPMZGRkBPPyUqezrbPSuSAIsGHDhplkLgji3Ni5c+ekcDgMHMfZ6ZOp0i7S5/NBbm5uM82Cs2fo0KFH0tPTk+KzmKYJHMfBvn377j948GAWjQ5BEARBEP0ZRVEk3ON2j/hJhPCDB8GSJAHLsq6KJHGV8OPxeOSioqKUKe7M8zxomgYejwd0XYeqqqp7169fP4pMBkGcHYcqD2bv2LHjV5qm2UJqqtQIAwBIS0uDzMzMdpoJZ8/AgQPlAQMGPNfXnwNFylgsBrIsw3vvvXcjjQ5BEARBEP2ZaDTqw6+dB7GJ9s09Hg9wHGe46d66Sh0pKirSiouLfwYAKdGOGQUufBAaGhpg27ZtU8hkEMTZsXfv3rFHjx4F5wJjmmZKdPViGAZyc3MhIyMjSDPh3JgwYUJZX38GZ4Saruuwdu3a3x84cCCHRocgCIIgiP5KOBwOYFev7oEciYzI93q9PysoKCDhJ5kZNGjQcUEQUqLGDzr/mqYBy7IgyzLs2LHjraNHjwbIbBDEmdm0adP0YDBoC6gMw4BhGCkR8cMwDBQWFj41fPhwivg5R2bMmLExGcbPsiwQRREMw4Da2lpYvXr1XBodgiAIgiD6K5FIxI9+uFP4SVQNTnxvSZIUt91b1wk/eXl5TaIopsSJPc/zdo0HRVFAkiTYvXs3VFdXDyGzQRCn5+CBypzt27f/UpZl29A7C7q5HYZhIDs7u5Vmwrkzffr0QwCwtS8/A6YnGoYBoihCJBKBLVu2LNm/f38ujRBBEARBEP0RRVEkZ8SPM8onERE/+N5ua+UObhR+Bg8efCw3Nzc1irOaFliGCYwF4Pf6IBzqgPraOlj3+ReXk9kgiNOzadOm6Xv37gWe50FV1S41flRVdYeJME0wDMOOgES7aJomZGRkwOjRo/fTTDg/Zs+evdbZBQ7vs2VZCUk1RsdEkiRQFAVYloXt27fDsmXLrqPRIQgilTFNkzUM45S1+1Klhl9P1xdnxEW3qAuG7hART2pqagbyPA+WZUE0GrV9KmdTo3jCcZxrD0ddJ/zk5uY25+TkgCiKrn8wVFWFQCBgPxiBQAAURYEvvvjilePVx/xkOgjiy/nwww//LRaLAXRGzyGnyinuz5xKBGcYBkRRpFbuPeDiiy/eIoqiPVd4nrdrRCUCSZJA13VQFMVe75qbm2HLli2/37ZtWwmNEEEQBEEQ/Y1QKJQOjtSuRIu16Md5vd6Y2+6ta4WfVEj1MgwDdF0H0zTtQs8cx0FZWRmsW7fuUjIdBHFqtm/fPmTz5s33CIIAhnGybhuGk7pJ+EHRB/90Lp5+vx8uuOCCwzQbzo+LLrpoe1pamh1VBY4WoIlwUgzDAJZl7SgjlmWB53nYvXs3/N///d+/0wgRBEEQBNHfaGpqykOfFSN/IIGFnXFPnZ6eHnLbvXWd8DNgwAB1wIABP0mFUE6/3w/RaBR4nodAIADhcBh4ngdZluFPf/rTd8h0EMSpee+9926UZRk8Hg9YlmWr+4lM1Yk3p1soOzt6vTlixIg2mg3nx6BBg46PGDHCnjPYYQvTvuKNpmkgCILd1QsAIC0tDaLRKKxevfqpjz76aAaNEkEQBEEQ/Qmn8JPIAzWnjywIAgk//YURI0Yc9PtTI9MJHwanIurxeGDz5s23rl69eiKZD4LoyubNm4etXbv2OcMw7NoomDeMdVrcVCMMo5i6/92wYcOqaDacPwUFBcaMGTO+JYpil7xzjMKJN9i9Emv96LoOKGZ2dHTACy+8sGHjxo0jaKQIgiAIgugvOFO9utf1SYQAxDAM+P1+SEtL63DbvXWl8DN8+PBDgYD7O5qHw2Hwer2gaRooigJ+vx90XQfDMEAQBAr3J4hTsGrVqnm1tbXAMAyoqmrXZgFHQTdNc0chfxR9TiVkXXTRRdtpNvSMCy+8cHd2drYt9KCT4qwZFU90XQeGYewINU3TQBRFME0Tqqqq4PXXX688ePBgFo0UQRAEQRDJzo4dOwbrun4xdCvmnMji7AzDQHp6Ogk//YXhw4cfyszMdP3DgTUdsK07PhCqqoIkSbB58+YfL1u27DIyIwRxks2bNw9bvXr1q4qiAM/zXYrGOTfsiUjV6QtQmGAYBi6++OItNCN6RklJydHS0tIuXU8wNDlRY8lxnP21KIp25JokSfDFF1/Aa6+91lpXVyfQaBEEQRAEkczs3bt3rNM3NwzDzm5JVLqXZVmQkZEBgUAg7DrtwI2TZujQoR3Z2dl/cPvDIQgChMNhEAQBeJ6HWCwGPp8PvF4vGIYBJ06cgBUrVnxOTj9BnGTt2rWzy8vLwTAMwFavKPI4i6W7vasXAOwrLS1tohnRM4YMGRIZP378d7xerx0thnMr3qBw6ZzDLMuCruv2GmAYBqxcuRL+53/+5wc0WgRBEARBJDPV1dVDnO3bu6fOJ0L8MU0TvF4veDwe2W33l3XrxLn00kvXOScMx3G2c2xZlmtSOURRBE3TwDAMEEURVFW165T4fD749NNPYcOGDTPJlBCpzoYNG0YuXbr0NXC0bMeNMzjSopypX/0dZ7FhjAoxDAPmzp27mmZE7zBv3rxVaWlptpCIdXfiDY6paZp2qhfWp8IUMJZlIRgMwjvvvPPsww8/vLi6utqfxHPV0nW9T1q3Er0Px3GGaZogCAJwHAeCINg2KBE1sJy12yzLYmhEUgvLshhFUWxb4pxz/XV9x7U8Ec8PNrnQNM3eM+F9w8K7RP8FfYXunV+TgR07dkx2+lEcx9ldq/E5SAQ5OTk/Gzp0KKV69RcmTpy4y7IsEEWxywksGk2v1+v6B1uWZYhGo/D222//49ixYz4ydUQq8/rrr3/3+PHjdmSG23FGn6AIgM7c5MmTd9CM6B0mTJhQO3PmzEdxkyGKYtJ8tlgsBpIkgWEYsHz58qdeeOGF8ObNm4cl433UdZ3HueqGrnq0sTBZZ3h+osU8fE9VVUHTNIp6Jvo1iRYvnXUPcdONz1R7e3uf1tJgGIZOBnq6+XcceiYTe/bsKWxtbb27rz+HIAiurO8DbhZ+5s2bt5NhmApUDbHzFcdxCVHLkwGe58EwDFi3bh389a9//TqZOiJV+fvf/z5l7dq1P3JuCFLEWewSGaLrOgiCABdeeOFumhW9xze+8Y2/oDOVLHNLlmU7ygIAIBKJwPLly+FXv/rVoaVLl85JQkfUxM/rlojcVMY0TRaje/DVfVMZ742NaZogyzLwPK/TiBD9GYZhLIzSSFRxW6dAgMIPAEBDQ0NBX94LwzDoZKAX7GMyUlZWNqGlpSUp9s85OTktrhx7N0/s0aNH7zcMo0vqBhZDTgXHEkP+eZ6H3/zmN2/X1taKQBApRk1Njed///d/t4bDYfB4PHa6gdtxFq1GZ5FhGCgqKoLi4uITNDN6j1mzZu2dPHnyn3CDmwxOld/vB0VRQNM08Hg8IIoiyLIM27Ztg+eff371s88+e2eyRYJiRK4gUIBGf8c0TRbFFxTbE5lWgDZPVVUIBoMZNCJEf4bneR2Fn0TtH5xdlJxCUFtbW592iqTUzd4d32SK/tm8efM0VVX7/HP4fD4oKSk56saxd7Xwc9VVV63EMEXobH1rmqYdCeN2dF2HQCAA0WgUmpub4ZlnnllE5o5INV5//fXvbtq0yW7TzvN8SkT8OPOjMb2N4ziYOHHiL0aVjqbCzr3MrbfeusSZUpcM9h/HHes0YOpzfX09vPzyy3+47bbbIs8///wde/bsKezrz1tUVKQJgvBcorqiEXHfWFjOiLNEg5tk0zThiy++oO6mRL9GEAQN15dE+Q/OSGF8njiOA0VRZn7yySeT++peqKpKh9i9YB9R0EuW9Xbbtm0lu3fvfiIZPovP54PRo0fvd+PYu9q7mjJlyjZRFEFRFPvUG09kU+HEn+d5iEQiIIoiiKIIK1eu/K/f/e53N5DJI1KFZcuWXbZ8+fKXY7GY7cTgKbTbwVMcfBmGAYIgwIQJE8poZvQ+l1xyyfrS0lI70rKvUVUVfD6f3ekLo2h0XQePxwM8z0NdXR288MILf/r+979f98ILL9y2du3a8U1NTX2yODY0NHCGYSzE7npEv7c/piAI/xJxmCicEY+rVq2aRyNC9HN/Xsf6cYl4jpwp8c59E762bt06tQ835VGaEb1nI9Ev6GtWr149t76+Pin8c5/P9/aYMWMaXbk2u3lSFxcXnxgwYIA9wbGLj2EYKVE80jRN0DTNjnJqb2+HDz744L1169aNJpNHuJ2qqqqMpUuXfl5fXw+apoGu62BZFmDnoFRZ1E3TtAs85+bmwqhRow7Q7Oh9SkpKwl//+te/kZWVlRQRPxkZGRCLxQAAwOv1QjQaBV3XwefzgSzLwHEcRCIR8Hg8UF1dDa+++uqb//Vf/1W2ePFi85e//OV/bNiwYeThw4fTE/FZjx075tu4caPe0NBgr9NE/4bjOEMUxX8RoBOFs3vYoUOHvrVq1apJNCpEfyaRqer4Pvhezq6gDMPAzp07f7tv3778Ptm4sqxJs6Hn9hH9FMMwoK/Tq9auXTt+9erVr+GeNQn8uaNuHXvezRM7Ly+vaeTIkXDs2DFQFKVLe09BEFxf54dhGPD5fGBZFoRCIfD7/bBz50544403Kurr64XCwkI6ViVcyx//+Mc7N2zYAB0dHXY7YUzxtCwLwOVRf860NtM0wePxQHFxMQwePPgYzY748JWvfOUfH330ESRDccJIJAKCIIBpmqCqqv21pmkgiiLoug5er9eeH9FoFGpqauDEiROwcePG//3ggw8gMzMTFixY8NSoUaMODB8+/NDgwYOPFRUV1RUUFJxzrnR1dbW/paUlp7W1NTsSifj3798/uq6urqimpmbgd7/73QWhUAhaWlrsdDSif8OyrImphokqSNvd/8EoBV3X4c9//vMO8nuI/oplWYwkSfZBbiI2x85MCQSjpvft2wfl5eXjAWBNIu/DsmXLLvvpT396N82Ino8t+sKYzteXvPXWW9+uqqpKmmycMWPG7HPr2Lta+MnJy7Vefvnlb376j7VvWyqACRaougYWA6BoKrDg7o0fYwFYnaf9kiCCHI0By7Lwtw8/gqyMzIUA8AyZP8KN/PmNN69ZuHDhCwAAktCZDm5awDEsgAUn/3T7xovngOU5W+DWDB2GjxzxM6rvEz+GDRsW/OCDD2Y9+uijnymKArIsQ3p6OsiyDKqqgt/vB5ZlQZbluEe1nCq9Bt/TWf8E/14URfv7WCwGsVgMGhsbobKy8j9XrVrV5XdfcMEFW7OystoEQdAkSVJEUVThpNgoKIoiaZomWJbF6LrOq6oqqqoqzpo162J8r1RJt0xlRFFUc3JybBEPa01h3cV4jz/WtNJ1HRiGgc2bN8PTTz+tHTx4MHvEiBFtNEJEf0KSJCUjIwOamprsqJtErB/QWScQOiND8O87OjrgrbfeWv3xxx9P+epXv7o93tf/7rvvzn733XdvWrRo0X10MNBzNE3rshZ/8skncO211/7puuuuW/bVr37144EDB8qJ+BxNTU3Miy+++OC77777Y/RPDMNIiH+EIqYzLRi74F522WVfkPDTTxk5cmRlVlYWqKpqp3vh4ILL67vqug6SJHUx3oIgQDAYhPfff//pd5e+s/WmW25eAwThItZ/sa70gQce+Fuq3wdBEEBRFHtDHwgEYPz48eU0Q+LL2LFj91522WWwcuVKyMvLg9raWvD7/eD3++1W5ZIk9feI06mtra2ndKZs56LzVBqLSDo35CT6uJ8BAwao3//+9x9nGObx7t1jEjX+qqoCppuFQiFYvXo1eDye1s8++2zcrFmz9tIoEf1oPdfS0tLs56iv04k9Hg/s3LkT/vznP2/7/PPPx15++eW9HiFRUVGRt3nz5mnr1q279Je//OUj9fX1tqBL9AwUVvBwSJZlKC8vv+PEiRN3vPPOO/DKK6/cMnXq1K1Tp049Eq/PsGPHjsEvvfRS9YoVK0BVVeB5HmKxGPj9/rhHIDlr/aImwHEcWJYFmZmZn06ePNm1kfGuF35KS0srBg8eDA0NDbbDyfN8SjzYHMeBrut2aD9O8LS0NGhtbYWXXnpp9epPVl0098p5O8gMEm5g146dg5944ol9tbW1dDMcm3GWZcHv98OUKVO20R2JL6NGjWpZu3bthI8//rgsEomA1+u1O0niaZLbHEfnXENnKhaL2d93bxebLC3vifiSm5vb7Iw8w8iBRDTYsCyry/Pm9/uho6MDli1bBvv379/zxhtvXDtlypRtY8eObaCRIpIdj8cj5+TkgGVZwHFcn6fDoqi6ceNGaG5u3vvmm29ec/vtt6/o6e89duyY7+jRoyUrVqy4+oknnnj2wIED0NzcDCzLgs/nA+g81E6Fzqzx9guxgDfHcXaKdXt7O4RCIXjppZeW5ufnw1133fXLqVOnbr3kkkvWjx8/vq633v+NN9645tlnn/1beXm5XYvQsizweDwJSTvDZifoyziLl5eWllbs3r3btWPvegVk8ODB0UcfffShbdu2vYBCSKp0DMGirhzHAc/zoGkaxGIxkCQJBEGAAwcOwMsvv7x96+Ytw6dOu7iKTCHRn6mtOeF59NFHqzds2JASNbzOBHZvwvDsoUOH/mHSpEnHaabEn9mzZ5cvXrx44R//+MfnAoEAKIpi11myLMuOxOrv8wtFHacIhJttFHucxX0x+oec9tQgLy+vCRtqODcaiajj4OxeF4lEQJIk8Pl80NHRAbt374aKioq/lZSUwMKFCxfPmDFj48yZMzcUFRWd9aLR2NjImqbJMgxjnU/NK4I4FwoKCoxHH330IdM0X0gG+ykIAnAcB7FYDCorK+HFF19cft11170+f/78v1911VUrBw8efNadtyorK7O3bds2ZcuWLRcvWLDg5y0tLRAOh0GWZTAMAzweD3DcybR19OtSoUFPXDf/jvqPTl8Z7bQsy1BTUwO1tbU/3rJlC7z55ptw/fXXv3bhhRfunjRp0s6LLrpoe3FxsXIu77lv3778VatWzfv8888vf+mll+4Jh8MQjUZBkiS7AYVhGOD3+xPmv6N/gveD53m45JJL1i9ZsoSEn/7MJZdcsn7p0qUQjUZtx5NlWQCXO5/okKPog3+nqqptTLds2QJPPvnkobJduwdNmHhhDZlDor+ycOHC59atWwemaUIsFkuZyL4vAzdYuLjPnz//73/9619poiSI7373u6+XlZU9V1FRAQzDgNfrtVOf3OC0oqMEnYcM4Iguc9aHONUmn3F5YXXiJPn5+Y1er9f2P9AWcRwX93QvFBuxXgR+Bq/Xa4uQVVVVcPjw4ac/+OADMAwDxo4d+3lxcfGJ/Pz8xoyMjCCcPBnmZFn2hMPhQHt7e2YwGMyIxWLeKVOmzGJZFgoKCuD555//zsMPP/wGjTgRZ/GnAdNR+hpFUUAQBHuPEY1GYdeuXd/dvXv3d5966imYPn368qKiorpBgwYdz8nJacEW7JFIxB8OhwPNzc25NTU1A2tqagbOmzfvEqz9BY4DBCxPgQcnGJnifJ6J8wMDINAnwXHEtRsPcHRdh2g0CpqmQVNT093bt2+37ev48eP/kZOT05Kbm9uclZXVFggEwh6PR+Z5Xu/o6EgzTZMNhULpx44dG3z8+PFBV1555XR8D/QhUNDD7zE6Ot44nyNcIwzDgKysLJg6depWN499SuyMxo0bt2fQoEFQVlb2LyHnrh5cngdd1+0HWxAEu8Ciz+ezwyU3btwIixcvPn74UFXWBcOHtZNJJPoTNceO+1555ZXv/eEPf7hflmUIBALkFHQubLIs25udK6+88hOaLYlj2LBhwffff/8rTz311D+am5vt1Fu3CD9nAkOnu29SEt3Wm+g7CgsL67OzsyEUCtnRPolKt8cNhDPSTtd1+/AL56goinYRaEVRLj98+DDs37/f9hWdG1JnzSr0r44cOQLLly//07Fjx949lygHgjhXiouLT6Snp0MoFEqK/QWK/xiJI4qiHbnR2Nh4TUtLC5SXl9t7DXyWLMuyn0EUc/D5woN5/N34s05RIBaLUZ2fXhg/XJudkT/dRRns+OUcG7SX4XD4K6FQCI4cOfIve2sU19EGsywLHo8HoLOwtCiKIMsyCIIAPM/bQqIkSRAOh+PuI+E8xM+H1zds2DAYMmRItZvHPiWS7AcNGhSbMmXKI84w81QINVdVFTRNs3MZUfTBiW4YBoiiCIqiQHl5OTzxxBNtFXv3FZBJJPoLtTUnPM8//3zk7bfffhbDRanjwz8XXrRzY8aMWTJs2LAg3ZXEcsMNN3w2b968HwmCANFoFDiOA2zJ29/BE8HTpXtRWldqU1RUVFdYWNiltXqiijszDAOiKIIgCF02ILgJwX+HznpUiqLYTUA8Hg94PB4QBMHe2GKkNG4aMCUhLS0Njhw5Ag0NDeQ7EXEXfvLy8pKiPhrP86CqKui6DqIo2mnlWK8F64ui0IuROoZhgKZpdqqYaZr273GmgeKziuIrikWWZYHX66XJ0EMURbGFcLSTLMvaUVbOMUQhDtd9tKcoBHEc1yW6HP9dEATwer3g8XjsKC3DMECSJIjFYuDz+YBlWVv00TQN2trabIEoEWuEs7OX1+uFGTNm3HEuKb8k/CQxF1100XacZKnUVQQFH6wrwTCMbaB1XQdZlsHj8UAkEoHVq1fD008/XX+o8mA2mUUi2amvrROfeeaZ2MqVK0GWZejo6EhIm9P+tDH3eDwgiqLrQ1eTmbvvvvu10tJS29kCl9QncDro3QtXO8UgPOV1ngiSGJQaDBs2LJidnf2Es8BzooQfFCBx84KbT4y4c24oGYYBv99vn2SbpgmyLIOmaf+yucHfjRuWRKUmEERWVlZbRkZGUgg/KOh0r72Dtr27eOAUClCMRfFVkqQuNWdw/cC0IBSFRFG0BSeiZ0iSZBc1PlXTCYzQQhvpLMiP9tS5n3ZGauG/YV1Z/P8oLqG4rqqqLTSpqmpHBaGfFO/5i+sSft5AIAATJkwoc/vYp4zwc8stt6zJycn5FHNFU2Fz6FwccHJjzjsaXPw/+HB//PHHcO+997as/mTVZDKNRLJy5MiRtNtuu0159913oaWlxXYmnOmNqQ7W9goEAnDjjTe+R7Om7za/zz33XG5RUZHt/KAQj5tGVVXtU65IJNIvhCHcxDtfp9p84wmgs607ibOpQ2lpaQV240lUfR+nc4+ija7rXVr2OotOY/qX8/N1FypPJVYyDOOKQu1E/2DkyJGtgwcP/gn6OBhR45zHicJp23EPgeIobqhRCMD1zBkFis8XphLhNeAeBa8LHIWk8YCBCjv3nFN1RnPW94HOw0Pn32MRZBSMwFFLtnvED/6cM2UMfQAcX8xCQRER7W0i5rEz3RDrHY0bN+65uXPn7iLhx0XMmjXrM9wckuH4pxOGyjwa1V27dsFPf/rT7Z/8/eMpZB6JZGPLli0XPPTQQ6GKigp7k+x0FqhN9D8Xdo7jYPr06VBYWFhPd6TvGDVqVMuPfvSj2UVFRdDU1ASSJIHf7wdFUYBlWfD7/RCNniwPkpOTQyeahGsYN27cnrS0NPuUH7vBEQRx7owfP748IyPD3sc4a+Q4N+oEQXw5GIksiqKdCTNt2rTNqXDtKbVDmj9//t8zMjJSqqX7aQe/M1Q5FovZSiyKQJWVlfD4449vff33r11PJoJIFpYsWTJ34cKFVRs3brSjJDAU2BmySs/3P4Xdyy+//P9n777DqyizP4B/p96aTgKpJITeQu+hWkBABUWKwC5SVFAREQEVF0RlseKurmtdf5ZdywKKil0UEOkgZUFKqEkghbTb5s6dmd8f5p0dsvQkEJLzeZ48gtx7k7z3nbnznjnvObckJCRQJOEKu/XWW38cOXLkWBbYsWYRWIteElKb9O3bd1dsbOxbbNuVdcsUIeTitG/ffpvb7TazKth/2Y0vUOCHkAu6PmbZ17quo379+ujXr9+qOrH2r0tvdEZGxq8tW7Y8LeW8LrOm6LMDgBV8FkURR44cwdNPP7304TlzH6TTBLnSnnvuuT8sXLjw23379oHjONhsNnNvMDuJs7RTFsCsy2RZRnx8PDIyMn6l2VMzjBgx4uPRo0dPY1sS7XY7QqEQioqKzAKZXq+X5i+pVXr16rU2EAjAZrNR4IeQSmjXrt3x9PT056xBVLZth21fpJpThFwYdkOif//+U5s1a1ZYF37nOhX4SUxMVDIzM+9wOp2XpZ1oTcfanFqLE7JsiWAwCEVRUFZWhnfeeeeZ3r0yP9m+dVsKnSbI5bZ58+bUcePGvbBo0aK3CwsLze4qgUDAzPBhKc8sqEsLi9+zSDp16vRU165dD9IsqhkSEhKCjz322N9Gjx59LytSabPZYLPZTus6RPOX1Ca33HLL0sjISCrMSkgVGDRo0Jfspi1by7CsUbqxTcj5sRqYoVAI9evXx4gRIz6uK797nSuG0blz500NGjSgiLilOBvbJsMWzzzPgwXHWOGtvXv33nTHHXcc+fvfXrmNThnkcnnjjTdunjFjxqHVq1ffL0kSAoEABEEw23laO7OwCx5rcbq6jOd59OjRYx3Noprn7rvvfmXIkCFmBwuHwwFFUcxCsbQ4JrVJo0aNSnv06PFnv99Pi1JCKqlfv36r4uPjzZtg7GYXy/qhOoeEXNgaWBRFXH/99Q80b968oM6sDeraG924ceMDGRkZVNy5fGEYCoXMAlfs7yyTgt11ZouR3NxcPPvssx/+Ydz4F3747vt2dNog1WXHjh0JEydOXLxkyZLl+/fvR2lpKVRVRXh4OARBgMfjOS3Dh2VKsFaStFUGSEtLozbuNVT9+vW16dOnh916662Ijo6Gz+cz795Se2hSG910002fxsXFmdvKCSGXJi4uTh80aNA9NpvNLJbOroMkSaKMUULOQ9M0SJKE1q1bY/jw4cvq1Nq/rr3ZSUlJgQ4dOowJCwur8xPfmirKMn8kSYIsy2arSJvNZmb+AIDH48HKlSvvf/DBB7e9/PLLI+n0Qaraa6+9Nvyuu+7K/uabbx7Kzs6GruuQZdkM+BiGAbvdbs5ZQRAgiqKZ6cPugNV17du3f6xly5Z5NKNqptTUVM+9994rDh06dEZYWBjsdjs0TYPP56P20KTW6dKly8YOHTqYbZkJIZdu2LBhy+Pi4szrH5RnMLA6P4SQcwQ/eB6CIKBPnz4TOnbseKRO/e518Q0fPnz4sgYNGpxWZJBtEWEpk6w6fmWwYAnLpGG1SKxbUlgbak3TTuvsIoqimbLJHsOK2LITPWtdzfO8+XhN08x9ixfCWhgO5XV/2JgIgnDa67Cfm+d5ZGdn47FH533QJ7P38jdff2NYbnaOjU4lpDKWfvzvftdfe92/5s6es/TQwSwEAwpkUQJnANANQDcgCSKgG9DU0Gn7263HgrVbUm0W0jVohg5VC0GHAR0GNEOHDgOSTcbUqVP/RrOqZqtfv772xBNPLLn//vuH1atXzzwns3nMzscsQ5Wd6+mO7vlZP9PPdD6o2GWKfQ5S/b/qERcXp48bN65lcnLy/8xxVpuEZRpfDVtV2M/M/ut0On30LpPLpW3btjm33377SJvNZq4R2HqBrT1qMxbcYjesres2Flxm5xK2XrJ+1XYsC0xRFHO82A1U9nnHHmP9vKwtgflgMGhmT1s/b6yf/ddeey2GDRu2vM4FveriCTMxMVG55ppr7rVuZ7IWRGOTv7LYa7BgCSwtlq2BHVmWwXEcAoGAeTAGg0Fzy5UgCJBl2dy+oqoqWIcMNsF9Ph9CoRBEUTS3bVU3h8OBbdu23bxgwYJlc+bMCXz5xcqu9HFMLtZ333zbYeKEO56ZOXPmD5s2bRrFPpzIubFziPXD22azQVVVdOvW7dW60qGgNpg0adIn999/f//mzZvD6XSanxXW95YF4gOBANVwuISL4DMdP7IsQ1EUGIYBp9MJSZLg8/kgSZJKo1b1MjMz91x//fV3uFwuSJJkXrNomgabzWZeh1GNK0LO77rrrvsmIyPD7BCpaRr8fj/cbnet/90NwzDXRYqiIBgMQpIkiKJoBjtYgCMYDJrrMEmS6kQpAFVVwXEc7Ha7eZ3IakJZ60GxMWOfkWxNerULDw/HqVOn4HA4zDUz2+UiCAIaNWqEwYMHd0lPTy+hwE8dMXTo0M8EQYCiKGY00HqnqSoyBlhktWLgh/2ZFfFkP4Msy3A4HOaJy2azwTAM+P1+BAIB824ki24HAgHzZOdyuU6Lal+OE1swGERkZCQURcEXX3yBGTNmrB875va/fPzhRwPoI5mcz2efrug5ZdLkP991111bVqxY8aCiKGZ7dr/fTwN0HuyujLWbB+vUN2TIkM9phK4uI0aMWPXII4+0GDRokFm83DAMc0FcVlYGQRDgdrtRVlZGA1aJoA8sGblsa3NRUZEZgBBFMUQjVz0GDhz4Vffu3VFQUIDw8HBzi66iKIiIiIDf74fdbqeBIuQ8GjduXDxy5Mje4eHhZyzNUJuxDoGqqppBfHYuYWskVVXNIDJbT7FmNrWdJEmnrUFZB2fDMMy5wgKFwWDQDIooigKf7+pPXvR4PIiKikJxcbF5XLA1uKZpGDdu3I2DBg2qkzUw62zgp2PHjkc6d+789pmCNNa7rFVxwVnxtdjJx+/3g+M42Gw2SJIETdPg9XoP6Lr+n4iIiB2KopgdtmRZRigUgqIoZsqey+UCyosv+/1+MzuIRbmrG+tCw2qweL1erF279t758+d/N+j6ge+v/PyLbvTRTCpavnx55oQJE56ZPXv22s8++2y21+uF0+mEruunBUHJhZ9nWEe+UCiENm3aUDevq1SvXr32PvTQQ/KkSZPGsgvV0tJSGIaB8PBwaJoGj8eDiIgIGqwLOC7OFPRh/z88PBy6rsPv90OSJISHh8Pn88Fut6Nv374/0ghWjzZt2uROnjy5SVpamjm32bZdNv6X4/qFkNpg2LBha0aNGjWZLeglSaoTgR92Hmc3vQKBgLnzgWUCSZIEm81mlti4mraSVhbbRsv4/X4oigJVVeFyuRAKhaBpmplMwMZEEIRaEXhnW/xYMwFrB+Bhw4bNmzBhwmd19ZxRpzezjx079r09e/b88dSpU+bkYJ2B2ImiKg9AtrWLnYDcbjeaNm2KNm3azGvfvv22Ll26bGzWonk+e17O8Wz7yZMn6+/du7f5tm3b2u/atat1Tk7O7aWlpQgEAvB6vTAMAy6Xy1w0swlu3c9YXcLCwsy9kixyzBYqZWVlY+64444xPbp1/2Lo0KGfDR069LPWbdvk0Md03bR79+76n3/++ZBPP/30pilTpgzVNA02STaPMZbBwBa0hYWFZmCTnJkkSWaWD/tQK29NOaFp06anaISuTvHx8SqA93/44Yed77333q/r1v0ew7Pe3WR36MjFLxYYr9cLTdPMgBoA9OzZE6NGjep36623UuCnGnXr1u3ABx98cO3ixYu/LSwsREREBAKBAFRVRVhYGIqLiynrh5ALNGfOnDduv/32Ntu3b7+vsLAQUVFR5nan2ooFeFh9I1EUYbfbEQwGUVJSYjYAYZ3P2I1x9ve6EPhhYyNJEux2O5KTk3Ho0CGUlJTA5XKZn3tsCxhb+1ZV8sOVxJIR2PqYdbAeOHAg7r///iVLliyps+eLOh346d279+rmzZtj7dq1Zu0da5CmKg48a7FoFqHWNA1OpxNTpkyZesMNN6xs37HDGSuKJyQlBgAcKf/6GgA2/LJ+wS+//NJ9x44dbbdv3z7z+PHj8Pv95nYPdsBWLMxcXSdea4qgLMtmKqHX6wUAZGVlDX7ppZcGf/LJJ3+fNfPBh7t37/5Ly5Yt/9O8ZQvqNlQHgj27du1qvXbt2l4TJ06cf/jwYQQCAbNzHIzfP3AEQYDD4UAoFILX64UkSYiOjq71Fy6VxbqXsTt9giAgNTUVmZmZa2h0rn79+/ffcfToUdcXX3wxeNmyZR8dPHgQLpcLHMexOjQ0SJcQ8LFi552EhATcdtttI2+88cYVSUlJARqx6jdq1KjvXn/99eHvvvvusqysrNO2MVLQh5CLM2/evIVPPvnkfWvWrIHP56v1dRJ5ngcrD2Cz2eDz+VBWVgZZlpGUlISWLVtiw4YNZk08tiayNrOp7Z95LPihaRoaN26Me+65p+vPP/+84auvvsKpU6cQCoVgs9kgy7IZ+GGBoKs9K4qtf631nXr37o1p06YlpKameuryuaJOB37qxzdQX3xhyfi9e/e+U1JSYgZ/qqodNAsiWSvMswBQXFzcd4/Me/SVR+Y9elGv2bV7t/0A9gPAJ8uWr/jmm29+Wr9+PY4ePQpN08wsHEVRqv3Ez/O8mUbJTqjWNEtBEKCqKnRdR1ZWFg4cOPDUihUrkJGRgUcffmTmgGuv+bZJkyb76UK79sjJyZG3bNnScdOmTZ1nzJjx4okTJ5CXl2cGJqz7rDU1ZF7gs22NDocDmqahtLTULF5Ozn5+Ycq7yiAzM3N2165dD9Lo1A4pKSk+AB/v2rUr/qOPPrrt888/f7GgoMAMWJBLD/pIkoTU1FT06tVr2k033fRpRkZG9tSpU2nALqPJkycvf/PNN29+/fXXPykuLja3jhNCLk7z5s0Lfvnll6Y8z+/buHFjrb9xxm7Us5vpoVAIUVFR6NSpE/r16ze0VatWnxUWFmL37t1mxzO2DmPZ0rWZpmnm+jMYDMLlcv39hhtu2Hj48OGwVq1a9XjllVe+zs7ONuvasaL61s7OVzNWL5QFwDIzMzFt2rTkNm3a5Nb1c0Wd71s6YMCA7z///HPs3LkTgUAADofDjA5XRUs769Yr1tad4zjExMRUuuPOzcOHrS7ML+B37drV+h//+MeElStXzmAR78uBnSRYRXiHw2FeuFl/V5Zi6XA44PV6sWbNGqxbt+65ZZ8sR0pKCubOnfvggAEDvr/mmmu208f31WnlypVdvvzyy0FjxoyZn5eXh6KiInOfOescYG1PLcsyNI43776wQCGrYWW32+vEXZnKYB28WEvq6Oho9OnT56enn36aBqeWad269QkAf/nxxx9/+OSTT27+9ttvF1Lgp1I23nfffUsGDhz4VZMmTYoee+wxGpErZOLEiZ9+8sknmfPnz1+jKAqioqJw6tQpyvoh5CJ17959/86dOxMWL148e926ddNr8+/KChSrqgpVVdGsWbN/jxo16oN+/fqtatq06am8vDzB7XZrsiybzXFYLZvLcWP8SpNlGWVlZbDZbIiMjITT6fQBQHm2yzcbNmxo/NZbb93x448/Psyyoqx1bq92rHafpmno3LkzFi5cKDVo0IAumijwA7Ru2ybnyYVPTN2zZ8/f2P5Gv99vdlWpLFYryBptBoBff/115IZf1s8rz+C5aHt2/6e+rut8IBAo7tOv704AD3yybPknf/vb337at28fPB6PWd2ftXpUFMVs+ch+nsr+btaTp6qqp3Uvsz4O5VkdjK7rOJl7AnknTmLj+g3Pvv7qa2jRrPm6Dh06bO3fv/8P7dq12x4XF5eX3DDFS4dpzXLoYFZEUVFR1KpVq/r98ssv3Tdt2tR53O1j27EMHTbPBa48VdQADO33+cCDAwxAU0NmUIjNBxYUYtsFybn5fD6zI5EkScjIyHhh8ODBG2hkaq++ffvuArBr3759f/v73/9+19atW5/Mzs42A6jshgW708cCrtYgETvG2PmfbRe0FkBkgXtYMsvY/2cZpaxzirWIMmvHzc7/7CZKxeOc3TBgj7cW3GQ/P0s7R4Vt09aLUmvNPGuxT3Zxz+5korx+WLNmzXDDDTcMvP3227++9957L8t7JgiCxsaLBcPZIqS6KYoCWZYhyzKr3VAjT6w333zz2g0bNjT++9//fmDdunVmJztUyNiqWCfRWsvQ2pGVzV/2eDZ/2OvxPG92+6k4hxn2+hXnrvV7oby7UPl8rdSiQpblYGlp6WldZqt74cxu2rGiwOVjWysq33IcZ4iieNq5jP2+oVDotPNLdWDnMZfLBcMwLttKujyj4f558+Yd+uabb5bk5+ebx4T1GGA3jKyFj9m8Y39m9V5YjRT2OtYaqNZzs/XYYMcfCyZYP1/YLgH2OuwmMcviOVOTHfb5Zv3ZeZ5HixYtMGzYsOGTJ09evmrVKvPxcXFx+pw5c2b98ssvz1h3cljPBxdzjFV8bPm5odJpQ5IkqRXXTdZtV5cqFArB7Xab14pt2rTZaf338szwR7788stP3n333Y2//vorFEUBO2Yq1hFkn/3ss5kdS9b6QKyrmvX6wjp21tezzsWzHT8VC3FXnA/s/WQNhtj3ZHM1KSkJI0aMuH3EiBEfU9CHAj+nuf76679eunQpTp48CY/HA6fTWSXZPufz0ksv7du9c1dCqzatLyr17LNPV/QcP3782rKyMrRq1Qpff/lVl+sHDdx08/Bhq/f/tq/e66+/XvDll18iJycHTqcTHMfB6/UiLCzM/MCrCXeLK36wFBQU9Pj22297rF69+h5ZltGhQwfMmH7/Y82bN9/btGnTfUlJScebNGtaSDP28sk+dtxx8uTJ+rm5ufFZWVmN9u3b13TSpEmPHTp0CD6f77QPU1VVT7swuBzHUF1mt9vNu14cx2HUqFEfvPPOOzQwdUB58e6n1q1b9+9NmzZ13rRp03u//vorioqKzEKO7OKJXUCxCzqWFm8N1FgXm+xCnC1o2aLYWiCRZXeebZFqvbhm5wjrhby146V1AcFeiy3W2OdDxYs99hwWPKl43gkGgxBFEU6nEw0aNED79u0fHDBgwPdt27bdERcXd1lz/GVZDjocDjOjmNU5q+6tBmwxLwgCfD4fawRRY2+kdO3a9eCePXvivvzyy0GfffbZ/7G6P2zBxz5jWF2KilsS2Pxic57NQevWfet8tQYKrfORzS/W7tg6f9nNQZ7n4fP54Ha7ze6mlQ38lJSURNjtdnMxdTmac3g8HgSDQbNIbvnNu1qxB8YwDI6dC1ihX7ZotS4Sq/vzubzGymVPL1m4cOGLH3zwwe7ly5d/u337dgQCATNDhud5sxAy24ZfMYjKgkHs3GoNrJ4pcFbx3Gw9rqzBH+vxaN01wIIF1gCUNcDEWo1zHIeIiAi0b98eAwYMGNyjR491jRs3Lj7TGCQlJR1nNygEQUAgEDC3xbPA79kCO+c7/spLW1R6DR0IBOwscMG6TFoD35fK+v5xHIfU1NTDZ3rcoEGDNh05csT9ww8/9P/uu+9W7Nq1C6dOnTLHg7031htELABkTSCwBmhYt2o2H9h1hvXmDbu+YP9WMUDEEgas887ayMQanGfbugzDgCiKcDgc6NmzJwYOHDjgtttu++G+++6ji0YK/JyuU5fOWfMeefSBv/71r8+zk1lVFXg+l6+//hpRUVE5B/btj2nctMkFd+H57bffmpWUlKCkpASbNm3CqVOnNh45dDi8YVpqWZNmTQsL8vKF1q1b3/DUU0995vP5zGio9aK/uu92XCjrScNaWMzv92PNmjUA8Lgsy4iMjERsbCz+MG78kvT09IOJiYnZrdq03lm/fv2TaWlpZTSLq8auHTsTDhw40DgnJychKyur0UMPPfTkkSNHkJubi9LSUnOxxT7I2QWj9eTNOszVlDlWW7EtlIFAAL179/7HDTfcsJFGpW7p0aPHPgD7Dh06tGLr1q0dNm3a9OPWrVuxe/du84KNZXmydG6WBcS6m7C7Y9YL3YoZEOzv7OKLXWBZMyqsGRHWYBH7qnj3lwWRrBeV1udbzy3sApZ1rmOLVFVVzZoNoVDIXIwnJSUhMzPzoYyMjF/btm27o3Xr1icWLVp0Rd6jxo0bH4iIiICqquZdVFbUvjpZ3xue5xEbG1ujAz8A0KJFi3wA7/z0009b3n///V1btmzByZMnIcvyaRf+7CaD9XPHmplmratonXMseGl9vHXRweY8y/xm89M6x9lilT1G13WUv7+VSuGKiooqOnnyJDRNg8PhqPbAYFlZmblFX5Ik+Hw+9nd/bQn8uN3u0wLdLNOkKrP6z7GgN4/B2NjY/CsxBqNGjfpu165d8V9//fX1//73v98+duyYOdfZVhhWGoLNNzbH2dy3LrLZ8XchOwbY+okdf9bAkvV8bj0+2XHr9/vNwBn7+VRVZed1dOjQ4ZqOHTtuOVvAh0lMTMx2OBw4deoUXC6XeVydq3gxOwewLKSzBYI0TUNkZGRxZd+j6OjoU7Is4/jx4wgPDz9jUOpSsJsLfr8fYWFhaNGixZ6zPbZhw4ZeAJ/t378/esOGDV03bNjw5TfffGPWaGUBMzZf2E0ZNl5sTM+0tqt4/WD9/LfOFWvw0Xqut96cst4IYgFrtp5lCQ2JiYno16/ffcOHD1+WkZGRTVeJFPg5q9tvv/39995773nrBXJ1k2UZK1asQH5+fuHRw0fCUlIbXlCl8YEDB371888/v7Vu3bo7SktLUVpaetodhXpxsTqAz7/47PMeCxYsWHfs2DGEQiF4PB6Eh4fD4/HAZrMhELiyNZXZgoS1WrRG+lnLYhZdDoVCKCgowO7du+8XBAF2ux2R0VGw2WwYNGjQe8nJyceaN2++t0WLFnsaN258oEmTJkU0q8/uyJEjrv2/7WuWnZ2d+NtvvzXLyspqlJ+fHzthwoRbPR4PAoEAysrKzIWi9QPc2hWhYjooO8Gzu6WkegM/TqcTkiRh9OjR/1qxYgUNSh1VHvz+KS8vTygoKKh36NChtGXLlg3ftWtX69zc3BtkWTYzWdmFlM/nO+dWLGvhTBZgYYtg6x086xcsWRXWLQQV0+rZRT4qZB1Zv1hnGta1hZ172HYptoWZ3dWPi4v7ukuXLht79+69ukWLFntqykVfjx491rVu3frpVatWPaQoirn4qO5rDBYACQaDsNlsaNWq1f2NGjUqvRrmc58+fXbn5eUJW7Zs6bh8+fJha9asmVtSUgKbzWaOWzAYhCRJ5ucTC+pYs9wqflkXDtZAZsU70ijPiGFzX1EUc/HKts2xhgTlXz82b968oDK/c+fOnTd9991311syb6p1jN1uN7xe72nZRTExMUhKSjpeG86JKSkpvjlz5sxyOp3PsN+PBQzDwsKqPbAmiiI8Hg/sdjvS0tIOXalxKK8P939r167d8Omnn960Zs2aP586dcpcZKuqal6rSZJkBtZZEKZiJnfFbb0VMzmsQf+KW4WsARTrwj4UCpmBBbaItwbp0tPTl910002f9urVa21KSsrRC922U79+/ZMNGzaE3++HqqoIBAJmJihb/5xru9e5tiOFh4dXybGSkpJyNCwsDA0aNDCDryxLrSqC/9HR0WjQoMFHrVq1Onm+x5evm746duyY85ZbbklfuXLlDatXr+596tSpwew8yT7PWeYquyaw3ug509bZitcKLMPJOk/Y61sDjNa5xK4p2DmLfXk8HkRHR2PAgAHzbrnllqWZmZl7FixYQBeGZ8HREPzX7FkPzX7//ff/zFLtLsfC1e/3IyIiAg0bNsT8+fM7XnPdtVsv9LmfLFveOzc3N75r164bOnTqeMY0vk0bNqYvWrTowNatW81OSTzPo6ysrNrveFzIwvVsqdbWwBD7YLIWBpYkCcGQan74sAvAUCjECkwfiI2NzW/WrNlvDRo0OJGYmJh94403rujQocPRujavv/vuu3aff/75kN27d7cqLi6OzMvLiysqKurgcjhPO5GjQuTduqfXOv7WD3/rNhFrFL+2F86rCQzu9+DxgAEDsHjxYipcR85o7dq1zb///vsBGzZs6FpSUjJOVVUUFRWdls5fMVMHFWoqWI9/63FfMRPIGvipGAxi5wTr/69YCwj/TaGHy+Uy6wdYL8IdDgdcLhfCw8MRHR39WqtWrXb36tVr7XXXXbe1Jr8P77333sAtW7Z0PHDgQGOXy+X1er2uar/A4zgjOTn5WGZm5ppRo0Z9d7XO4X379kUvW7Zs+OrVq19nW/KtCxHrvGMLTHbH2xrsRIVthhXG6rRtYCzwaK1laH29qKgoOBwOJCUl/X3cuHHv3njjjesq8ztmZWWFv/fee2N37tzZpqysLEySJLU6x9Tj8bijo6NP6brOB4NBuX79+if79eu3aty4cV/WlnPfwYMHI5YvXz5s48aNXYqLiyPdbrfHMAzO5/M5ZVkOVuf3VlVVSk5OPtajR491EyZM+KwmjclXX3018PPPPx9y8uTJscXFxafVdWPneesWL2t2XcVFvfV8bj2mKmZ4VswqlWXZvKHA6kOyTPGwsDDEx8e/061bt/U33HDDyo4dOx651N/3iy++6Lp8+fJhx44dSxZFcYwgCCgrK/u33W4PnO2cWf7z62f7NwAYM2bMP0ePHv1tVbwnq1evbvnSSy/dwz4TnE6nLxAIVCryo2mawPO83qpVq92TJ09+/XzZUefy8ccf9/vqq68GHjp06CGPx4Pi4mLzs9q6a8MaqKk4N6z1A63bcK03hqxzxpolbA3OW8/RkZGRiI+PR2Zm5qRRo0Z9UJ65RCjwc+F2bP81acKECceysrJOKwpZbQu38jsPZWVlUBQFiYmJmDZt2phbbrllaYOE+Cr7UNq9c1f8vHnzcrZu3YqioiKz4NeVrvNTcbFR8YKMpcNXvEtnBiu4/9Z4YFkoFU8uXq8Xoiiie/fueOCBB9r269dvZ12b15s3b059/vnnD61ZswZFRUVmsU9NDZ0WdLNeHJ/tgtiagcUi9hVriKBCcW9SPUK6hri4OCxYsGDAbbfd9gONCDnvZ9yOHQm7d+9ulZWV1SgrK6tRSUnJQ/n5+bC20rbehbMW9Ky4h996cVfxPM6ee6Y7f9aFAXu+9eKP3UX0+3/fcWK32xEdHY24uDgkJiaiYcOGE+Pj43M7dOiw9ULuYpLa4+TJk8L27dvb7d69u9XWrVv/79SpU8jPz0dJSYm5iITlplLFzzBYakWc7ebEmQJEhmHAbrcjNjYWDRs2RFxc3MONGzc+0KFDh63lRVIJuer89NNPrTZu3Nhl9+7dbx05cgQFBQVm7caKRXWtWT9sm6O1TlbF4wdnqeXGtutaizq73W7Ex8cjPT19YZs2bXY2adJkf3V0+T1x4oTI87x+ueu81RYHDhyI3Lx5c6edO3e2OXjw4POFhYUoLCyE1+s1t27D0ujnTJ/9FTMrrbX/rAFCa4Fo9lhJkhAdHY169eqhXbt2M9q1a7e9a9euG5KTk/307lDg55LNnT1n1vvvv/80299dnURRPK3ugqqqiI6ORps2bTBlypTO1w28fvPFvubxo8ecP/74Y19N04R+/fqtYtvH9u39rd60adPyt2zZYqZUXo7tbOfCn+Mii9WgsAYaTitQahjgReG0iLG1ThC7c6EoCvr06YNp06Z1GTRo0Ka6Oq937drVYNasWblbt26FrutQVRUOmx1chTv11g9pawv2ivtsWTYQ+3PFzKFzLfjMwB+dbipFh4HBgwfjT3/6UzjVuSKXIisrKzw3Nzf+xIkTDU6ePFn/5MmT9fPz8/9SUlKCEydOgNWSYxdyFTvDWLMpKmYC4gx7+1FhC5J1Mc7u9MbExCAiIgLNmze/Pyoqqig+Pj43ISEhJy4uLi8mJqaQLtoJABw/ftxeUFBQLzs7O/Ho0aMpx44dS87JyXkuLy8PxcXFOHny5P9kIFT8fKsY6LRm+MTHxyM2NhapqamzkpOTj7F5mJCQkJOSkuKjd4DUFidOnBBzc3Pjjx8/nnTgwIHGR48eTdm3b98TRUVFKCwsNNcp1i5crO5WxawO61avipnjPM/DZrPBZrOhRYsWSElJmZWenn4wJSXlaHJy8rGWLVvm0btxdThy5Ijr5MmT9bOzsxOPHTuWfOjQobTs7OwnTpw4gfz8fPPGzZnqBeIMXROtASE2Z1wuF2JjY5GUlISUlJQZaWlph5o0abI/ISEhpzIZTBT4Iaf54bvv282dO3dbVlZWtQdGWJcKayaF0+kEylvPTpo0acKYMWP+eTHZP2+98ebNzz777HJFUdCmTRvMnDmzdWaf3rsBYO3qNS1nzZq1+/Dhw2Yl/yu7ctXPmUpqzSixZpAYhgGtfKGgaqHTusBYi45qmoamTZti+vTp14wcOfL7uj63f/zxx9Zz5szZeeTIkd/viBqAUCFl1/rBzebm2bZ0sFTdivtxK6b0UuCneoRHRmDOnDk3T5w48VMaDVJV8vLyeEVRbIqi2Px+v6O4uDjy1KlT0SUlJRGlpaXhRUVFUWVlZWEnTpxowB4TDAZlTdOEUCgkBoNBWVVVKRgMypIkqbIsB2VZDkqSpDocDr/b7fbY7fZAUlLScYfD4Y+KiiqKi4vLi4uLy4uOjj7ldDp9kiSpCQkJQXo3yMXIycmRg8GgrCiKzev1usrKysIKCwtjTp06FV1WVhbm9/sdoVBI1HWd13WdL2/5HXI4HP7IyMji2NjY/JiYmEK32+2JiooqonlI6qpDhw6FBYNBuaysLCw/Pz82Ozs78cSJEw2KioqiAoGA/eTJk/VVVZX8fr8jEAjYNU0T2PEkCIImy3IwLCysrF69egWxsbH5cXFxeYmJidmJiYnZMTExhXa7PUDHVu2SnZ1tCwQCdp/P5zxy5EhDr9frKigoqFdQUFCvqKgoyuv1utj5V1EUmyAImiiKofLOl/7IyMjimJiYwvDw8NK0tLRDYWFhZRERESVOp9NHc4UCP9Vq8eLFE//yl7+8oSjKacURgwHltPbj1R044TgOPXv2xCOPPJJ2tho+FS1cuPDu559//m+sHWDPnj3x3HPPRbCijt9++237Rx99dOuhQ4cQCqpwOp3w+/1mZ5VQKASHwwGv12vuu63JWCvIQCBgdoHx+/1wu92wOx148sknr72aaxtUtW+//bb9ww8/vPXw4cPgwZ0WUFPV3+eDNeBDruDJ2XLnjLVttxZBvPb665a8++67M2ikCCGEEEIIIefC0xD8r969e69u1qyZuQWLLYbtdrtZg+BybJNSVRVr167FI488cmjl5190u5DntG3bdkejRo3MwoR79+7Fzp0727B/v/baa7f94Q9/GBkbG4uwsLDTOqMAgMvlQllZWZVUlK9uLHU0GAyydqowDAPR0dHwer0YP348unbtuoFm9H9de+2120aPHv2H8PBwaJoGFiDked58zynoUzOw90BRFERERJjHqN1uhyzLuOOOO96iUSKEEEIIIYScDwV+zqB79+77b7311pGhUAjBYBCqqkIURbPiPAswVDfW9nX9+vVYuHDhL99/+1378z2nXbt224cMGYKEhARomgZRFOFwOE4rfDV8+PBlgwcPRnFxsZlNwDpiobz20NVQnNda4d0qGAyiadOmuP3226Oo9sn/GjJkyOfdunUz2yKzzDVrQdYrXfibnF7vitW5Yn8fMGDA83WxUDkhhBBCCCHk4tFt/bPIz8/nbr75Zn337t0wDAMulwveMg8cDocZCKpu1qLFANCiRQssWLCgXb8B/X891/Py8vL49evXd9uwYUPX9PT0g3fccceKMz1m6OAh2uHDh80AEcqzjGw2GwKBgNkxq6YKhUIQRRGSJMHj8cDtdpsFwx5//PHhEydPWk4z+cx+/PHH1nf8ccLOwsJCuFwuM6ggCAIkSYKiKJT1c4VZW1qyjEMAiImJweuvv968e88ev9EoEUIIIYQQQs6HMn7OIjY21pgwYcKwmJgY8DwPRVHgcrkQDAYhy/Jl2eplt9vN1oc8z2Pv3r2YN2/e9i+/WNn1XM+Li4vTb7zxxnVPPvnkC2cK+rDHzJkzp29cXBwEQYCiKLDb7WadH1mWa/x7ZO0cgPLMFZ7nkZmZ+QoFfc6tb9++u2666abHWGcG63w+W1t3cnmx94AVQOd5Hk6nE0OGDJlNQR9CCCGEEELIhaLAzzkMHTr0s86dO5tbn1i78Mu1MA4EAnA6nSguLjYX53v27MFf/vKX9du2bG1Y2dcfdsvwn6699tp5PM9DlmWzoDPr0FTTSZJkBq1cLhf8fj8iIiIwduzY92j2nt/o0aP/1ahRIyiKYmZK6boOv99/VWz1q+1YBlYwGITdbofP50NycjLGjx//Do0OIYQQQggh5EJR4Occ6tevr91yyy3909LSIMsygsEgRFE0621UN0mS4PV6ERcXZ7Y1NwwDW7Zswfz58w/n5eVV+v0bOXLkh23atIHT6UQwGATHcRAEwaz/cjVggTie59GpUyd069ZtPc3e8+vSreuBnj17zpMkySwczHEcRFG8KjK+av3JuTzLB+VBoOjoaAwfPnxcy9atTtDoEEIIIYQQQi54bUFDcG4jRoxY1bVr1/mSJJmFnS9X7RtN0yAIAjwej/k9WcHnX375BS+//PK0i3m9V155ZcSAAQM+HD169F9//PHH1gDQtXu3/UOGDBmnaRrCw8MRCoUQCASuiq0+1tbWXq8XERER6N279y314mIpXeUC9e7de3V8fDxkWTYDi2wLHbmyBEGAruuQZRmhUAitW7d++777p1M2GyGEEEIIIeSiUPXWC7Bv377oKVOmFO7asROiKJpZEcFg8Ir+XK4wN2bNmnXb3Xff/fGFPD45OXmb1+ttx1rSv/XGm91vGDJ4PQDcM3Xa4x999NE81h7d2uJd13VzixsrbF2xLsyVwH4ulqnUtm1bfPjhh2Js/TiNZu2FyT+ZJzzwwAOh7777zsxikySJ6vxcpvlrPYZ4nkcoFDIDvtbjzGazYfny5Q3bdWh/lEaOEEIIIYQQcjEo4+cCNG3a9NSUKVOuZ63DOY6D3++/4j+Xx+PBhx9++BHL3jkfRVFsrC6Oqqp48cUXf8nNzrEBwEMPPfR0s2bNoCgK3G43gsEggsEgBEGAIAhmEEiW5RrT7p39XOznGTBgwFQK+lyc2PpxWvfu3UfbbLbT3lvK+Lk885cFkllQlQUzWe0qlG/zGjZs2DwK+hBCCCGEEEIuBQV+LtCYMWO+6dWr15slJSU1ps25pmn49ddf8dFHH+28kHo/7dq12x4MBqEoCmw2GwoKCrBnz54WAJCS2tAza9aszNTUVHi9XnAcB1mWwXGcmXXAWr6zQsBXmvVnkyQJgwYN+pJm6sXLzMxcExMTY/79ctSvIr9n/IRCITNzkNX0YcE3ttWrUaNGGDNmzD9pxAghhBBCCCGXggI/F+Huu+9+JTU1FUVFRRAE4Yr/PKqqIiwsDMuXL8cXX3wx+HyPnz59+ovR0dGIiIiA3++Hz+eDoig29u833nzT2okTJ97udrvNxSero8MKWmua9j9bVK4ktjhu3Ljx5x06dTxMs/Titclom52RkfGcdevi1dDV7WrHziFs6yjrqsa+JElCZGQkxowZM6ZTl85ZNGKEEEIIIYSQS0Gru4tw7fXXbZk8efIfHQ5Hjeh6JEkSWAbPM888s+L48eP2cz1+8ODBG1544YWeLVq0QNOmTdG3b1907Nhxi/Ux99x37z/vvffeieHh4VBVFRzHmS3eVVU1sxJqQlYIx/1eoioUCqFfv36raIZeumuuueY7Vty5JgQ16wKWOceClyx7TRAE2Gy/x2P79++/aNq99/yLRosQQgghhBByqSjwc5GGDh362cCBAxEIBK74zyLLMlRVhSAIyM3NxUsvvXTP+Z5z4403rnvrrbfsL7/8ctrjjz8uxjWo/z8RnAcfmvXWmDFj7ouMjDQDS6IomlvcakJhZyYYDEIURWrhXkmdOnXabLPZoKoqUL4NiVT/3GW1s1hBZ3ZMB4NBpKam4g9/+MP/0UgRQgghhBBCKoMCPxepcdMmp0aNGtWtQYMGV/xnMQwDoVDIXDCuXLnymdWrV7c83/MSExOVTp06HT5XIeR77rnnpREjRjyclJQERVHM7AQWEKgJdY50XQfHcUhMTERaWtohmp2XrmnzZgXJyclfs3lFqh/b3iUIglk0XtM0BAIB2O12jB8/fmT3nj1+o5EihBBCCCGEVAYFfi7BoME3bBg2bNiMmvCz2Gw2s/5OQUEB3n///dur4nVjYusZzzz37KIhQ4bMSkhIMBelrONQTdjqFQqFYLPZ0KhRI0RFRRXRzKyc9PT0g2yLEdX4qX7W4uQsqKqqKtxuN1q3bv3Pu6be/RGNEiGEEEIIIaSyaHV3iR5/YuGSVq1aLUV59gurj4LyjInLkTURDCjgwZlfhqbj5zVrH/7ogw+vuZTX27NnT+zSpUv7rFixosfBgwcjAOCpPy96dsHCx69p1aY1NENHSNdgcPj9y/J7chxnZi+wGjGhUOi0bmAsW4i1sWbBI9bOOhQKwTAMM/uBvb41K+L02cshEFTQolXL+xOSEgM0Kyun34D+34d0DZzAQzNoq1d1EyQR4Dlohg5O4MHGPrlhCv789OKHaIQIIYQQQgghVYECP5Uwc+bM51JSUqAoChwOB1AeBBIEwazdUZ1kWTa/jyiK0DQNeXl5WL169bcFefkX/d5OnDjxzXvuuefHu+666+dx48YVf/zxx/0AYOTIkd8//vjjzXv37g2n0wmv1wsA8Pv9ZmYIqw3D8zyCwSACgQAkSYJhGFBV1fw5rdtZeJ43gzksyGP9gmVLWSAQMItNsyCQzWaD0+lEgwYNTtBsrLz4+PhcSZLMulGkenEcZwY/NU2DzWZDVFQUJkyYMCIjIyObRogQQgghhBBSFSjwUwmDhw75Zfjw4XexoAvLWrFmuVTrm1e+PcS6XURVVaxZswbbtm1rfzGvtWnTprT9+/cPZcWcDxw4gKeeeuqH5cuXZwJAz549f3vmmWeipk6dOqlRo0YIhUKoV6+e2eJdkiQoimIGfGw2GwKBAEKhkJnBY20PLwgCVFU1s3xEUYQsyxBF0XwsyrOGVFWFJElwuVxmYInjOLMWSkJCQg7NxspLTk4+5na7zawrUr2sXelkWYbH48F1112Hm2+++RMaHUIIIYQQQkiVxQ5oCCpn3Lhx77IuX6IowjAMBAKBy7JwZgWXWZFnnufhdDqRk5OD5cuXD7uY14qOjj7F6vewOi85OTlYunTp6uzsbBsANG7cuHj27NlvvvXWW6mjRo16Ij8/H7Ism5lHNpsNgiBAURToug6XywVJkv6nVbUgCOB5HmFhYeb3YgEeFghiLa5tNhtEUYSiKFAU5fdJW/47Dx48+IWFCxdeN2zYsDU0EysvMjKyuF69ehBF0czgItWHzWeUZ7R16NABf/zjHxs1aNAgRKNDCCGEEEIIqSoU+KmkpJRk37Rp09Jbt24NlNevgeVufnViARK2NYoFTXRdx9dff/3Irl27Lrj1WHp6esnIkSPn8TyPwsJC8+c/duwYjh07lmx9bMeOHY+88sor89asWZM6ZsyYR+rVqweHwwFN06CqqhkMYhk/LAOKZSix7Cifz2dm77DnsMewbmVscRwTE4MGDRqgZcuWH8+YMeOu1atXx77zzjsPjB49+luahVVDkiQ1NjbW3DZIqhfLhBNFEWFhYZg7d26Hzp07U3c6QgghhBBCSJUSaQgqr1OXzllLP/53/1mzZv1QUFAAtl3mctB13cykCYVCUBQFdrsdhYWF+Prrr68H8H8X+lrTp09/MRAILFy9ejXy8vKgqiqSk5PPupWqfccORwA8tWXT5n+tXbu21+bNm9/57bffcOLECXMblq7r//PFfl6WuWMNBrFglizLiIqKQnx8PBITE5c0b958b8+ePX/u3bfPru9++B5zH3mYJl5VnwxEMRQVFWW+B6Tax9vcxjhmzJiZ11577TYaFUIIIYQQQkhVo0IeVeiB+2c8+vHHHy9UVRWqqlZ7nR+W6WNdpKuqCrvdDk3TkNG+HRYvXpzcrl274xf6mgcOHIjcsmVLxw0bNnQNCwsr69ix45Ybb7xx3YU899iRo64jR440PHjwYPqBAwca79ix4/n8/HycOHECPp/v9wlX3q1L13Xzz4IgwOVyISYmBikpKUhPT5+dmJiYnZycfCw1NfVwuw7tj9LsujxmzJjxyPvvv/8Ez/MwNOrsVZ1Cuga73Y5+/fphwYIFkenp6SU0KoQQQgghhJCqRhk/VWj69OkvHj58eOHPP/9sdrSqbmxLViAQgMPhgCAI8Pl8kGUZ+/btQ1ZWViMAFxz4ady4cTGA78u/zivneLbdMAwuMTnJn9wwxQvgP+VfyM3O+VsgELB7vV5XaWlpeHFxcWRJSUmEqqoSz/N6eHh4qd1uD4SHh5eGhYWV2e32gCzLwfLXIVeA0+n06boOSZIQosBPtRIEAYmJiZgyZUorCvoQQgghhBBCqgsFfqpQw7TUsl9+Xtfc7/fv3bx5s1nbRlVV6LoOh8MBr9cLm80GTdMqXQfI2grdZrOZWTSyLAMASktLsXz58p8OHToUnpaWVlaVv+uKFSt6zHlo9tNdu3btqaoq2rRqvXrGjBkv3DFpotmRKD4xQQGgACgBUKnOW1s2bU5bvXp179zc3PiYmJjCzMzMNT169dxLs65qxcTEFLJ6UaTyJEmCx+OBJEkQRdHsaifLMurHN8D8+fO79u7d+z80UoQQQgghhJDqQoGfKta9Z4/f3nvn3cH5+flf5ObmwuPxwOFwQJIk+P1+CIJgdrqq9jdXFPHTTz9h7dq1vQB8WZWv/eqrr95ZUlLS0+PxwGazoaioqPdjjz3We94jjz6w8MknXjjXc/NOnBRLS0vDvV6vK6N9u2Pnemz+yTzh1VdfvXPy5MkvZ2dnQxAEaJqG1157DV9++WWXQYMGbaJZV3V4nteplXvVKS0thdvtBso711mDP3ffffet7du3p7o+hBBCCCGEkOpd59EQVL2x48etHD9+/Dhri3dWuNjhcMDj8VyWrkmGYaCsrAwffvjhysOHD7ur8rUVRbGpqgqHwwGO4+D3+xEIBLBx48bnt23Z2vBsz1v1/Q8Zr732mjpnzpzC+fPnH73jjxOefe6ZZyfkHM+2n+nx69ev77Z06dKX9+/fD0VRzBb2Xq8Xy5YtG06zrWoJgqDxPJ0WqgrL7vN6vRAEARzHIRgMYujQoc/ceeedS+Pj41UaJUIIIYQQQkh1ooyfanLf/dPfu+OPE9r98MMPM71eLxRFgcPhQHFxMZxO52XJ+AkGg7Db7di2bRteeeWVuwE8U1WvPX369Bcn3TFxpKZpZhFru90On8+HsrKysDM9Z9/e3+rde++927dv3262eVdVdebGjRvBcZwB4O2Kz8nOzk48duwY7HY7XC6X2QLe4XCgZcuWtEWmigmCoFHGT9VxuVynHfM8z6Nv376YPn36i2+89SYNECGEEEIIIaTa0a39avToo48+0a1bN3Ach7CwMIRCIXAcZ2YBXYZFPFRVhdfrxXvvvff0Z5991r2qXnvo0KG/LFu2rOWQIUOeT01NRbNmzdCkSRNMmTJlSO++fXad6Tl79+5tvnXrVgQCAYSFhUEURbjdbhw8eBAffvjhyDM9p2vXrhsGDRqE6Oho+Hw+iKKItLQ0DB069KkZM2a8S7OsanEcZ1Dgp8rGEh6PB263G5IkAQBatGiBefPmpbfJaJtNI0QIIYQQQgi5HCjjpxo1apxevHb1mlZer3f3zz//DJ7nERkZieLiYthstmr//rIsIxgMQhAEBAIBLFmyZN3mzZvTOnXqdLgqXr9nZq89AGYeO3L0MY/H446Njc2vFxd71lSmtLS0Qy1atEBWVhZKS0vB8zwEQUB6ejquu+66bzZs2vg/z2nfscOR3/bsjdu4cWOXrKysRvXq1Sto3br1rj79+u6kGVb1DMPgDMOAYRig8E/lCYKAYDAIRVGQkpKChx9+uGOnLp2zaGQIIYQQQgghlwsFfqpZr96Z//nis897HDlyZF1hYSECgQAkSYIsy1DV6i3voeu62U1M13Xs2bMHr7zyyqF9+/bFNG3a9FRVfZ/y9uvnbcHeJqNt9vKly/quXr36x/Xr18MwDISHh2PAgAFTJkyY8I+FTz5xxuc1a9E8H8AXNJuqn67r/OXIRqsLBEGAoihwuVzgOA4zZ8686Zrrrt1KI0MIIYQQQgi5nCjwcxkMHjrklw//9cF1d9111zeiKMLhcFR70Icpr6MDjuOgqiq++eYbxMfHjwew5EqMxbBbhv90MveEXFpaGh4KhcSIiIiShKTEwOy5c2ii1AAs8EPbvSpPVVXYbDaUlZVh6tSpM/94x4QVNCqEEEIIIYSQy41q/FwmI0eP+vZPC+aPc4eHwev3gRN48DwPtq2G/VlVVbhcriqpAcQZgMDxEDgeIi+ABwe/14e33njzhVkzH5x7pcaifnwDtUmzpoUtWrU8mZCUGKDZUXPous5zHAfq7HUhZ08OIV2DZugI6RpCugbJJkOHgZCuwe50IKRruOe+e3Hv9PtepAEjhBBCCCGEXJGlCw3B5TNmzJh/jh07FjExMQBgtnQXRRFerxc8z0OWZeTn58PhcFTFIh48zyMUCpm1fux2O0pLS/HBBx88NXfu3JnZ2dk2emcIuXiGYUCSJDNwK8syPB4PNE2D0+mE1+vFyJEjMXr06Lj69etrNGKEEEIIIYSQK4G2el1GcXFxek5Ojq2kpET55z//CbtsQzAYhK7rcLlcZv2fqKgoeL1eCIJQqe+n67q5ZYcFgHRdh9vths/nw7/+9a9nfT7fswcPHoxMT08voXeIkIs4eYoiSktLERcXh6KiIrOeFsdxKCsrww033ICxY8emt2jRIp9GixBCCCGEEHLF1i40BJdXQkJCMDc3V/Z4PMHlS5dBkiT4/X7Y7XbYbDboug5N06pkq40kSQiFQkB5a2lRFKGqKmRZBgCEQiF89NFHOHr0aPGePXviaIFKyIXTdR0xMTE4deoUIiIi4PF44PF44HQ60aRJE8ydOzehTZs2uTRShBBCCCGEkCuJtnpdAfHx8eoTTzxh69OnD2RZhij+Hn9j7c1LS0shSVLl31yehyiKsNlsZgCI53koigJVVeHz+WAYBrZs2YJBgwblvffeewPz8/Opqi8hF8Dv96O4uBg8z8Pr9SIyMhIulwutW7fGyy+/nE5BH0IIIYQQQkhNQIGfKyQhISG4YMGClD59+pjt1kOhEEKhEBwOh1n/pzI0TTO3e7Ei0uzL6XTCbrcDAMrKyqAoChYsWPDl448/rq9fv74xvUOEnJvL5YLD4YDb7YaqqigrK0Pbtm3x8MMPt+vSpUsWjRAhhBBCCCGkJqDAzxWU0b7dsalTp7bMzMwEx3Gw2WxmYKay9X1QXnxWURQEAgGIoghJksDzPHRdh9/vh8/ng6qqcLvdMAwDubm5WL58OR5++OH9Tz311BR6hwg5O1VVzew5h8OBtLQ0PPTQQ+0HDBjwK40OIYQQQgghpKagwM8V1jOz154ZM2Y0adOmDQKBAARBMAM2laVpGmRZhs1mgyRJUBQFhmGYBWhtNhvsdju8Xi8CgQDCwsLg9/uxefNm/OMf/3h18ODB//fuu+8OoneJkP/FirIHg0E4nU4sWrQo45prrtlOI0MIIYQQQgipSSjwUwN06db1wNtvv+1u27atuc2L4zgzcGMYBlRVhSAIZncuwzDO+7qCIIDjOHMLGc/z5vN5ngd0A6GgCkkQYZNk6CENIi/AYbOjtLgEWzdvGf/A/TNWdu/a7Yun/7x40u6du+Lp3ar92Nyr61iRdUVRzONI13WIomgGUMvKytCkSRO8/fbbrfr377+DZg8hhBBCCCGkxq3xaAhqjl+3bU+eNWvW0aysLJSWlkKWZXi9XqC8nggLCPE8D8MwzILN1YXneWiaBlVVIUkSkpOT0a1btycyMzPXNG/efG+7Du2P0rtWuyxZsmTsokWL3tV1HXwdPz3Y7Xb4/X7zmLMGZO12O8q8HvTu3RuTJk3qddNNN/1Ms4cQQgghhBBSE1E79xoko327Y9u2bE199NFHD2/btg2apkEQBIiiCF3XEQgEYLPZwHGcWbenOnm9XjidToSFhSEYDOLw4cPIycl59KeffkJkZCSmTZv2eFpa2qG2bdvuaNas2W8NGzb0VvcY/ec//4nbv39/k5ycnISDBw+mt23bdsf48eNX0uypGoZhcCjP+oFRt8fC5/OZtbY0TYNhGJAkCaIoorS0FB06dcS9997b8brrrttKM4cQQgghhBBSU1Hgp4Zp37HDkV07dibOnTt30Zo1a8aHhYUhFArB7/cjLCwMqqrC4/HA7XZXe8YPC/h4vV5wHAeO4xAMBlFQUICysjJkHT70mN1uh9vtRnh4OIYPH/56enr6webNm+9NSko63qpVq91JSUmBi/2+x48ft5eWloYfOXKkYU5OTsK+ffuaHj58OLWgoKDeH//4x9u8Xi8URUFJSQlGjhy5AAAFfqoIC/wQwGazQVEU6LoOu92OQCAAr9cLl8uFlJQULFq0qGn37t3300gRQgghhBBCajIK/NRArdu2yQHwh3G3jy1etWrVfT6fDw6HA6qqIhAIwOFwQFGUKun8dS6KopjdwKyt4EOhEBRFgWy3wePxoLS0FMePH8eePXsmr1mzxqwlpKoqEhISdjqdTp/b7fa4XC6vw+Hwy7IcFARBw++dkSSfz+csLS0NLy0tDff7/Y527dq1ttZSYfWMWPCJfem6Dl3XqU5VFTIMg7uQ+lF1QVFREcLDw2EYBrxeLyIiIsBxHBo2bIglS5aktu/Y4QiNEiGEEEIIIaSmo8BPDbZw4cJ5ixcvvm/VqlUoLCwEyrMQ7HY7PB5P9U8OUTQDLJqmQdd18DwPWZYhCAICwd87j3EcB0mSwHEcDMOArusIhUIQBAGhUKhNSUkJiouL/yeAwwpWsyLU5YEccBwHQRBO2+pmfW1d183XUVVVoplCqoPb7TaPNYfDAa/Xi969e+PRRx9No6APIYQQQggh5GpBgZ8aLLVRWune/+ypHxkZefLjjz+G1+uFIAgoKChAREREpbd6nS9VxtB1aLoOQRDgKK8tFAwGoSoKghwHXvxvxpGu6zAMwyyEK0kSQqGQGeRhQRtrNgnLJGLBHp7nzSwmwzDA87wZREJ5sWn2OL385xJFMUQzperQVq//stvtyMnJQVRUFDiOw+DBgzF79uz4lq1bnaDRIYQQQgghhFwtKPBTwzVv2SKvML+ADwsLu/P5559/Rdd1xMXFobS0tNq3ehmGYRaQDgaDZlcjQRBglBf/NTicFvBhz2Mt460BIUn6PTmHtZcXRdHM9mHPs7YRr/i67LXYV/lzaV9SNbzv7D2py7xeLxISEuD3+9GnTx88++yzYmz9OOpzTwghhBBCCLmqUODnKhATW88A8Pc333wz969//esnOTk5kGUZABAMBMBxHFwuF4LBIILBIBwOB1AeYDkX/XzfmOehsQwdjgNfHgSyRlo4A+BQ3gGKbeViAQRNB4f//rse+n3NzIODLJbv0NINGJZXPK2FOAs+6MZ//43jzG9QHkCiOVyFFEWxsUAbanmtHx0GXC4XfD4fQqEQnE6nWcxZEAToMOB0uzBh4h246667hNi4OJ1mCCGEEEIIIeRqQ4VxryITJ0789JFHHunfqVMn+JXfOwyFh4dDlmUUFxdD0zTIsmxm5xBCzk6WZeTn50MURTidTgSDQdhstt+DPrqOxo0bY+rUqaPuvPNOMY6CPoQQQgghhJCrFAV+rjIjRoxY9eCDD2b06dMHdrsdhUVFCOk6IqKiwIsiVE2DwXEwOA56eVbP2b5qA+rqRS6VYRgIDw83u+WpqgpFUSBJEuLi4jB79uy+06ZN+7B+/foURSWEEEIIIYRctWjRfBXq37//jsWLF9fr1q0b3G43FEWB3++Hz+eDIAiw2WxQVbWuLN6pGA25JIqimPWMVFWFKIoQRRGNGjXCSy+9lHHLLbf8RKNECCGEEEIIudpR4Ocq1axZs8I33nhDnDx58vSUlBSIogi32w1d11FWVlbthZ9rCsr4IZeKHSO6rsPpdEKWZQwdOhSvvfZaXP/+/XfQCBFCCCGEEEJqAyqMexUr7zD0lzdee/34G2+8sTQrK8tc0AqCUCfq/FDGD6kMXdehaRqioqIwduzYe+6+++5XqJ4PIYQQQgghpDahbIlaYNKUycueffbZVm3btoWmaQgLC4PH46kTv7thGDPz8/Mp+EMuGsdx0HUdLVq0wOzZs4f96U9/epmCPoQQQgghhJDahgI/tUSv3pn/eeGFF5KGDRv2TDAYhNvtrhO/t2EYlPVDLu3kx/Po3LkznnjiiYxJkyZ9QiNCCCGEEEIIqZVrHxqC2qNNRtvsN95686EFCx8fntwwBbwoQDN06DCgaiGIsgTwHFQtBMkmwzAMCIIAnueh67r552AwCI6r+bEUVpiXVB1WM0nXa37iC8dx0DQNmqaZW7bONidkWUYwGDR/r/DwcNx55533vv766w6q50MIIYQQQgipzSjwUwtNnjx5+XPPPdciIyMDsixDFEWEhYWhuLgYiqLA4XDA6/XCMAxzMSxJElv4QxCEq2LhT6re1ZQ9xYI8oiia8xyAGQxiASEACAaDcLlcEAQBjRs3xpw5c4bPnz//paSkpAC964QQQgghhJDajIo711K9evXau3fv3thXX331zqVLlz7h8XjgcrnAcRz8fj/sdjs44/eW1qqqmoWgBUGAKIrw+XxwOBw1+nfkOI62epHTMn0EQTAzfljgh7Vrdzgc6N+/P+65554mXbp1PUAjRwghhBBCCKkLKPBTizVv3rwAwJMffPDBhgULFvypsLCwl6IosNvt0HUdoaBqZkyIoohQKATDMCBJElwu11WT9UOBn7o7lqIowjAM6LpuBn/Kg4Fm9looFILT6cTUqVMnjxs37t34xASF3mlCCCGEEEJIXUFbveqAUaNGfbdnz57Mvn37vhIbGwue5xEIBGC328HzPEKhEFRVBQCEQiH4fL6raqsXBX6qdiwNw7h6TmA8bwZ7OI4Dz/PgeR6CIEAQBDidTvTu3Rv/+Mc/Oj40Z/YbFPQhhBBCCCGE1DUU+KlDPvroo6kzZ84ckZ6eDqfTiUDg9/ImsixD13Xoug6HwwFJksytXzXd1RSkuErGk0P5NrqajhV3ZkFLnuehaRoURUEoFEJqairuvvvuKUuWLAm75rprt9K7SwghhBBCCKmLKPBTx9x1113/fvbZZxuPHTt2TmRk5GmLZlVVYRiGmTFxtaCMn7qJ1fZhdanK5wLi4+PRvXt3LFq0qMPsuXNeT0lt6KHRIoQQQgghhNRVVOOnDuratetBAIvfefv/dr/66quf7d27F+L/t3fvIXaX6R3An/M7t7k5ooEQE00nqcSswuRijMqKxFjSJm4imipBze7a7R+Fdd2FKpWCvUBJC6Vr2bJgUXpx0tRWrLGjCY6aWPDShk2ik9pNlaxRkdDsIgkTM3PO+V36x+QcJ1HZi5PEy+cDw2GGcziH5x0G5svzPk+lEl1dXVEul6PRaHQCIL5cPk8hWpqmUa1WO50/RVHErFmz4tZbb73rzjvv/PsL51503IkCAABfdv6z/xL7+je/8dTmLf/U/+3v3PXdWbMviKIU0crSyIo8ytVK5FFEqZxEK0sjjyKSSjkiKUUkpQ87hT7F16f+5U2S9layqtOcHnmeJ3GmrtDleRRZFnmaRuR5JBFRSZIol0qRRESpKCJrtaLIsqhVKp3n1yqVaA8pz4o88iiir/+cuPm318cjm4fm3v/Hf/RDoQ8AAMAkHT9fcvPmzRuLiB+88MILOx566KF9r7zySkxMTESj0Yh6vR7NZjOKouhcpWm1WpEkSXT39kTabJ3Vz26+z+fbx80Ram/kKooiGo1G9PX1RZ7n0Wq1Ohu8siyL3t7emGg2oqenJ5YsWRLr16//2urVq7fPnDkzV1kAAIAPCX6IiIgVK1b897vvvtszPDy8duvWrf+yb9++aDabnVXv4+PjkSRJZ837+Ph4VMuVONv/ZQt/pr2eZ+yqV1EqRRERceIxn/wAneCn1tUVzTSNJEmiKJUizfMolUqTG+fyPBYsWBDr16+/c82aNdsuvfTSw04PAADgowQ/dFx00UXjEfGvr7/++n9s2bLltocffvj7WZZFrVaLrq6uSNM0ms1mRMTkNZtWqmhfMGcy+CmVSp1V7FPe/8M/TpVKpGkajcbkBvZarRatVivOO++8WL58+Q9//957/vLyyy9/+5577nFwAAAAn0Dww0dcdtll/xcRD+zatevJoaGhjc8888yfHDlyJOr1emRZFhMTE5OblJKyYn3BFEVROtNdVO3wZ+r7lkqlaDQaked59Pf3R5ZlUa1W49prr33gtttu27Lqt37zR1se/WcHBgAA8HMIfvhEy5cv/0lE/OnIyMjwY489dsvIyMh94+Pj0dPTE0VRRJ5mZ/XztYMC69w/n4qi6Mz5aT+2f1YqlSJJkkjTNNI0jcHBwdiwYcPar3/zG0/9wyP/qHgAAAC/IMEPP9eqVav2RMSeRx999PnHH3/82b1798bhw4eju971mQgPmNZ6lqIdxJzm0uZ5HkmSnDTkeWroUxRFLFmyJG688cbb161b9+9zB37tmBMCAAD45Qh++IVt2LDhuXfeead3ZGRk1dDQ0Mb9//Pjm1Xli2dqJ87pfp+Pe692+HP//fdvWLly5Y5LvrLwp3fd/R0HAwAA8CsQ/PBLmTt37vGI2BoRW4eGhlYPDw9v27NnTxw5ciQiIsrlcqRpGj09PdFsNiNJkmg2m1EulyNJkshPbGZqtVpRLVdOmu0yNQgolUqd9d1FUUxucjrRJVKpVCLLsqjUqpHneRw/frwnInSDTIMsy8q1Wi3SNI0syyJJkiiXy53at88hTgQ05XI5SqVSZFkWRVF0Onja69ir1WqUy+XIsixKpVI0m82o1WqRJElkRR6lchLZic6fvnPOifnz58fatWtvv/nmm//twgsvnHAiAAAAn47gh1/Zxo0btx88ePCcXbt2LR8eHn7+5ZdfjmPHjkWSJDE+Ph4REWmantTV0Q4O2ld52kFBO1RoX/Nphwnt1yVJ0nlNs9mMarXaCZX6+vqEPtOo2Wye1IXzSdfpiqKIVqvVCenaZ5Zlk7Of6vV6RES0Wq1otVrR3d0dvb29cfz48eju7o4iLSJN0+ju7o7BwcFYt27dLStWrHhh4cKFP7v77rsdBAAAwDQQ/PCpDAwMHIuIHYcOHart3Lnzuu3bt69+9dVXv3f48OGTAoJmsxlFUXQCglKpFKUiPjbwaXf4tEOBJEliYmIi0jSNer0e5XI56vV6NNNW1Gq1h050ITEN+vr6jpXL5SiXy9HKmx97Dasd5LU7r/I874Q9U4O9iYmJqNVqERFx/vnnx9jYWBw/frwzHLy/vz+uueaauP7669cuWbJk76JFi95zAgAAANNL8MO0uOCCC1oRMRIRIzt37vy7p59++oZHHnnkzxuNRtRqtU5g017TXRRFFPlkgNDu3knT9KQOkkqlEmmaRpwIj9pXjkqlUnzwwQdRKicxf/78n6j+9BkYGDhYq9XiyJEj0dPV3an9VO0w6NQrfFM7uCIiursnX58kSRw9ejRqtVr09vZGpVKJhQsXbr77e9/96wULFrwxb968MZUHAAA4PQQ/TLvrrrtuX0Tse/vtt//miSeeuOmpp54aeuONN2JiYnJkS5Zlk8FOdbJjpNVqdUKDdgjUDg/anSTVarUzN6a7uzuyLIuevt64+uqrX1Hx6bNgwYI3BgYGYv/+/Z3unjhlzXpMCeKSJOl8P1We5yfN85k5c2bMmjUrli5dev8dd9yxeemyyw8+vX2bggMAAJxmJSXgdDtw4MC5e/bsWbpjx44du3fvjvfeey8ajUZE/mF40A4O2nNiWq1WJEkS9Xq9c/Vr6nMajUZ8bd3a2LRpU6+rXtPr3nvv/YPNmzf/ReQnD9aOKd0+ccq1rnY3VvvqVzs0mj17dgwODsaiRYu+tXbt2uFLvrLwpyoMAABw5gh+OGMOHTpUPXDgwK+/9NJLX33xxRcf3vWf//WRYc/5iQ1P1Wq1MyOmfaWoXC5HtVqNo0ePxuzZs+OvHvj+lWvWrNmlstPr2WefXbJp06Y9//vj/Z0ZTO2On6kdPqcO7W53cvX398e5554bN91007eXLl26Z/Hixa/OvnCODV0AAABngeCHs+Ktt946Z99ro4uee+6533j++eevP3z48DVTu0ambv3K8zy6urpibGwskiSJGTNmxH333XfT7/zut7aq5OmxY8eOwY233/Fau4Pn1OAnTmxsa59PnucxY8aMuOqqq36wevXq7cuWLfvRgoWX/EwlAQAAzi7BD58JTz755Fe3bdu2Zvfu3X/4/vvvR57nMTY2FuVyObq6uiJN05gzZ04sW7bsz2655ZbHVq5cOapqp9ebb7553oMPPvh7O3fu3HT06NEYGxvrdPUkSRLd3d3R398fF1988d+uWrVq5IYbbnh6zpw5DZUDAAD47BD88JkyOjo6e3R0dPDgwYMDx44d62u1WtXe3t4P5syZ897ixYtfvfLKKw+o0pm1d+/ei0ZHRwf379+/cHx8vLterzfq9Xpj7ty57yxatOi1K6644i1VAgAAAAAAAAAAAAAAAAAAAAAAAAAAAAAAAAAAAAAAAAAAAAAAAAAAAAAAAAAAAAAAAAAAAAAAAAAAAAAAAAAAAAAAAAAAAAAAAAAAAAAAAAAAAAAAAAAAAAAAAAAAAAAAAAAAAAAAAAAAAAAAAAAAAAAAAAAAAAAAAAAAAAAAAAAAAAAAAAAAAAAAAAAAAAAAAAAAAAAAAAAAAAAAAAAAAAAAAAAAAAAAAAAAAAAAAAAAAAAAAAAAAAAAAAAAAAAAAAAAAAAAAAAAAAAAAAAAAAAAAAAAAAAAAAAAAAAAAAAAAAAAAAAAAAAAAAAAAAAAAAAAAAAAAAAAAAAAAAAAAAAAAAAAAAAAAAAAAAAAAAAAAAAAAAAAAAAAAAAAAAAAAAAAAAAAAAAAAAAAAAAAAAAAAAAAAAAAAAAAAAAAAAAAAAAAAAAAAAAAAAAAAAAAAAAAAAAAAAAAAAAAAAAAAAAAAOAM+n8kVPOLC5i+mQAAAABJRU5ErkJggg==;" parent="1" vertex="1">
          <mxGeometry x="300" y="160" width="260" height="105.13" as="geometry" />
        </mxCell>
        <mxCell id="XNyWhRnu9zckB0rVUKcg-3" value="" style="shape=image;verticalLabelPosition=bottom;labelBackgroundColor=#ffffff;verticalAlign=top;aspect=fixed;imageAspect=0;image=data:image/png,iVBORw0KGgoAAAANSUhEUgAABLAAAAJYCAYAAABy5h8aAAAACXBIWXMAAAsSAAALEgHS3X78AAAgAElEQVR4nO3dT3LbVrYHYKCr58pbgdQrsLICK3NWRVmB5SknVlYQeQWRJ5xGXkHLVZxHWkFLK2hrBW2tAK9AXNqyrD8kBYDnAt9XxUr3ex0JBAiK98dzzymrqioAAAAAIKp/uDIAAAAARCbAAgAAACA0ARYAAAAAoQmwAAAAAAhNgAUAAABAaAIsAAAAAEITYAEAAAAQmgALAAAAgNAEWAAAAACEJsACAAAAIDQBFgAAAAChCbAAAAAACE2ABQAAAEBoAiwAAAAAQhNgAQAAABCaAAsAAACA0ARYAAAAAIQmwAIAAAAgNAEWAAAAAKEJsAAAAAAITYAFAAAAQGgCLAAAAABCE2ABAAAAEJoACwAAAIDQBFgAAAAAhCbAAgAAACA0ARYAAAAAoQmwAAAAAAhNgAUAAABAaAIsAAAAAEITYAEAAAAQmgALAAAAgNAEWAAAAACEJsACAAAAIDQBFgAAAAChCbAAAAAACE2ABQAAAEBoAiwAAAAAQhNgAQAAABCaAAsAAACA0ARYAAAAAIQmwAIAAAAgNAEWAAAAAKEJsAAAAAAITYAFAAAAQGgCLAAAAABCE2ABAAAAEJoACwAAAIDQBFgAAAAAhCbAAgAAACA0ARYAAAAAoQmwAAAAAAhNgAUAAABAaAIsAAAAAEITYAEAAAAQmgALAAAAgNAEWAAAAACEJsACAAAAIDQBFgAAAAChCbAAAAAACE2ABQAAAEBoAiwAAAAAQhNgAQAAABCaAAsAAACA0ARYAAAAAIQmwAIAAAAgNAEWAAAAAKEJsAAAAAAITYAFAAAAQGgCLAAAAABCE2ABAAAAEJoACwAAAIDQBFgAAAAAhCbAAgAAACA0ARYAAAAAoQmwAAAAAAhNgAUAAABAaAIsAAAAAEITYAEAAAAQmgALAAAAgNAEWAAAAACEJsACAAAAIDQBFgAAAAChCbAAAAAACE2ABQAAAEBoAiwAAAAAQhNgAQAAABCaAAsAAACA0ARYAAAAAIQmwAIAAAAgNAEWAAAAAKEJsAAAAAAITYAFAAAAQGgCLAAAAABCE2ABAAAAEJoACwAAAIDQBFgAAAAAhCbAAgAAACA0ARYAAAAAoQmwAAAAAAhNgAUAAABAaAIsAAAAAEITYAEAAAAQmgALAAAAgNAEWAAAAACEJsACAAAAIDQBFgAAAAChCbAAAAAACE2ABQAAAEBoAiwAAAAAQhNgAQAAABCaAAsAAACA0ARYAAAAAIQmwAIAAAAgNAEWAAAAAKEJsAAAAAAITYAFAAAAQGgCLAAAAABCE2ABAAAAEJoACwAAAIDQBFgAAAAAhCbAAgAAACA0ARYAAAAAoQmwAAAAAAhNgAUAAABAaAIsAAAAAEITYAEAAAAQmgALAAAAgNAEWAAAAACEJsACAAAAIDQBFgAAAAChCbAAAAAACE2ABQAAAEBoAiwAAAAAQhNgAQAAABCaAAsAAACA0ARYAAAAAIQmwAIAAAAgNAEWAAAAAKEJsAAAAAAITYAFAAAAQGgCLAAAAABCE2ABAAAAEJoACwAAAIDQBFgAAAAAhCbAAgAAACA0ARYAAAAAoQmwAAAAAAhNgAUAAABAaAIsAAAAAEITYAEAAAAQmgALAAAAgNAEWAAAAACEJsACAAAAIDQBFgAAAAChCbAAAAAACE2ABQAAAEBoAiwAAAAAQhNgAQAAABCaAAsAAACA0ARYAAAAAIQmwAIAAAAgtH+6PABkbTrZL4ripyeewudiNv/sIgMAQL7KqqpcPgDy0IRVB+mxVxTFqzWO+7ooiquiKC6KojgvZvMvrjoAAORBgAV9+7YA308L8NdPHMFtWnBffV14qyRhbJp75qgoisOiKHZbfPZ1oHUqzAIAgPgEWNCHZgF+nIKrly7ArxcL7qI4E2YxWNPJTymwOmk5tHrI7eJ+qsMs9xQAAIQkwIIuTSdHHS/ALxc/fza/cB0ZjOnkJAW+Oz0/pdtUkXWqIgsAAGIRYEEXmuDqtMcFuCCL/HUf+K7qZrFl0f0EAABhCLCgTdPJQdqKtK0F+KdF5YptUOSkuW9O12zI3ocPxWx+7LUEAADbJ8CCNjT9eurKkXdBzueHVJFlGxRxTSd7KfB9apDBtl0vete5lwAAYKsEWPBSTYP2s4DVI/r5EFMTXNWB75tMrpAQCwAAtkyABS/RbH0630Kz6XXcpGqsM9earWoqFY+31KD9pYRYAACwRQIs2FTTcPqvjM7fTeqPdR7gWBib/gcbdEGIBQAAWyLAgk3kF17dZWIh/ZlODlNwte3Jgm25LGbzg2E8FQAAyIcAC9aVd3h1l4mFdKfZXnsSvEH7pt4Xs/lJnocOAAB5EmDBOpqG7ReZb4O672MKsmyL4uXya9C+qZ+L2fwqz0MHAID8CLBgVU0D6qsBbYW6y8RCXqa5P+rg6t1IzmTdU27f/QIAAP34h/MMKzsbaHhVpIqyP4qi+Jy2SMLqppOTxWtnPOFVkd4LbCMEAICeqMCCVQyn79WqTCzkec19cTLgYHcVvxiIAAAA3RNgwXOarVGfB9b3alUmFvKjpkF7veX0lbNTXBez+X6A4wAAgEETYMFzppPTkW2NeoiJhSwbtJ8NdLLgS7wtZvOzfA8fAADiE2DBU5oF+3+do69MLByj8UwW3JQqLAAA6JgAC54ynZxZtP/AxMKxaLbPHqdH1C209evxIj2u7v3/flpMCiyKwx62O/5czOb3fz8AANASARY8plm8/6+H81M3TD9PC/DP3y2Cp5N68V1XvxykRXikZtm3qRrL1qkhahq0nwYOrm5Sf7bVXn/dV5F9LGZzEzwBAKAjAix4zHRSV5382eH5WX/SX8ypb+sFCcQ2nRym4CryZMEP6TW3fgVgEwqfdVCRdVvM5j+1/DMBAIBEgAWPmU6uOtx29L6YzU82+jebyrDTgFsbTSzMWTNZ8CSDBu0vb5je3EMXHdzfv3j9AwBANwRY8JBum7e3M7Gsqcb6q5UjalcdZB2ZWJiJvBq0/17M5qet/KRuQqzNg2kAAOBJ/3B64EEHHZ2W961ttWt+zsdWfla7Xi/Cv7oBfhOOEFEd4EwnpymozSG8umwtvCoW98+X1FeuTV29bwAAwOgJsOBhbS9si7QAb7c6o2kafdPqz2zPm8VUuOnkJFW7EEV9TeqBAUXxLqNr0n6D9KZK8H2LP3G/xZ8FAADcIcCCh3WxEO1qa1HkLUv1BLs/FmFJ0xSfbaq3nU4nn9M1iTpd8CGfOtyS2ubwgZzOKQNVluVBWZZVLo9croLzCgDbJ8CCh7U9ge26s+bOzVbCqFVYSzuLiY51eNL07qJPdYP2ZijBX8GnCz5m9Umd62qCscvWfl7TDB8AAGiZAAvu62YB2maVx0O6W+C3a3cRokwnFxb6Pah7kNXnuij+7nCiZh+6fn2bHAgAAMEJsKAfXS+Qc1uAv16EKk2QpdF725rg6iw1aH+d+bO5TQ3XuyTAAgCA4P7pAkEPZvOrjn9J1z+/K8uJhR8Xvby663M0Dk2z/OP0GEo/plxf2wAAQItUYMGP8qsIyj/4MbHwpZreYjk2aN++rvrTAQAArRFgQfeiN1iP4u7EwsiTFWOZTg7TZMG/BFcbso0VAADCE2DBj9quZspx6ts2NUGWiYVPayYL1pVD/x74a6yPijwBFgAABKcHFgzBMLfdLScWNj2dbPNqNNVCJ2nb5Rj0MT2xzQBLHzcAAOiACizow3Sy3/Fv6frnb9OrOxMLh/w8n1aHlNPJaZosOJbwqpHT/WMQAQAAdEKABfd1U+nT9QL8oOOfH0E9sfA/xXRyNrqeRU1PsDoYeRfgaLah662khy39nMuWfg4AAHCPAAse1nbj9bYWyNv6+ZG8WVQhjWFiYd0DrGnQPvbJgt0FWHUT/PZ6iF219HMAAIB7BFjwsLYXor92VjVUN/Pup09QNMOdWNg0aL9KkwUNAajDu6YXWhfafP0IsAAAoCMCLHhYF9sITzs618MLcFY3rImFdcjZTBb8e6Sh5FNOWu+F1YSfbZ7n8xZ/FgAAcIcACx7WxUL019ZDlqYq5XWrPzNPy4mFV6kiLS9Ng/az1KDd9XxYHVaetbZttLkX/2jx+K6L2fxLiz8PAAC4Q4AFD2kmiV13cG5OW6siaRbgf7bys4bj7sTC+EFWE1wtG7SPa7LgZl4tqiNfuh23uXf+avnYuqqwBACA0SsEWPCksw5Oz05agL+sEqupvGp7AT4kr0MHWd8HV2Nv0L6uV4teU5v0xGq2aJ53cO/c2j4IAADdKquqcorhIc1Wpf91eG4+FUVxnKq9VtNUnpzZZra261Qhc77VbV5NmHak2qo1N+l+qK/r4w3Um0mDhx2e9w/FbN5Vk3lYS1mWB6mPXhaqqipzOE7nFQC2T4AFT2n6EnUdNnxK1RsXD4ZZTWi1DD4EVy/38c757j7MaraMHqUAxUTBbl3e++k/9dQM/19rBdHQIUFLN5xXANg+ARY8pQmP/tvzOaqrhepgZU/g0bnLNHGyDrPamTz5LXBcPlzDYXtfzOZjngRKMIKWbjivALB9Aix4Tj9VWMRwnfpSXaUQ8fFtaY29e499/axG5XZx/U0fJBBBSzecVwDYvn+6BvCs47T9SzAxfK/S49exnwhWciy8IqD4E1gBADZgCiE8p1mgGpEP3HVTzOZdTCoFAAAeIMCC1Zym7UIARarMBAAAeiLAglU0VVgWrECxaP4/m587EwAA0B8BFqyq2S5043zB6Jk6CAAAPRNgwXqOnC8YtU/FbH4x9pMAAAB9E2DBOpqF66VzBqNlKzEAAGyBAAvWZ/sQjNPHYjb/7NoDAED/BFiwrqYK66PzBqNyq/oKAAC2R4AFm1GFBeNymqaRAgAAWyDAgk0024g+OHcwCreLAAsAANgaARZs7iQtbIFhO1Z9BQAA2yXAgk01C1pVGTBsN8VsfuYaA0AeyrL8qSzLg/qfLhkMiwALXuZ0scAFhkrjdgAIqizLvbIsD8uyPCnL8qIsy7rNx/+Kovi7KIp91w2G5Z+uJ7xAXYU1ndRbCf9yGmFwLovZ/NxlBYDtK8tyP4VSdx87Lg2MhwALXqreXtSEWLvOJQyKaaMA0LO09e9+UPXKdQAEWNCOo1SqDAzDp2I2v3AtAaA79RbAB8IqXwoDDxJgQRvqhe50clkUxWvnEwZB7ysAaNGdLYB1aHVQ2AIIrEmABe05UYUFg/ChmM0/u5QAsJl6CuCdiqo9X/ICbRBgQVuaKqyPRVG8cU4hW7d6XwHAau70qzqwBRDomgAL2nUiwIKsnS6miwIA30lh1cG9wMoWQKA3/3CqoUXNtqMPTilk6WYRYEHeDlw/oCN1YPXvoij+SFsChVdArwRY0L6TtA0JyMuJ6isAAIhJgAVtaxbAqjggLzfFbH7mmgEAQEwCLOjGadqOBF279VprxdEAngMAAAyWAAu60FRhmWRGH+r+E19S7zVB1mYuF1NEAQCAsARY0JVmO9K180sPXhVF8a4oivo198sikGEdwmYAAAhOgAXdOnZ+6dEfafvqkSBrZR9VXwEAQHwCLOhSszAWItCnuhrrqiiKn4rZ/ECQ9SzVVwAAkAEBFnRPFRZ9q/ti/buYTk4XIWoTZP1rUW3EXR+K2fyzMwIAAPEJsKBrs/mV4IAteVdMJ1fFdPLTIqiZzY9SkPXJBVlMb1R9BQAAmRBgQT8slNmWZkvhdLK/+P1NkHVoa2FxmqaFAgAAGRBgQR+abUrvnWu2ZLcoiotiOjn8+uu/bS0cY5B1k5rdAwAAmRBgQX9O07Yl2IZlX6yj737390HWzUiuzInqKwAAyIsAC/rSLJhVfbBtf/0QYhVfg6y9oijeDjzIuilm87MAxwEAAKxBgAV9ms1PRlTlQlx1iPVwiNOEO/tpy+sQKwZ/DO8AAIDwBFjQPw3dieDNEyHWlxS27g9sgublotIMAADIjgAL+tZUuFw77wTweIhVfJ1YeJT6Yw3hNSs8BgCATAmwYDuOnXeCqEOsp4Odpj9WXY31e8bbCj+qvgIAgHwJsGAbmoX0pXNPEH882Nj9vtn8NG0r/JThhVN9BQAAGRNgwfaowiKSh6cT3tdsKzwsiuK3jKqx3i+OGwAAyJYAC7ZlNr8aWINs8leHWAcrPYvZ/Lwoir2iKD4Ef9Z1yHYa4DgAAIAX+KeTB1t1suhBBHGcL0KsJmB9Wj2tsK4knE7qLbF1M/idgNfxNB0nPKssy3qL7E/psX/nf79asPu4+jV49566Sv+3xX+uqqrN1+j+Cv8b2JqyLJf31937bPnfi/TlyO6Kx3d7795a9jr8nB5t318AbFFZVZXzD9vUNND+wzUgkJvFYmKd4Gc6+SmFWL+Geh6z+V6A4yCQO4vng7RQ3kv/fdsB7E1acC/Dro0W4GVZZvXBrqqqMsBhPKssy/r18nfww/wqwnlNgfDy/loGVK+3dDiXd+6r+p4y1GMDud0H9RRl1xqGRQUWbN9p6ocVsXqFcdpdVGKtU3XShF2HxXRynCoLI7yeNW6nXnDtLV6bzet5f43Kjr7t3jm274LgslxkEZd3Qq16Qfa5qiq93QgjhRvLx7aCqse8vntMd+6p+l66EHIA5EEFFkSgCouYPhSz+frDBqaT/VSN9WqLz+q6mM1tpRqpVPlxlIKrqIFVG5bbpy7SP+vHf3N6AiqwutHXeS3L8uhOQJz7F3Gf0pc350PadphC/OeHtKxmL7PWFx9T6J+r+rX4fEsHGBEBFkQxnXwe+EKLPP2WGravp9lSeLrFD7q/FLO5b9RH5M4i7ch7aT4EWN3o8ryme+043WtDrB6/TUHWyRCqHDPc9sc3tkDCPaYQQhy2OxHRWTGdrN9Hqt5SOJvXi5u3W3hOl8Kr8agXZ2VZnqXKoz+EV9CNOri6c6+9G3Drg5305ct/6+ebAjvonfAKfiTAgihm87PFtieIZSd9E72Z5nX9c/pGuy/rb3skOym4ukiVBaa5QofKsjxOW1THdq8tg6yTNAAiRy+dosp23Djv8CMBFsRi4U1Er4rp5HTj45rNr1LfjD4C2o/p9zFQ94KraI2iYVBS1VV9v/058mEzdXXnVdqOB33wWQYeIMCCSJptT5euCQG9K6aTzT+4N1MKD1KT3C7ZijtQdxbSgivoQRqGcOV++6renvx3qkaDrgmw4AECLIinrUkx0Laz1Jx9M01frMM0FagL74vZPPuGu/yo3r6T+u5YSEMP0nTB/4y86uoxf6ZeYLkwkTdPAix4gAALomkW4F0t8OEldlupcGqau79v+UrcpqmHDEjaLvg5bd8BepDCq7+c6ye9KcvyKpO+WLn27ho7X8jBAwRYENNJz02vYVUv20q4NJuftDyh8DRtU2QgUtXV36YKQn/StkFfBqzmVVEUFxk3dyewqqpUYMEDBFgQUVOF5QMkUb1sK+FSM6GwjRDrJgViDEDqdXWl6gr6lYKYC9sG1/IqnbPI9vI4ldyhHy48QoAFcZ2qwiKodrYSFq2FWMKrgSjL8jD1/Xg19nMBfRJevcir4D2xVLHmx/ZBeIQAC6JqtkNZmBNVvZWwncawLwuxrtO/T+bSZK9/W0DDVpwJjl/kTdr2DG2wfRAeIcCCyGbz08X2KIipvW2um4dYxpkPQKpe+HPs5wG2Id1/vzr5L/ZHPXgi8+dADAIseIQAC+LzjV4Ml488xhwwvi6mk6PWfloTYv2+xr9xWczm0XuP8IR621JZlvU1fOM8Qf/SxEH3X3vOIzV1F6hlS4AFjyirqnJuILrp5GIRFtCX6/pDaOoHcrXSdLtmMl/92B/ZN9l1A/V2G8ROJ2crLqh+LmZzH/Iydafnjm1LI1ZVVZnDs09BwN8BDmUlq5zXFF79FeOIB+VTVVWHEZ5Qbq9bFm6rqjLZEh4hwIIcNOGIDyDduk49QM7TFMjNNRP6DtNjDGHW+9anAE4n58+cu4/FbN5e9Re9El6xJMDqxnPntSzLfU3bO/VbVVXn2z4IAVaWLquqUjkHjxBgQS5UYXXlcrFNs6utaNNJXZ10lHo1DXWhcLsY071KpdqqmhDwqYDjXy8OGtkK4RV3CbC68dR5LctyL21REl51p24vsF9VVXt/FzeQhmPoL5iX91VVaR8Cj9ADC/Kh2qRddXD1SzGbH3TaR6kOWZrqpL1FpVIT9gzNTuu92pow7PCR8/VeeJU14RVsSQqQz4VXndsNMmTEVrT8+HwDTxBgQS6aBftH1+vFbhfT7roOru6rA5lvQdYQr+O7VG3WnuY1f7+PyG2r0w/pVZp2JryC7REg9+c4UkN3sqG3JzxBgAV5ORloBU9fLtNWt7OtHUETZB0tqr+GN8Gw/ZL3JmR8/93vaHOrIr0py/LUtDPYHgFy79qvTl6fAC0zVVUJsOAJemBBbqaT+sPQH67b2tpvNP5STZ+ns4E1ev+lk8q2pgfcXusTD+mFaWc8Rg+sbtw/r2VZ+uywPf+3rV5YZVnqn5qX66qq9sd+EuApKrAgP6eqsNay3DIYryFmU41Vb5H7EOBo2tLVeT7UBy5PadqZbZ+wJSlAFl5tT4ReWORB/yt4hgosyNF0opphNXV4Vfe6il+OPaxr+lsxm299fDjbZ+Igz1GB1Y3lec3tuAdqMal3G1VYKrCyYwIhPEMFFuSo6eE0tP5JbcsnvCq+XtO3AY6kDaptWDoVXkH/6uAihRe+TNi+nQcGkvRFeJWX/oYLQaYEWJAv39A87TCb8GqpCbGGsJ1wN1WUMWJlWR5q2g5b8zo9dlyCEGwjZBW2EMIzbCGEnE0nnxdhAfe93eqkwZeaTs4H0Nj9NjVdNzFwhNLWwc8WzzzHFkJG5Oe+J8yVZWmhl4/bqqpMjYRnqMCCvKnC+tHHrMOrxtEAtoju+MZ51M6EVwDf6bUyuSxLU3vzkteuAdgSARbk7dxEwu/cDCI0aaqWhrAF77iYTnyAHpm0dTD3CkKAtvX9d93f37wIsGAFAizIWRN05F5t1KajwWxZm80vFtVkedtRJTguaeugJv4AP9pJAT88RP8rWIEAC/InwGp8TKHPkBwPoMLuTTGd7Ac4DvpxrC/fk+r7+XKFBzBMBz0+K/2U8qICC1agiTsMgWbusRuGNwHOT4sPJ+se43RSVzD90dmx9eOymM37/NDOFoyscftleq7148v9hUdVVa2H6WVZ7t9ZkC7vp+X/LdtR+Zq4Z+1mzaqRbF+nLbqpqqqXrX1lWQ7h88No5PJeCNv2T1cABqHuhfVuxJfyNER4NZ0cpIXlQeo98WOoOJ0s/9N1+uB/sXjM5o9983Y6gA+grxfnZngVcnzvZMDh1XV6n73oIpxaxb3pZT8cQwq49lMV3KttHCODcHMnnL0f0H5pY4peeq3updfrQfrnWIY+7NbPv+9phISX++Ae6I0KLBiCpsLnPyO+lv+3tQCrCa3qxqyHL/wAfpPCqrMfnst0crbYipe362I2t5VwoAZafXWbQqvTnBabuVVdqMDamusUTC2/SGklnNpUCrWWf0uHXlH+e1VVnfcKTFMI2672qq/Tny3/zC59zKS31OeqqrQEgRUIsGAoppMvIx1bX/e+6n9iXxNcnXSwJeJ28XNn828fbqeT+gP9v1v+PdvwtpjNfUAboAFuVflQ34dVVWU3FEKA1Y0BBFhfqwjr4Cryazud66MBfHHzmMuqqrLcVp/hffDLtqpmgW5o4g7DMdY/0P0GItPJXjGdXKQPcF3089hZfLs5nVwtflexmEh4PoBm7sUimJtONJUdpuOBPKt6kf9zVVXHOYZXcM/l4ouDovi/qqrqbWt1KHsR/bWdjrEOsP41gGm8D9ELDGBDAiwYjjH2U7jpta/SdFIv0v/b04fPV4tr+m2C3xACyt0BBR0kZVkeDaT680Na5OtNwxD8Vlf51NuScg1jq6r6nIKsX4bWIyhVMgGwJgEWDMcYK7D6ec511VDTh6rvvg87i+fYhFhDWVQfq8IanCGEkm/rqqsAxwFtGUwFYdoCtj+waiw9IQE2IMCC4Rhj1cB557+hCVsuttiLY2fZs2RLv79tO6l3GAOQmgTnPvHurea5EFtdRZaqsYYSYqnAAtiAAAuGYltT+Lar2wqsb+HVthfoQwt93n3t70Xucq9aEl5BRgYUYqnAAtiAAAuG5XJE1/O2h9AuQni1lHuVy32djxCnF4cZn+YPwivITwqxcv+8s1uWpe30AGsSYAG56nZLXdPzamihUSS/FtOJLRQZK8tyPzXmz9GlnleQtaMBXD5VWABrEmDBsIypD9bnzn7ydHK4xZ5XY6IXVt5yrb66HcjiF0arnlA4gK2EAiyANQmwYFjG1AermwCr6XtlW1E/XhfTiSAhX7kGWCdp8QvkLfcvQfSCBFiTAAvge6epaTr9UIWVodS7JccttjdVVem/BgOQguhPGT8TFVgAaxJgASw1k/FsHezXbjGd6EWUn2yrrwIcA9CenCumVWABrEmABfCNxe12nKStm+Qjxwb8N6YOwrBUVXWe+trlKNchGABbI8ACKFRfbVm9ZVMVVl5yDLAE1PFcjv0E0IrzXE9jmuYKwIoEWECu2i69z3VL1FD8kUJEgkv9r3KrHLjNeZELPCnne1v1McAaBFgwLGP6Jq/tsMM0vO1TIZOHHKuvzquqGtOUVhiNtI0wV764AViDAAuGZUzf5LUX1jX9l3KcqDY0b4rpxHaK+HK8RnpfwbDluh1VgAWwBgEWDMuYAqydFrec5VhRMlSnYz8BGcjtfrmtquoiwHEA3XGPA4yAAAuGZWxVRG0tpFX9xPG6mE4EirHldr/ofQXDl2uA5e8dwBoEWDAU49x6JcAaJtu9gkoN3HcyO2yVGTBwqiwBxkGABcMxxj4KbU0ONAUolt1iOtFUP6Ycw14LWxiHG9cZYNgEWDAcYyxDr/tgtRViEctpaq5PLLkFWHX/q88BjgPo3lWG51gFOCW7KzEAAB5RSURBVMAaBFgwHGPtoyDAGqZ6m9rx2E9CQLlVeua4oAU2k+P9ntuWbICtEmDBEDSVKmNr4L70RqXOYB27tuHkVi1g+yCMh2pLgIETYMEwjH2KjUqdYdpZbCUkEhVYQFQCLICBE2DBMIx9G51KneGqK+zGOKAgqt3MjvdLgGMA+iHAAhg4ARYMw9gDrJdW6ljkxnY29hMQQVmW2QWJRuvDeOQ6sKEsS1/AAaxIgAW5m06ONAFdqCt1Nt1KaZtRbK9fcG1pT24BlpH6QA5MIgRYkQAL8jf26qu7zjbcSijAik8vrO3LrUrAdiIYn0vXHGC4BFiQs6Y30K+u4Ve7GwYdAqz4XqVqQ7YntyoBARYAwIAIsCBvpu/96M3aQcds/tl2oyycjP0EsBYBFgDAgAiwIFfNVjkVKQ/7q5hO1t1aed7XwbGx3WI6EWJtT249sAxngPFx3wMMmAAL8nWsefuT6n5Y62x5MukuD8cb9jnj5XILsGwNhvFx3wMMmAALctQs4G0ffFod7l2sPL1uNr+yjTALO7YSAgDA+AiwIE8nqq9WUp+jv9foiSUYycO7NMAAnmIrEQDAgAiwIDfNwv2d67aWuifW2bNbz2bzM1VY2RA29u91TgdbVZWtREAOhO0AKxJgQX4s3DfzZtEb4/kthbZm5uHNyttDASAoYTvA6gRYkJNmwf7GNdvYbtpS+Hg11mxeTyP8lMWzQZgLAAAjIcCCvFiwt6MOAT8X08nJI72U6p5Ztzk+sZF5XUwnh2M/CQAAMAYCLMhFU32VVQ+a4OoG738URfHfVJH1LQiZzet+FLan5eF07CcAAADGQIAF+bBQ705dkfXvYjr5ksKs5dTCt0N8sgOzW0wn+pZ1rCzL/cwOWQUlAMDACLAgB02g8sq16txOCrP+KoriP+mfFsLxnTw7YZKXyu38aooM5MDkY4A1CLAgD3pfbc/OWJ94RnZMjwQgQ59dNIDVCbAgumZ71K7rBE86fqQhPwDj4e8AwIAJsCCyZluU6it43o57hTssYmGc3PsAAybAgtiObWGDlb0pppPcmo3TDVWrQA706wNYgwALomqqr/T1gfWY1glALr64UgCrE2BBXKeqr2Btr4vp5MBpAwCAYRFgQURNM+o3rg1sRBUWwDi9zuxZ20IIsAYBFsSkGTVs7lUxnRw5fwAEZwshwBoEWBBNs/0pl+qrmwDHAA85SX3kGKmyLDX0B6ITYAGsQYAF8eRUffW5KIrrAMcB9+0agjB6AkwYkRxD66qqbCEEWIMACyJpqq9y6t/wOgVutwGOBe47VoUFMBre7wEGToAFseTY+6pumG3qGxHtaOg+antjPwFAaCrYAdYkwIIomqbTuU3PKdJWrbps/22AY4H73qSpnrxAVVUXGZ4/1x3GJbcv0/S/AliTAAviyHny4Ekxm58JsQhKFdY42U4ERKb/FcCaBFgQQVN9tZvxtdhdPIcmxPoY4Hjgrl9TfznGxRRCGJfc7nkVWABrEmDBtjVNpodQIdJUkM3mR0IsAsq5wpHNqMCCccntns9xazbAVgmwYPuOU7Pp3O2mSjIhFhG9/vr6ZCxeudIwKiqwAAZOgAXb1FRfHQ/oGpyk5yTEIiJVWC9zm9sBl2WpkTuMR1ZfBlZVpQcWwJoEWLBdJwOpvlra/S6Qa0Isjd2Joq4SHFJg3LccF1sCLBiBsixzq766CXAMANkRYMG2NKP93w3w/B9/rcIqFiGW6YREcvLd65Oh07wfxiG39/XPAY4BIDsCLNieoW5n2vnhuTUh1i85bkFicHYGtm2Xp5lECOOQW1itgTvABgRYsA3TSb2oejPgc/8uVZh9M5tfpA+YQiy27Y8fXp+sIseKAdcZxiG3e13/K4ANCLBgO05HcN5/fI6z+VX6kHm9lSOCbzR0X1+OAdarsixtGYXhE2ABjIAAC/o2nRwsRvoP36/puX5vNv9SzOb7JhSyZW8efH0yRLYRwvDl9LnqtqoqPbAANiDAgv6NqfLj8UqzZkLh770eDXxPFdZ6vuR0sHcchjkSANVXABsTYEGfppOjkVRfLb1Kz/lhs3kdcP2sLxZb8loV1lpyXXS5xjBgZVlq4A4wEgIs6NcYKz5Oi+nk8R403/piXfZ6VNA4cx4GTx8sGLbcqiwFWAAbEmBBX5pKpN0Rnu+dZ4O7pi9W/Q3q+96OChq7T1YJclfOPVtsI4Thyur+rqpKgAWwIQEW9KGpQBrD5MHHvCumk+cbKc/mddD1iy2F9OzpKkEWMm86LMCCASrL8jCzLwdVm/fLEA8YGAEW9OM4VSKN2WpbtWbzi7Sl8JPXJj3ZSfcoz8s1XP61LMvcxuwDz8vtvVv1Vb98OQUDI8CCrjWVHRbHTUP31c5Ds6XwME0pVI1FH45VYa0k5+lZtorCgKTqq9wG45wHOIYx8cUFDIwAC7p3ovrqq5NiOln9w0QzpbAu/77u/MgYu52Rb/Nd1Zc8DvNBAiwYiDSYIbf37NuqqnL+EiBHAiwYGAEWdKkJa945x1+tHxLM5p+L2Xxfg3d68GatgHWccl587ZZlKcSCYTjJcDCO6qv+6YEFAyPAgm49PX1vnH4tppP1Gyo3Dd5/Vo1Fx1br1TZeOVdgFd6TIX9lWR5k+uWgAKt/O/ofwrAIsKArzdS9N87vg8426jc0m1+pxqJjr4vp5MBJflTu21/qKiw9CSFTKYzINQjSwH07/E2HARFgQXf003nczosqXVRj0S337uOG0L/lxDfykJ/U9+o8076in6qqyr2CNVfrV/0DYQmwoAtNBUduk3H6ttlWwqXvq7FMKqRN9cRMvZIekBZgN+EObD0vC9CB3qXw6mLx/pwn2we359f0+gEGQIAF3dBnZTVnL26a3VRj1UHWZX+HzQi4hx83hCqs17YSQh4GEF7V0weF5tulCgsGQoAFbWsqN1RfraadSohmUmFd9fZWNRYt2S2mEyHWw4bSx+VPUwkhtgGEV8WQqq+qqsr1/d/fcxgIARa0zx/J9bxuLSiYzeswrK7o+tjf4TNgxxsNGxi+ITUi/kuIBTENJLwq9FUMwQAPGAgBFrSpqb7adU7X9kea2vhys/mXYjavr8MvA+jVw3btCKR/VFXV1cAqHYVYEExZlvtpu3Lu4dV1es8cklzf/0/S6yqkerhIWZaHZVnWx3khcIOHCbCgLU2lhm/ZNnfearXLbH5RzOZ7mrzzQu9e3KdtmIY2Dr4Osc5zbfRbH3cdwtXPYfGFAGQqvZbrLw7+M5AvBIf4uTDXQK7+Uuo8whTaB8KqekDKf4ui+Hd6D389kH6T0DoBFrTnONPRzlHsdjIZ7FuT90+5nhi2ThXWj4Y4UevXoig+pwVF+CArLYCOU2j1vzqES88BspNez/V77ecBhbC3A32v/BLgGDZVf9a8KsvyoI9fll7XB+nvylkKq6oHwqqH1g85n2foTFlVlbMLL9VUDn0WYLXifQqd2jedHKSQzDZP1vXLoqqPhfQN9n8HfDaWC8/zqqpCLEBTqHaQHocDeR+7rKqql4XkS6UF7985HGvyKVVwXKWF8FVVVaEWxGk7V31ejwawVfAh76uqGtwXICloHELIeJk+E15UVfV50x9yJwyrX8/L9+mfXvqarqqqfMm/D0MlwII2TCeni61GtKXbsKBpGq9ijnVcpkmXJGVZDqE/zaqWYcBFH1O4Uli1f+dxMNDgXYDVv+sUaH1Oj+LuluAuXt8pqFq+pvfSP4c+rbkOwfeihYZtSD0D/8r/mXzn9s6WvasHqp+Wr9+lvY7fk2+rqjJEBh4gwIKXavrjDLkSYRtuFwu22by7/f/fepa9iXwiCOW3YjYf4naQjaQGs39meOhtuE6L/6s7QcCXdZo13/nWfu/eY39E4boAK7bbF/Th6XqBH93HqqoGORxipPdC37J5b4S+CbDgpaaTMyFIJ65TiNXtt5fNtsKTEXwbzMvdpMEAjGMbId0TYDFEdfC3/5JtadGlPk5051NVVYfOL/xIE3d4ielkX3jVmVe9ND9tphXWC5O3i4ACHrdbTCfGWidpcXYZ4mAA4jgdcniVXIc4iuEygRAeIcCClxnieORIXqcKt+7N5mdp68779O0pPOQkbT+l0c/9CZCH25F8NjTUpFsmEMIjBFiwqWbrmW1n3XuTmq53r96u2ExArIOsjwM+p2xuJw0AoKnCOhP4Anx1MsTG7Q9QIdQt5xceIcCCzQ1uNHJgfxTTSX/NUGfzz8VsXv++n22R4gHHaXgDDVVYAEVxU1XVWCrzDTQBtkKABZtowhTVV/36q9cQq1gEWVepP9Yv+mNxx44A+zu2UgMUxSCnDj4kVZnpg9WRqqps0YRHCLBgMxav29F/iFV8bfS+lxq92y5Fkba27jsTX5u523ILjNmHEYYOQhagdwIsWFcToOw6b1uznRCr+NrofU+jdxKVR9/YRrh9N2nLs23P0K+bkX6x6X2/G97D4QkCLFhHM33MonX7thliLRu976k6Gb3XaZjD6KXKAx+6t6feyrNfVdVB/RCwQ6+ORtK4/TtVVV1prwD0TYAF6zlO/W/Yvu2FWMXXIKv+/f8SZI2aQPsbW6u3ow6rDu8toG3tgX6McevgXaqw2uf9G54gwIJVNdVXxufHst0Qq/huYuEvKlBG6dXWX4NBpEWcMLdfdXh1kPqQ3WUBBN27rqpq7J8LBVhArwRYsLoT1Vch1SHW9j9ANo3eDwRZo3SaAm6a90nb1/pznLbx3CfAgm4twuOxn+MUnn8KcChD4v0bniDAglVMJ3W/o3fOVVh/FtNJjG8BvwVZb/WGGI2dMY1Pf0pazNhW2Y+3VVU9+L6XQi1BInRjWfk4ur5Xj/CeD/RGgAWr0dslvjfFdHIephKmnlg4m+8JskZj7NtIvqqq6iQ1Fac7Hx8Lr+7wLT5047HKx1EyxKNdI++pBs8qq6pyluApTfXVfzs+R5dpsVF/ILr7jd5BmnZX/3PXdVrJ9aIaZjaP9eGy2eZoG2q76mt9/vXeqRvrLzVB5n66d456un9+K2bz896efWBlWdbn/j9jPw8dqcOrZyv+yrI8XlSnxnaZpiaGV5ZlfZx/5/ZioXWPVj6OmfujPVVVlUN5LtAFARY8p9ma9qaD83STAo3z7xbej2nG9Z8sRvfznNsUYsUKE74NAjDN8mUuF/dCvV1zVc39c7pout6dj6mhP/kEKLm5XnXrUiYhogCLnAivnlCW5YXPqC+WzXsibIsAC57SBA7/6+AcfUgL8PX7J0wnh2nqiwDkeR+K2Tze1i5B1kv8Xszmm/fbmE5OO+1nN5v75vSOsizrEPnXMAeUt5XDq6WyLL8Ef48RYJEL4dUzyrLsY8fC0Amw4Bl6YMHTuqimeLsIVTYJr4rFAvk8bYvSoPd574rp5CrchLj62s/mJ2l76HvXcmVvXxReFYtzf5z6knWjCZj55kg/rFZs2jRaLxV4mVvh1WrSEI/3ORxrYN6z4RkCLHha2wHW20Vz75dq+jsJsZ53vahy2jQs7Nq3IGt/sf2Mp/zeyr1TpAb7TRVkF3xzekcKXA4MMniRl0w8sxiCzS3vPeHVigzxALomwILHNM3b2+yX86m1BXjxNcTSb+dhNyks3F+rT9K2zOafU++kfwmyHnT54sqr+5pKrC5Clf0OfmbWUvByKHDfyHIBvelQCgEWbKbutbhn2uBGjrzfb8x7NjxDgAWPa3Mr0G0nYVOzndDo4m9uU/n6fqthYV8EWY/pKqjtoj+aBrYPSItAVaPre9G4/vTvOuewuvp++b3uQ7Rh1ePopfedeP1HgUEQYMHj2twKtNqkwc20W5mSrw+LnlL1lryoWwZXJci663JxPrrQBMDtV2FF67kWRFrU7NlesrK2+u74Rh9WU/+93a+qyueqF0rvXV1t1R+sqqq8X8MzBFjwuDYDrO4+DHW1CM/Hx0XQ85LG+FEJsopF+Jvfz7eN8BF3emJ9CnmAcbTZNNqCCJ62bNR+lBqR04Kqqo59CQe0TYAFD2n6X7U1evw29avq0hgXKPXWyV8WAU9XFTpRjDvI6vq1bXHfszrEqqrq0LSqR/3ectNor3F43MfU60qj9g7UoaAQa2VagsAKBFjwsL0Wz0sfDUDH9I1hXW32WzGbH2TRoL1NYwyyug9/NejdkjSt6mcTCr/zse3tS/pghXSTqhBdl+1ZVG+nqiu9rjqUQixfWACtEGDBw9rcPtjHB6MxBDm3abLgXto2OV62FrZn6NV7wdXhSlVVe2lxM/bF/Me00OuCKqw4PqU+S4dVVf20qCRuegXpDde9m/Re83+2C/YrfWHxm/f5J3mfhhUIsKB7KjxeZjlZcC/LyYJdGn6QpZx+JNLiZsxB1tsOw6vCwiiE+nX9Wwquvn6xVTdtrnsFVVVV9877v7TIF2i15yb9ffy5Dsvr9xoVV9tRVdV56hHpbzuwMQEWENnHwUwW7NJwg6zXAY6BnqTeWMsgayzTq25SqNF1OC/A2q7L1GfpyerhdA+cPxJoWfSv7jqds2VodZS20rJlddVbVVUH6XVt+3hjGbL6khZW8E8nCR7U5hj8NrcjPmZoY/vrD+rDb87etuZ8HRXTSR0C1I83w3qCHZhOhnbvZC9VRxyXZVn3gjpevKbbG6oRRb2N7LyvxtH14r0sy9sBnsfo6nN+smlfs3QvnN+dllqW5UGqYlk+Xo3lZD7hJoW0i4etgfGlMPe8LMuj9Hlld0RPf/l6vUp/B7xeYQ0CLHhYm4vaPhbIQxnbf7n4IDO25uxtG1KQNZ3sd9zIvYt7R7VgC9KH+uMUZtVTC5ePHEOY27RgOU8Llm28Rurf/+sWfu9YLb6IaXtxWm85vF9Rdy/U2ht49eptWvgvA4ALWwLzlUL8s/QaPsr4Pf4pl3dfswIreBkBFjyszT8urxZVHt1ugcs9wLpJwZXy6TYNI8g66LiPXPsVkt1PThyd5bf1RbNYP0zX7SBw9cntvYqQCK8JAVZ/3qftsL14JNRahlnLYOunDIOt6/R57Gr5sPgfpruv4Tvv8YeZVWbdpNfrxfJ1a+sqtE+ABf047Gxve7MFKtdFyW0KrlodG889eQdZ9b3T5euj7cbZGi937F6Y9dOdMGt/Swv0+4uWqFuYVLZ27zpVXW190ZqO4eru9sPi2z2zDLf2UrC1DLi2EQjf3AmpvqTX6RcL//G68x5/fOc9/m6F4Ta/uFj2olu+Xq/S69X7K/REgAX9OOqwOeNhptfw/SKY0Jy9P3kGWa+L6WSvk35o08lBB9/uWnT16JEeQcvF+LK6brlQ38TVvS2hXxcpuS1YUh+saI3Ac7pfvjzTSP2iz6qrTaV75snXblmWd++Z+/fPT2tWfT92D31WTcVzHnqPL74PYos7AWzxyH9fxf3X6ec7uzEEqhBIWVWV6wH3NQvbv1s+L7+03tupqb66yqzE+mOquvLBddvqYCiPIOuymM3b3+o3nVx18E3u7yoKAQCgff9wTuFBXYQrpx1MPMtpckv9zfXPxWxuumAU9XWor0dR/CsFi1HVVVjtbvVrqtC62Ibw5Jh8AABgMyqw4DHTyZcOJqF8TIHByzUL+r8yuH43i21rJgvGF78i6+dWGqR3d+/cFLP5plvVAACAJ6jAgsd1Ebi8KaaTsxdXYuURXtXB1dvFgl54lYf4FVn/eXElVlN51dW9o/oKAAA6ogILHtNtSFRPKjpeO9hpKmROg08dvE3HqEF77uJWZF2mqr7Vt6I2fe1OOp5S9y/bYwEAoBsCLHhMUyX1v47Pz2WaTnj+ZNjTLL6PMmi2/SE1aBdcDUnsIOt8US350NbC5r7ZT/dO12O3u2k0DwAALAiw4CnTyXmP1U7XaYTvsiprOQa4y4qRtnxKFWWqT4Ysn6mF2/BbMZvbQggAAB0RYMFTmgqOv52jR12miis9rsZkOtlP20RzCFf7oHk7AAB0TIAFz5lOLizUf3CTKq5UnIxZP32lcqD6CgAAOibAgueowrrrNgVXZ3EOia0bd5Cl9xUAAPRAgAWrUIVlsiDPG2eQ9fODDeQBAIBWCbBgFU3z6nqRujPC8/Ux9bnSoJ3VNEHWaQ+T/7btfTGbn3hVAABA9wRYsKrp5Lgoij9HdL7qBu1Hgis2Np0cpYqs3QGexOtiNt8PcBwAADAKAixYx3RSN2r+deDnzGRB2jW8IKveUrsv3AUAgP4IsGAd08lPRVFcDHRr1E0KrjRop33NvXOcHrlvxdX3CgAAeibAgnVNJ/spxBpKP6zb1JxdLx+61wRZ9WvtXaZn+62QFwAA+ifAgk0MJ8R6b7IgW9EMRjjNbEuu8AoAALZEgAWbyjvEMlmQGJqJhXVF1uvgV0R4BQAAWyTAgpfIL8S6XPQg0r+HaJpG76cB76XbNI3zPMCxAADAaAmw4KWarVDnwRu736RFuMmCxBWvP9Z1um8EvgAAsGUCLGjLdHIasDG1yYLkp6lsPN3ytsIP6d7RHw4AAAIQYEGbmn4+dVi0u+XzepsCAA3aydd0cpwqsvrcVqhaEQAAAhJgQRe228/nY+pzJbgif80W3TrEetPxc1GtCAAAgQmwoCtNP5/DtPjuuiLrNlV+nZosyCA1QdZRerR5P12n+0ZwBQAAgQmwoA/N1sKjFGi1WZX1KTWQP1dxxWhMJ4fpXjrYMMy6TtNDzzRoBwCAPAiwoG9NmLV87K8ZaF0WRXGVFt8XQitGr6nM2k+Pn9I/71v2s7pY3D/uGwAAyI4ACyJoQq2nWHQDAAAwWgIsAAAAAEL7h8sDAAAAQGQCLAAAAABCE2ABAAAAEJoACwAAAIDQBFgAAAAAhCbAAgAAACA0ARYAAAAAoQmwAAAAAAhNgAUAAABAaAIsAAAAAEITYAEAAAAQmgALAAAAgNAEWAAAAACEJsACAAAAIDQBFgAAAAChCbAAAAAACE2ABQAAAEBoAiwAAAAAQhNgAQAAABCaAAsAAACA0ARYAAAAAIQmwAIAAAAgNAEWAAAAAKEJsAAAAAAITYAFAAAAQGgCLAAAAABCE2ABAAAAEJoACwAAAIDQBFgAAAAAhCbAAgAAACA0ARYAAAAAoQmwAAAAAAhNgAUAAABAaAIsAAAAAEITYAEAAAAQmgALAAAAgNAEWAAAAACEJsACAAAAIDQBFgAAAAChCbAAAAAACE2ABQAAAEBoAiwAAAAAQhNgAQAAABCaAAsAAACA0ARYAAAAAIQmwAIAAAAgNAEWAAAAAKEJsAAAAAAITYAFAAAAQGgCLAAAAABCE2ABAAAAEJoACwAAAIDQBFgAAAAAhCbAAgAAACA0ARYAAAAAoQmwAAAAAAhNgAUAAABAaAIsAAAAAEITYAEAAAAQmgALAAAAgNAEWAAAAACEJsACAAAAIDQBFgAAAAChCbAAAAAACE2ABQAAAEBoAiwAAAAAQhNgAQAAABCaAAsAAACA0ARYAAAAAIQmwAIAAAAgNAEWAAAAAKEJsAAAAAAITYAFAAAAQGgCLAAAAABCE2ABAAAAEJoACwAAAIDQBFgAAAAAhCbAAgAAACA0ARYAAAAAoQmwAAAAAAhNgAUAAABAaAIsAAAAAEITYAEAAAAQmgALAAAAgNAEWAAAAACEJsACAAAAIDQBFgAAAAChCbAAAAAACE2ABQAAAEBoAiwAAAAAQhNgAQAAABCaAAsAAACA0ARYAAAAAIQmwAIAAAAgNAEWAAAAAKEJsAAAAAAITYAFAAAAQGgCLAAAAABCE2ABAAAAEJoACwAAAIDQBFgAAAAAhCbAAgAAACA0ARYAAAAAoQmwAAAAAAhNgAUAAABAaAIsAAAAAEITYAEAAAAQmgALAAAAgNAEWAAAAACEJsACAAAAIDQBFgAAAAChCbAAAAAACE2ABQAAAEBoAiwAAAAAQhNgAQAAABCaAAsAAACA0ARYAAAAAIQmwAIAAAAgNAEWAAAAAKEJsAAAAAAITYAFAAAAQGgCLAAAAABCE2ABAAAAEJoACwAAAIDQBFgAAAAAhCbAAgAAACA0ARYAAAAAoQmwAAAAAAhNgAUAAABAaAIsAAAAAEITYAEAAAAQmgALAAAAgNAEWAAAAACEJsACAAAAIDQBFgAAAAChCbAAAAAACE2ABQAAAEBoAiwAAAAAQhNgAQAAABCaAAsAAACA0ARYAAAAAIQmwAIAAAAgNAEWAAAAAKEJsAAAAAAITYAFAAAAQGgCLAAAAABCE2ABAAAAEJoACwAAAIDQBFgAAAAAhCbAAgAAACA0ARYAAAAAoQmwAAAAAAhNgAUAAABAaAIsAAAAAEITYAEAAAAQmgALAAAAgNAEWAAAAACEJsACAAAAIDQBFgAAAAChCbAAAAAACE2ABQAAAEBoAiwAAAAA4iqK4v8BvqwPJn027CAAAAAASUVORK5CYII=;" parent="1" vertex="1">
          <mxGeometry x="323.04" y="330" width="213.92" height="106.96" as="geometry" />
        </mxCell>
      </root>
    </mxGraphModel>
  </diagram>
</mxfile>
